<mxfile host="app.diagrams.net" modified="2024-06-22T10:53:14.372Z" agent="Mozilla/5.0 (Windows NT 10.0; Win64; x64) AppleWebKit/537.36 (KHTML, like Gecko) Chrome/126.0.0.0 Safari/537.36" etag="qPqB3cFT_x_kLdN7kcb2" version="24.6.1" type="github">
  <diagram name="PÃ¡gina-1" id="HmH20H2JnJMKGvMvn0t1">
    <mxGraphModel dx="2260" dy="815" grid="1" gridSize="10" guides="1" tooltips="1" connect="1" arrows="1" fold="1" page="1" pageScale="1" pageWidth="827" pageHeight="1169" math="0" shadow="0">
      <root>
        <mxCell id="0" />
        <mxCell id="1" parent="0" />
        <mxCell id="fjJRFZ9o_Kp82EdIhfR--1" value="" style="shape=image;verticalLabelPosition=bottom;labelBackgroundColor=default;verticalAlign=top;aspect=fixed;imageAspect=0;image=data:image/png,iVBORw0KGgoAAAANSUhEUgAAAxwAAACRCAYAAABJwb6TAAAAAXNSR0IArs4c6QAAAARnQU1BAACxjwv8YQUAAAAJcEhZcwAAFxEAABcRAcom8z8AAP+lSURBVHhe7J0FmFXl9v8P3SlIgyAKCqKoWGAHttheC7EbExOURlGQ7u4aZmCY7oHppGcYulsaUe/6fz97zvbnvf9feAUUmL2eZz07zzkze7/vWuu76vWZRx555JFHHnnkkUceeeTRaaB//vOft3qAwyOPPPLII4888sgjjzw6LeQBDo888sgjjzzyyCOPPPLotJEHODzyyCOPPPLII4888sij00Ye4PDII4888sgjjzzyyCOPTht5gMMjjzzyyCOPPPLII488Om3kAQ6PPPLII4888sgjjzzy6LSRBzg88sgjjzzyyCOPPPLIo9NGHuDwyCOPPPLII4888sgjj04beYDDI488+kvoxC+/2KEjR2zzli2Wk5FhiSEhFjl1qoUOH27hQ4da+LBhFiwOFM8Xh4hjJ0ywpAULLGfJEtuwbp39eOiQHfv5Z/vF/50eeeSRRx6d3fSzZPrBgwcdGZ+clGTBkvnTJfsnSAeM9PM48STxFPHkESNs7rRpFhMebsuXLrWdO3fa0WPH7Jd//tP/jR6dieQBDo888ui0EKL/6PHjtlfKIDc+3uZ/8419949/2Ke33GJdL7/cujZubN1q1LBeFSrYN+XLW2/xl+IPxO+Iu+r8wGrV7IeGDW3kpZdaQNu2Fvr4YxbSrZslBAXZlk2b7LAAjKdiPPLII4/OLjp69KhtkgxfuHChdZVMf+bxx+2pdu3sgRYtrFWDBnaRZP/F0gONxeeJa4hbi9uJr5RuaFOzpt1+4YX22FVX2au3327dX37ZASPpycn244ED/l/x6EwiD3B45JFHp5SO/fKLAwbSQ0Js0Wef2tQ777BvL7rIPqlUyd7x+ex9cQ9xP3Ef8ffiQeIB4t7iz8WfiLk2VDzQv50nXiieVaaMDZFC+vr6623Im29a+MyZtm7NGjskcOPRqSciStsEGtfl51v+0qWWl5PzG69dtcq2bN5sBw4f9t/tkUdnHjE+N2uc5q9caStzc22Fxu4q8Ur/do3Ob9qwwXbv2WPHf/3V/ymPTjURhVgjWT173jx7+5137KabbrJGDRtaWcl0n2R7FXFjcTVxOfF54nriquIS4tria8VXiZuJLxJfIm4pbiu+VyDl6ebNrXvHjhYTFmYHPbl0RtFpBRyHNbg2bdxoK7OzLXPxYktNSLB0cXZioq1IS7MCKavdu3ebN7098ujsp5/++U/buLbA4iZMsHkdHrJ5dWvZmBLFrZsUwdtitmPEo/w8QvyDn9kfLu4r/lL8qX9/iLi/GFAyXRwiXiDm/IdiwMsHUjK9b77Z5vTvb6skaw4eOeL/izw6GUJ+L5cxNm/UKOvbqZN9cc019rWA3he1a9tX4p516ljPFi3s2w4dbGKPHpYaE2N79+/3f9ojj/5+2rNvn6VER9vk7t2t24MP2suXXmrP1K1rnTR+X9b4hd8Tf9ysmXW9+24b/NZbFjJ+vOUJlJD+6dGpoSPHj1tOVpYN/PZba3/jjdZYMru0ZDcg4/dcXFxJXEMMyGBbXwwIqSWuIG4iBlxcIwZwNBe3FgNEOH+P+BHx85ddZqMHDbLtO3f6/wqP/m46LYBjryb5kvBwG/7ll/bp/ffbq5rMD2uA3VW5st0vfrpKFXtZiuuj666z/i+8YFMHDLCEyEgnt9sDHx55dHYRQKNg9WqLHTHCpt57j006r7rNlcAfLwZkAAy+EA8TE6UIEAMeAB2DxUQwRosBI73E3EuEgygIkQ0iH4CSieKg4j5bWMxn00qISxZeJyrCPaMrlLfp17Wx2ZI7WSkpdvinn/x/oUf/CZ349VdbtWyZTe3Z0z67+mp7t0IFe6dYMSc69ZH4PfHH4q7ir8VEpN4tXdo+uPBCJ+KUGhtrh48e9X+bRx799YTTISUiwka88YZ90KSJva/x+YbGKYbo/eJnxZ3EHcWv+ZnjN0qUsO4VK9oIjfv5vXpZQV6eZ5OcBB09ccKWpqXbiB49rEOba+zCcuWsoZ4zIKGyGJBRTFxG7AIQjgEWdcV1xDX9+xeKG4mr+7eAjEvFRDgAH5f7+Q7xfeL24gcEJrt36WL5BQX+v8ijv5NOKeAgXzslLs4GvvOOPX/RRXaXlBRo82HxE+LHxQ+JO4gZEA+4+5rkj1xwgX3wxBM2efhwy/cmuUcenRW0bfdup/B76r332pwqlWya5jMg4FsxkQqAAxEKwAaAYpbAwgxtR4oBEYAN9zpRC4xXohuADhggASj57fMCHNGlfRZfxmfJZX22QMdTdX6RtvHiIO33KF3K+txwgwUNGGDr1q3zCsz/AyL1JC4w0AbqfX4p44B34YKMzuJ3xQAPjjn/mZj31EXMtQ8k879t1cqCBg+2bTt2+L/VI4/+Otq5a5eFDBxo/Zo1c8Yo4xWwwRaggR3yupgxTOSV82xf9Z/7TjxW3KdSJRv0/PNO+pVXJ/af09YtWyxq+DCbe8v1NrByKcf2u1hMtKKBmJSp3wOO8uKS/mMiHQALIhiADlKtACptxKRPEf0g1epKMcADvsF/DADhPuxL7MwbKle2t196yTKzs+1Xr6j8b6VTBjh27dljU0aOtBevvtruldLhhd8ovlv8mJiJDP9DDMi4U8wAAY2yf5P4dvEjFSvaV//4h2WmpXkdBzzy6AwlPFe5yck28403bFz9+jZbc3eReIqYqMabYgxUIhZELwAYgAt3y3kiE9RpsEXJk0KF8YrnHLAC+KC2A2DCfYCY0QIs4aV8FlXCZwsFMGbp3DhxYEmdE2Mo4HXnO4dXr2rzn3zMUsPCnL/Xo/+diEzPHz7c+lx2mXXX8+M9AjiQ24AJjLQXxC+KXxFjoHEOo473w3OHeY9f1a1rk7p1s61bt/q/3SOPTj9t1nibrXE3unZtx0nBGGbsPidmvCKXGLOADOSTCzhgohyMZeQNn3VSNgW6R7/wguUtX+6Bjv+ADhw6ZMHffWdj69e10NI+S6nos5navir5DSAAPJAuBehwQQYRjor+cwCOUmKiGqRJXSY+X0xk42pxUzF1HgAYUqmuE1/v3+f7Of+8fus9MbblVWXL2ssPP2yJCQke6Pgb6ZQAju3bt9vY7t3tGRkeAAiABIMCREtkA5DBZEZR4WEAcNwibiVmcHD/g+KXxAiDV0uVsm86dnQiHR555NGZRTv37LHAMWNs2nXXWkCpkk4hN5EF0qhQ1ijqD8SACgAATBQDI5ZzGKXskzLVU4yB6gKQCQITowQkOA8wAcAQ+eA693MPoGWmmEjJJDH1H6RbAXq+EXMvBsNcfU9mTd13962WHBvnRU3/FzouQLZo8mTr2rSp825golMYa8hujDXk9zP+Le8YY453AvPcAR0w9TaMg+8EOmb17297vLoOj/4Cwg6ZJ7AxqlYtJ52TyChjFFmE3UH6FCCDYwDGW2IAB1s3rYpxTVQVGcO4RlZ9U7WqTeva1YmcePR/E+Z8bmqqDbr9dkcuzy8hWVzSZ6GS7bPEn2gfZzS1GYAIohVEOAAegA1SrdhSJE7ReDsx7+t2gQciHReIW4iJlPB5nNu3il3QgZObonLHgS2+2c+3FC9ubz7+uGXn5hb+oR795XTSgGPfgQM2ecAAe0NgA2Xkpk0RygJYuPtsn/Qz+wAO8u1ArOTaodhQcBSBMvHfqFbNxvXoYft+/NH/Sx555NHfTXn5+TaiSxfrV7+BY+CHisOlCOaLiUa4KTYYnAABog+kQlEQToQCBc49X4npUuV2qkK5DxJAiKug7ytTCBgAG8E6N0FbPss9fBZjmKgJYIMtKVx8/2Qxhi9gBUW3UN+ztanPkhuWscnPPWd5q1b5/wuPfk9EkhdHRFjPtm2diAZGGrIYbzBOILzDgAzSUjiHUcb7wCgbrPc+RO9osoyI2TIsJut4rBhgiHH3XosWFjR1qh316mk8Oo20V3bCIoHbSbJDcESQZoksYDzDjGPsE4Az4/j3UQ7XEcox456x7Ta3wFmCLOvXpo0lRUf7f82j/42w2Sb06WOfnX++TZcsiBLImCPZMFvbpMo+S5SM/0LncTTTaQoAQUE4IIOoBvUbgI6yYkAI9RuddP84ff5JfQ+RDT5zhZjULDe1iu8DWJAxA6ABdHAe4IFDm/T+dpUq2QdvvOHVdPxNdFKA45iUSPCsWfailApKiUnMxCbszjHggzw62AUcRDuY+ERCGAyExgiZce1pMSCFmg++4xNN8oSwMC+1yiOP/maikDg7I8MGdOxoPStUcMBAmJRApBQA9RN4FIksACAAAI4xKgZ0EI0g9QlQgPfb9aCTRoVyByBgoBLJWKDvC9P3LcIjJo7S/kz9DlEQUqxIecAoAKQQNYExLLiOscu9U8VEW2bou/Ka+GzPxQIu9c+z2T172W7P2/7/0fq1a22IANmHpUs76VM8X9LacAJxDMDAaOOd9dX7GArA0DMG4FFTEyZgFyIerecNIEQPPC/GgAMkDr71VstMTPRSUjw6LUTb5rh582zi5Zc7coY6MuQTsobaIsakG8UAbLwsJiXQjXZQLI69wb2McQAGjgwcHXPEyLbe1arZrIEDvWYIf4BSU1LsjTvucKJHPEcizYCM5Eo+Cy/ns3gxkY5vJEPelMxorS2dp2h566ZYATYAFoAPoh+kVPWRPvhCXEv3E9mg8BzQ4dZ4EPXAlsSuJOpxm5ioBylVbrMAJ3VfQGjEgAF2yGuZ+5fTSQGO5bm51vPhh+3Z4sUdLwEKhkmNsuEY8IHngAnOOcCGe8wAIAzGAGFggEIZDITEGBh8vnPZsjb0xRedwk+PPPLo76GfBDZiFy2yPnfdZX3LlHGUMEAgTMqCInAiG4ANAAZGKExkg/OACqINdKfiHJELUhbctBuABqDBjVAQ0YjGE1beZzHaxkrBACC4DyMYowAGfHCMQYtHnmO+O1D3LhITfeF4UWWfbRXoCJWS63fJJRY2bZpXz/E7ol1lyIQJ1q9BAwcs8px5P6SzEYXiGbsAcYSe61S9j4liQAd1Nngqe2scvK8tTqO7xDiUeCe8U7zN4zRmJnfq5KyV4pFHp5qWpqbauHvusdGyQ4h6EpVwt8gHxqlbr4F9gl3CFjkCkMbWAIAATHBc4CRBlmEsI+uQX/1Y++ell2yt5xn/XwlANrRfP7urenUHzKEfFpT2WU51n+VW81lkGbFk+2LJ5QjJ5BmS8Q/qHgAFDHiglgPQAaggggHoAFBQGE6kApBBqhUpVWTJcExEhEgIAIN0fr4L2xK7ki2RDzJpYGTUG23b2pK4OP9f7dFfRX8acNCRatawYU4fa7wDTGa3IwTH7qR2JzPniGDAeBkAHoS+GBCkXDEIaG3GgEFx8Vm+6/26dW364MF24OBB/y975JFHfxWRCrNYYGPoTTc5RijtbCNlcIaISZ0hOoFx6YIGvIIoaCIcRB4wWAEWAABSFPgOgABMJAQjdo6MVyIbeCcBMQlSULFSRHHaLtSW7yZNC2PY7YjEb3KMgYAxjFeeY34bY4NoCVGQkfq+lKo+m6K/t6evmI26u70tTUnx6jn8tH79ehvbsaONKFnSAXxuTQxAkQgHchzvME4ioh2f6n0hz58SuykqroznHWDc8d6n67kv0vvDu4mHeFjNmja7e3fbuXu3/5c98ujkaeOmzTb5zTdtarkyNl/jLFDjbYrGKHLAjXIgKwAcjGPGKeOV1EDGKoAD28Q9RtaQToX8YNwit5gTyK1vJQMzk5L8v+zRvxPF2GkxMfaqnhO2HDJjtuRuqsBFWhXpDQEMgMaqOj5bWUtyXsBjvuREd/FNemcACqIWgAlAB+txuClXpFrRxYoohlv/QRoWkREKxd2iciIbgAqc1wAP7uVv4btxbJNZw/WnK1a0gV262Lbt2/1/vUd/Bf1pwEF/6v7PPmv/KFHCKQxH8aCg3CIswALAgkItlBYTnTQrmIFI2hQgg1QrQAggAwBCbQffx+f5Hj7/yW23WVZqqv+XPfLIo7+CiGwsDg21oW3b2nfFiztKGCU+ScoBwIBBT2SD83gEUdZuPQVAhLUaSMdBWRPdABxgjOJB5zMBUkYJUkJEM4K0HyBwQbtbUqrgQCmigfotDF1kBh53fpNoBkYEv8HvAzgwHDiPl540LcAH+6P0eRQbnjSAz/QK5S3wnbecVYeLOmEgLI6Ksv5t2jgAg2fLMwUk8jyR2aTDkhrbWe+jh95Hf3FXPVPkfD9tJ+g8oHGMmEgU4wNjjyLR+QIcw3WO98576nXxxRYyebKTAuORRydLdFWb0/8761e3rtO0IrWsDFoxDgzAM3UcOD6QA8gi7AmABcz4ZYwDREiponaU+jJkBE4ToiN8Bw4WUrQcB8ollzjy0KP/njasX28jX3nFHitf3mkGhH03DDmgdzJS72SB5PCaC3y2ur7P4gRAQiSTF1fwWbT2O0uuAARoJASIoCUuaVUAC9LuiXIQ9SDSgY3YUXKFTlTcC6AASFCzwe+yj31JsTnRD5zYLtAgq4aicjJsXm7VyqK89/mX0p8CHOTixulFfXj55U6qFACBiAUpUxy7yt/1fgEemOCAB7xij4op8GEA8FkAhwtG3K5W5AEDWJzoSbNmlhgWVvjjHnnk0Wkn5jipCmM6dLA+xYo5BiOebxQwdRIoZY7dFcPdWgy2GJhEIXBA4DUEnLi1GwAOQAlgI7mizzIq+SxYhulEfWeMwEeClFOgrpPKwOcwFFzZQsoD34NBjHzBQCBlgt8FYABCXCDCNf4OgM5CKbNpUngYEY4RckFDCx41yg4dO1b4zxZRIv1h+rBh9mrDho5cBlggi92oBu+PSDPvcL7eTVpVny2SkTBe78oFn3P1bDHwKA6dJsYb7OS/a586Dww1xgcglM8Mvf12S4uP9yJMHp0UHRdoXRwYaCOvusoBy/MlT5IkO8K1RT4RLaWOC9CAvEEmkIHhplFhj2CXYGdgowA8iJ7iHHGjtAANmDHtAA7Nk+AJE+y41wDh/6P9NA/64Qd7u149x44j4kBUATkyFNmg90J0I6um3o9ARj/JjGHiJZIp6edJLkuOIB+wHwEOAAlqOIhyUNtBG11a5hL5II2KdwloIAICsEB2oSdIs+KzLrAgRZ999Me9YiIfLuB4qlIlG/zll7Z7717/f+HR6aY/BTgotpkyZIg9V6eOs8YGUQpeOPuE2lH6GBdMaAwGPJNs8ZgBILgf9Mv9MOiTQeEMAjFKDwXIAAKkvCXAkRAe7v91jzzy6HTTuoICm/jCCza4XDknegGwAGyw9gWrfWNsosxRzCh0ohsY+HgIuR+A4qbXcA2QgBzAOMAQJWUqoozPZkgRATZYR4PoBgv5ATZQ9Ch/nBbIBbyQREsAGIALvgvmd/hdoiZuDYILfgAn1BAE6Pv5O12P5TgBqNG33mIZiQlF2vDFQzzy88+tU5WqjkxGFrtgA3kNaONdYrxFCBSGly+MaAAEMcpIOQFM8P6IerkgFHABwHOAiPZ5B66neEyZMjbh+eetwKvn8OgkaPeePTb/iy9sUtWqjvwhhY9UTxpUMM6CNB4XaIuDgTFJPRkRPOQQcgmAQaQDQO1mZwBEkF/INsYrdWdu+22+c1D9+hYogO4Vjv8rnfjlFwudM8fead3aiUQTLcKoJz2KlHl0AI6k9Io+y6nhs+TzCztWISMW6jy1HDiFiHiM0TtE3gNYWIODSAegg26mbj0HqVPUcvTTZx4WE8XAniQaS8E44IQoCPKMzlTYl259GdEQ6jn4DZzb7918s2WkpPj/E49ON/0pwLFz5077QYrq0WrVnBfvdqDCU+Dm+rreMQqH8BzgneQcQIKXDZhgogMuABvk4TFIGDR8F4gU8AG/e/nlXks6jzz6i2jHrl02s2dP+75mTcdbjdLGmIRRwEQN8EYRMSDf2QUcKBaACR5BjE4AAGAAw5X8fkAAIILvpJgQYxYAQlFhspQOHa9cryTGLE4LPF7ICZwYAA5kC7/DZ/l+AAffwd8D2ACQcMx1fgfDAYA0R7+H4bxAWxYonFO+nM1/9+0inVrFYq2TP3zfvqlc4bc0Eweo6RnNEPgjqkEEgzx23r3TJlTXeL/z9Ey5Np1nqy3pb7O1z9jg3blg1AV5pFux74COGjVsbq9eXj2HR3+aNm/aZLM6drSZpUo6Y26cxheOBeY4QCFE+6RZATaQEcgj9omM4h0HXGCPEOFg7LuAA8cFYxQ5R00I3+WMX/FgAMfw4R7g+DfKSE+3zvfcY88XK+Y8T8Ac2SlEFwADyO+pAhOLJFOiK/ksVYBjmTi1us9Sakp2lNd1yY6UyoU8UKDjAb0/wAPRCtKoWCTwUjHRDgAI0ZNukjmdxAARwAnnOoj5XexJmg8BOLAviW4AOPh7iKC4UY7na9Wycd98Yz96NcJ/Cf0pwMFk7/fOO/ZIpUoO4OAlAyTcCAbsRijwljEAMRTYAiQAGQyWPmIABbUbFI6DSN3QGMoPsMJ3fkoNh4dCPfLotNPREz9b6IQJ9n3Tpg6QwGgEWGBsotjx9uEBxJiHOY+xDwhAWXM/hZsLpDTwhgMC8CoCBAABABCABMcof1qpLqngs7iyhWDDrQHAaOWzgAy2M/Rd34kxDPgOrvN38Zv8nXw3oIbv5G8hugHwAAjxN9K9aq7fKMEYCdG5WU0aW/jooptaxQKOC7p8YItqVLCReia8R4AF9RjRUvyr68oAkFEwQe8Igw3QAFB0IhbakkJFFMMFGxTr8nmABVEs7qcuJ5jIlUAlLXQpIgfAjLz4YgvXODvmdQzz6E/QhoICm3b//Q44YLwhm9hnbOFUYI4HaJ9opyNnxMgB1xFKahU2BsawCzoAHDgx+L55+vxCPwM4kDcAjgUCHIc8wPEb4bDp/u67dnOFCk6KPM5inidOJp4vhdqkMXGul54l4G+oZEJsVZ8treez9S18Fi7QQfe7zGo+S5bciZasoJCc7lKkTwEoiHSQLkWkg45UABDqPQAQFI9T60FNhxvRoGNVS7HbARXQgZ0JEOFzpGHhKH9UIOmTO++0nIwM/3/k0emkPxfh2LXLhnbt6kQ4QJHUZAAyyN1jwAEoCFexD9IlPO8WkQMgPtbgCtWAG1mu8D4+x2THs/a9FNLn2vIZDIh3ixe3Pg88YMuys/2/7pFHHp0O+kWclZhoI2+5xTHk3dQZPNoocoAECph9dzE/jFSMe+53Uml0PVbgIa2iz1lLg4gGKQzcg9J2i74BHBQSRujeTCmZMN2Ld9IFHHw/YAGPO0bDHF2fI0XUV9//22+JATYYu4ALHBTIDH6D7wfoEBkBoGBw8LeSMoGn0/GEFi9mY/S/picUzdQq0lLmfPi+TalSuK4Kz513TfrJdD3rHBkC6TX0TqT8ARMACECeex91Gjx7Ih0YcxSIz9XnwsrL4NN7pUsV63MEacv7A3DgyZyh+/iOiXfebjlJS7x6Do/+Y9qQt9qm33Gbk34JAEa2MKaQCaRThWtM0mKbc8x95jtznywMnKEADDelinOkErpphMg85BzrDIXrOwAwjPdhAhzBXkrVb8RzmDV0qL3coIED3LDliBzgRMZRRMorzxf7EDCCY5rUWOw8asESK/kst77PkqoXRj/StF1ZR9sKApB67jih6TpFZANAQaoUgKOmmPoOzpF6BYCgkxUREYAE4ALwAVABYPA3ATzIoMFe5R46WOEsJ8rxTM2aNv7bb+3wkSP+/8yj00V/CnCc+PlnJ+/t88ces2dKlPjNS8BAY9CRBgHoAHAARMjpc9OsCGcO1uAKEeD4QEqIAfidBiCh+UANwhgpqwApKAwNIh1PliplfZ9/3tbk5/t/3SOPPDodtHHDBpv/1us2v3JZJ9pA8SUriBMdQInP9xuLGJcACAxTN1UBpY5ByueCNa9DNZf5HAYqEQ23psItHJ8lgwBPFl1loohu6LtJY3ANBIwDvGGAB7ogzZcSSq+lrWQHBgERDQxegMpkfRaAgdOC1E0iIjC/BbgBiAA83BoPt7AcQPVd+fI29u23bcuWLf6nUHRo7969NuOTT2xA5cq/ATGeP8+FuowgvUNWD+ccKSWcI6WKVpcLdG2+roXqfbDw3zwdB2gbKaCZUEXnyukzuo5xwTPnXQI8AYQASUBk74oVbNx7nW3Ltm3+v8gjj/4YrV+Tb6GP3e3UgpH2BGB2Ihwab9SZhYpZkJT0yYWwziMzABbYJRjCbtE4AITzbqoVMg2nCi264/X9fI8T5ZBhHT52rLdqvoiFYDPCQmzItW0cxw6ADIcOz5VMFew+6m/ZYvdhG2LoAz4G6HnGSPbTNGSxQEeMttmS7UnVfBYh2RFNTYdkDBFt7icFinoQVhSnfgOgwT5bQAZggkiHu94GvwMDONxuWW6HKt493+mu0cHfShr/+3ff7UU5/gL6U4ADwiuVKdAxsFMn+6RePWfC8vJ4oQAOohZsOQbZsiXExoTuqYH0sSYzLxokPEuDC+U2ROfJHQ7TPkqP+58pW9b6vvWWbZAx5JFHHp0eYjG8sDFjbXrjRhYt5cwaGLFiFt9DYZNmgMIGLBC1cIEGqQwYo6Qr0SEGZQ9w4BjvI/fg6cLI57PM8VCBh+U1fZYj5RKlz+ChRGHxG2wBNEQlMFTJzeZ6rBTS7isEOqoXGhjIBxQc97pRE4xZ6sUwbJEzpHCiAJ1wvthJixBznZQKoiL8L72bNLEQGRLHipghcfDIEVs4aJANqF/fAYO8Kww3oku8V7f2gugGMhovJBGLUI0LAGUwgENgkQgGUY5x4u903yBt++szvIOP9L6HyqAYLCPiI51DT7geZac+p2lTC5oyxXFieeTRH6UtmzdZ+NvPW0jVUk5XO2QC8gYnBzIIxwcM8HDTq5AXyAQcpEQzYLIucJKyRS4gp5BtfBetuaM1nnG6INMmN2tmSQsWeBE5Ud7yZbbw+adsXoXSjoMIsMezR4YAMjDqea4fIQ8kI0iRcpsAIa9n6nz2eT4ruMBnuef7LEX7FJAvkJyYLhkTIx1BO/MfJFue02eJVFCnAeAAbBDpYJ/IBnbk6/ptajgAIEQ8qOO4SOwWkBPJIIXKtUXd9CquAUYeq1nTRvbq5TTS8Oj00Z8GHBCtM3fv3m0hU6faR7ffbk+WK+dELNyUKjfFipAWL5ZzTHaABLl2IMxuGiiAjbni7tqfoO18MQoQb+VzFSvaoC++cNK4PPLIo1NPKNClaWk24d57ZFwWc4otI6QQABshUroY/MxHPFkY6Xi8SZ2ZJ+WAoYmyp8AS5QyAoFsMdRkLdQ81GoP0HaTbEMFMlPG5WuAhr47PFkuhAFKoByBq4eZgo7QAHEQ2MGqpB4hs7LOjElVrGuicrhE5AXQQZSG6gazAgOBvBNjgRSc9AgCCNx2wwf9Be0sAEAAFEMJ9HP/Qvr2tzMpyZFpRIdbhSI6KssFt2jjP0nlGetYwqU+8L1KjABVhsN43tRjUbdAaF0D4hfZ5VwA/jmka4jb8QLl31+ey9c6SyNPW9yHj3ZQWQMe9xYvbZ88+awXeCs4e/Qe0hy5VXT+z8dWrOsAiSOMKYECXuwAxThAaRRClILWKuY+zgbmOrGDuIxeQGdSNuoADmcFYBrREiiPEdLuaqXE68c47bZnkZFGnfQcOWOi3fS28UQ3n+QLOcE5Q30W3Opw8zP9PtB8vWb9BsnthpcIIEoADBxDR59mSDWnSA/mNtK0rOUOKleRERGV9rqrPluuzmdX1/dIZj+i7WPSPOg4iF2xZlZwoB0ssACYAHxSZk4IF+GDRP+o4SJ8ilYp7iHYAPmA6VpF6RXQE0PLuDTdYYkyM/7/06HTQSQEOl/COzps+3V5v1syZuAw28u/IkQNwADwAHYS0UEIAEreQB28XYffBmtjUboySUsKbhjcCwfBUtWo24fvvvfw6jzw6TUS3oPlffmnTq1dzFLMTsRCjaPEe4vVGCVNYzH6wgEL+hT7b3kzAQcqCHFy6FqHwaW9ImhM1HOlSHOlSHCmEzaVcUrXN1rkEgZE5mudhMl5TdR9Fx+RY44VkS9QBIDBP52PLFIba85r7bGcb3V+j8B6MY/4W/laMZYwHjAiAkVvcjhJ0oyac4z6uY1QATDAwYIyQr6tUsUkff2zbduzwP5WiQRs3brSJL79so0qXdp7rfD1z3iX1FjiCABxENWhZSdqrWwcDkEOOo6iR9xgZAA3SG0hXQLHjVGJBr5kCKmP1eQDkaDHpbNTh4G3m/g4XXmhzpkyxn7woh0d/kI6f+NliZ8ywsRdd5Bi8OD0YvxR7w3Smw2kSofGH5x0nCc4J5AoedsYxkQzkgJtSRdSTY+7jOwAbREhwcMwqX87mfPKJ08GvKNPP//ynZURF2vybrnPSomjCAchDbjjRUD0rUlgBFbMl+/dc4rMd0hVBkv08XwAHkU3mPjI7ULJhzaU+O3y3z7Zc5bMMgQzWY0JfJElXxKIf9B7f0Xe79RyADRiAwaKAyBsW9yOywXXSr1ifA5sTYME1mEgGkQ1kFn8D1wExMLLquUqVbNgXX9geb12O00anBHDgFYyPiLAPr7jC8XDhMeAFgiqZzNRwACxQQrxwQAeABGXDlnsYiCguIiQMTNIjGJSda9a0oAkTipTn0SOP/iqih3picLCNad3aUdoY/UQbiDJg1BN14NgxRsUY8snnFXqtKPDb3FRAoIXPchv4LK6mWOAgTgqD2gyKwVcKICwTIMnQPoAjUeepBeE7KSqPlCGKcncX63IL0idLgaF00vWZ/Nr6Hn13koAKNQWAH4xe7nO9a3yfm5YFuHBTvtxz3Mtn3FoPPJtEOXBqADjgHhdfbGEyYlCqRYUw8mPnzLUJzS4qzHXX+5ip9wOQowGAWyzOOgcATupgiCAR1UCukyaB55C2k+5qvshxmoPgaCKSgZHnNiHA8ONd8Y54/uiL10uWtF5PPWWrV63y/1UeefR/06oVK2zywx1sTskSjtxgzCJHMICJnNJmm3QqnCeMOYAEUQ5XtjEekQVkXVBnQHq3G8XlfqfbnrZEfKde0twSA+Y5jTWKMgG4Fnb90sLOr2zxer44mUK0jRL4ICqEDOeZfqJ91tvYdoH0gGT3UF0nqoFN5zYJ4l2w8N+ua3z2y7M+++czAh1tJefr6rPSG3TIC5QOQFbwfohYELkgKgGooD4DJnsG5zW2JB2xABsAD2xQ0ruIcAAqsD8BGdigbsoX8oo0LKIcfMfrV11lMYsW2S9FSAf8lXRKAAcvJyYszN4T4EDBMKAAHXi8fr8uB/tcA12CPHnBDCIKfRgMMOdgwAqD5dNmzSw6MND/Sx555NGppI3r19uYF1+0/mXKOIY7gAPFTatZtyh8lJQKtRQYiyhqcvnJ4SeNIVKKJFYgY3Ujn20S+NhYXwBDSoR1NVIFELKrFAIPCgSpCyHlCsVE5xdSHgA0MKlOMMXjAI00fS4XsCLO1fflUkyoz5NKxd+GlxKFhTFBfjUGAsCCfUAGURKMXP5eAA2pWbRnHaff76FjtyWmuzipU1TOgoBPPGGrV67wP52iQZs2brQZnTrahDKlCgvE9Q4oDKewn8W5AGs8SzcdhS3PF+CBNxN5TrQDxxH7tELneWK89dGzZvwAWGaKeTd4l4ky8exxLjnfU6eOTRk61OsA5NEfJmqQwkeOtIn16zmOB4xdHCI4MmI01wEdRCiIuiJjiG7iVceAhRnDGL7YJ8gTxjhghPEJI0soOp9bsbzN/egD2+o1N7DVy5bZtEcetoiKJQrr+/R8o7VFH5BOhQ7hWb6rfaKa8yWzh+g9fKlj5DWOCpwR3IMcJy13tUDJjqt9duA2nx1/RPyAzw7f5bP9N/osQ+AjUN8xUN/1sL6D2gwiGaRK0TKXug7AB6ADhwfXABBEPTimrph7iXAAMIhuuOn8HBOZxWHiRkduKFfOvn7rLdu6dav/P/boVNIpARxQVkaGvX799U6EAmCB8mFggWhJswI8oOQ5JtqBFwyUCeIEZYJO2TIQYK45C8m0a2eLY2P9v+KRRx6dKjp8/LhFT5xog5s2/U3hAjAAHDDKd6IUypLqPsuR4I+pVGjww7RDTRIIyBYgWCLAkXleYSH4ch1nkUZVXtelTFIEOtgmwgISFKIDHFBWC2QIYOBi0AIMAAy0S8zSd62p5/++8322VN+fIcDCatfcR5Ein8GIoMEE6T78TRgJGBykUzipFdpSvI6XHsM5Wn9Lir4rRn93gEDQABklnXUNoxkjmsjJtNq1bGHfPrZn/37/Uzr3iShXQlCQDbvyysICUD0TUt5oZcv6J4N1DHjgOeEFJiUK4wGDAW8wwMHNzQbEIf8BHMP0uTF6xwO1HabvoY6HMQbYcPUCkWyiJp9I1n92112WkZbmRbM9+sOUt3KlTXjiCZtRqmRhy26NMyIcyBdSqqgxCPUDDmqMALjIOqJuOFRgjGDGMWAY+cG9ABJAzPyypW32E4/bisxMr1hctCIry6bdcbtFSb7HkWqpZ4sjCblNBIPnybNFDnBMJ0HmP04dwB4gDzuQY54774SmEznSGSulY3a1Fdi4z2ebtT10s2S/wEiodEearn+r38NGJGIBiKB7FREO0qsoAKeWg+gH0QyOcWYDOIh6ADgeFruZN0Q5iMpilwI62CdlC/ByR7NmtjAgwH6RXPTo1NIpAxwF+fn21u23Oy8V0EF0g2gGAw/FQo6kq5DYJxLCwAN8wITmGRy8+A5iwu2fS4h83qGD5WqQe+SRR6eWVi1datMeetCmFi/uGPAIf2oaUApEDEg5GCPlnSYjncgFSiFACobaikQZ7Gsb6XxjcQOf5dUS8BAoIP82Vkx+7xIpJQBHohQFSmmxzqfrHoBHkL4DDyK/S6oO6QsYBoAKohvZ+k2+j8WgSMXCgMCYAFgAhgjlO+lU+gzpV855neO8U0vCd4oxILgfI4JUrkT9TYCi1XUKO15hVE/SeQrTnZWKxeOuucZSIiKKlIFx4PBhC/zhB/uuTm3n/Q/Rc2ALEAMcEKFGJnMOYAYwxWDAwMCgIPIBKAFAuJELgAVNQTAuOM91gAj3UrcH+GC88f0o/Zeqn2ejunf3cqg9+sN0XEZh1MxZNumySxw5FS/Z4dRvSCawhgYyBS88soaUSkAzY5moGs4OPPJEVol+4GBxnRnIkymlS9nsxx+zZenpRT6VyqXctHSbevttTv1dvOQ6naTSJJ9pEMKzZa4DODDkaRARLLlN1zqiSOgXnjX1X9iBbJEJoySDs6VbVkmHFFyk/YZ6fzpe20T6o6bPIknN1bXx0h9EJciIAXTARCXoRAXIAFQAQgAjAA6ABgAFkMF97grj2KgwGTU4uonKYrPy3bTTvaJUKfvghRe8RhangU4Z4Ni6ZYt9+9JL9lKZMs5gI8QO6ABIoEwYjCgat9c1DODgRXMdAAJzP9EPBuLw8mVt/Msvei/eI49OMWFgBn37rU2qUcMx3FG0GIgoDOYe3msHDIjpROXkREupYKTjicoXAFlxfiEoYKG/CCkWPOMoasAKigawkSyFFKV9lD7KH+CBV4xIhfv9GLCkQcTrWoK+i/oPZ0E5nUuWMsOTBoggAkJHK1KxAAcYC3yW7wFUuKlVeN/xpuE55/8CdJB6xT2sJcFCdnTF4zf5u+i65H6P4/UsW9amv/aabVi/zv+0igZtlgwf8/579lHlyo68xkjAaYSjCIDAYly8Y54T3ks3HY3n7KSj6DrgkToZ17BDpiPzARqML4wOgArvhYgUOoDmIugLvqtnmza2JDzc6aDlkUd/hDZv3WpzP3zP0ppUsAyBDtfhgLyhYx5dqpBxyCYiGYANIhjID0AH5zl2ZQfgY1SFCjbzmacdsOG1MiikvQcPWcjAATb7gvpO9ChNQCBdAI86uyAdE/3EuYwsIK3yA72D2ZKzvfX8kQPYfDxnOtzhkOinLQ4tUlynSPYnSl/E6zsDJe9pkctK5Lm1C6PnedpG63ewIQERAAO3noMIB1sABVEOgAeRDwAJqVaACvap7QBkkD2DjUlDI6IdOLkpAcAORdaRinVX06Y2c/Jk++nECf9/79GpoFMGOOgiNXvoUHuzXj0HMQI6CLMDKNwQGogWZURIEwXEOV4wEQ/u4YXDhOSdcxUr2KiPPrLtRaxzjEcenU5y1tBZvNgm33qrU2yJIY+SBWjg0cYoRPGikPH4AxDwGMaXk+AX2Nh8oc/WCHAkS0Gg2DH0MSDxEGKM8n1ELEKkhOhegoLh+7jGd9LJBMDhRh4oVo8Qx+sz0WLuQWlxH0YDgIB9FpsjguIsQKhj/jY3b9utDfhG53rrdyla/Ez7fA/nAVCAEP5HDF9kEP8nCgzDGuMZY4S/EcNj7IVNLGLcWDt87FjhQysChIm/MifHvnvicfuoZEkn+kBU41s9R1KsaJPLwn+MEQwKNzqNMdFT52l7y2J/PFfkOrIf0MH9boE+gI53D/NeiHwQ4RisdxYgHl+xnE1/523b5uXLe/QHiehDWkyMBd3W1pLK+yycsarxyIJ9pFRRa4acQC4hc5AXLBAI2EBmMd85ByOnBpx/vs0V8C7Iy/PSqPy079Bhi500waLatnAAQFZN6YCGhWmv1OpRI0eXQGw8Z4FQPXvkKp1Hmfc0mEAWEP3geeOEQD4M0nUYe3CivgMHU5ZAIw1JNjb1WUGDwoYjy8TZ+h3eF9EJgAQpUAAL1tugloMoB+n4r+u37xJTCE40BMABsOA6NSDsk02DjQnoIALCd2J78rci2x6X/PvkmWdsnbf+2ymlUwY4oCRN+o+vvtpRQrw0BhiDDsXFgGLrAg+3DzaeMgYf5/GmAVIAHwzQzpUr28Q+fbyWuB55dAppx549Nuuzz2xutUpO21uEOKkyKFs8UDBePzyFrMPByuELxKQ7xeOFqiggIMOfxZuoj8B4xJAkWgEwQHGj3AEhbp4/c519vpt7qK2gA0yImJzrWTWr25yrW9uUm260gddeaz9c0MgCypVy7sEwAJiE+yMgRCUAJRgPACaiHRjDczA2avtsaTOfxUkpxlYt3M7Q3+qu1YHxTF0KBrJbY4a3rbeOWS2bSA3fP79McZvb4V4nZ7ko+drp0BW/aJF9d801DljjndHKlhqYUWIAG55MQAaymlo9GIBBYaibIoWnE/kP0OAzyHTuccCe7uMcMh/m3EjGkph3OuGSiy1u2lQ75rXJ9egP0o7de2ze+50t8fyyTqMK5nGwxhmRWeQY8gOZg2FMwwrmOPUFyC3kixsBHXTRRTa3b1/b4hUN/0a79u2zqFEjLbTNpU5Um/TZAoGNbRf7U20FEpCp2GzYeegBWmhT68WcR75i8yEXcOyga/rq2eOU7qUtkWYiozgq4qRb8gViSK9aKVm+/MISlnp1bQu79WoLu+92C3riEev36KP2QuvWdlu5cnaZPgPgIMJB2hTR0nn6e2aI2+s7KR53oxxsKQ4nggHQcJtcAD4oHCfK4aZ6YZO+26yZhc6aZcc9OXTK6JQCjuVSzr3vustRLjBgA0bRMxBRMr/P78XLSDiegYmiIrLBIASs8MI/Ou88mzNkiNef3SOPTiEtiYy0SddebQllCj2ApBOhePE4U7fhggJaTLIIHICCcyhkgAQeKq5zjs/CKBk+y3fALgBx78FgBbQQ+SC9gd72eCBnX3yxBb7/vqUHBNiqjAzLW7HCVufm2rLoKIvp29umXtPGxpYq5YAXfhsA5BgT+rvpPhOq76QIndA+iwmyMGB+Y4ENv6ds1wU+S61eaOQia8Zoi3Lk+1ByLDIaos9HCJSkCqBkS6E6rP3IetUstGcP23fgoP/JFQ06dPSohYwcaQMbNnTy3vFKIq8xKFzZDOAgDYq8Z9ITcBbhMUSGo7TxFrJFD7ipVXweAMJ3YBhgBBDhcM/1ZDzofc4rW9ymP/GorV6+3P8XeeTR/040wIgYM8aCL2liS0jx1DhCviAriIiShomsoLaMqClRW+QbzhacFqwFNPmG6yx6+nTbd/CQ/1s92rx9uy3q08sWXdzIMgUG6BaYI7kKZ0uuxlWQPNVzxa7DeCeVEoN9qJ4tspa5zzXsO+w+5APAgqg43fAG6J5xevYs1kiqG00mltQoYVFXXmQhLz5rWaMHWEHcIsvLybK1+Wtsq/4eMl5ypSumDh1qL8jevLxiRSea4ba2Ha+/KaWyzx7Wd9GxiqgGtRvIK/ZZjsGVYThNcJADOCgk5z5kGudeK1PGBr/xhgc+TyGdUsBBmka3a65xlAxo1g2jsXWVFYPPLSBEiRFuZwvoAJQ4yFLMd3zcpImFTJnidFHxyCOPTp4QnrPff88izitvaQIcAAAAAhEA5iBGOWCB1CKiHIANDH2UM0qb6AXAA48gaQsoa65xn1uPQUEx0RI8h6QywHgbUfSkMgBYplcobwEPP2RLggJt948/+v+6f6WDMiKWJidb8Hff2ZiHHrJRtWo5nydFwknZEmNAkGo1XlsWkYrS/4RXE1ADiNjUyGfJUo7u3wMAYp8ISbj+HgrZWd8jBWVKrnC9wmL4pdpP0PcG3nSdpUdF2Ilfi1ZyBS1Ax378sb1fubLjpcRQcFOoiAzBboTDTaF1QQVRC2Q9IIS0Cc5jiCDfMTbYIuP5DiLceDzZDtX7iNR7oFZoWr1aFjJoYJFKafPoz9NPshGSQkJs5nXXOq1sWVMGsBEn8AG4oI6DcUUNWZiu4fBgXaHJJUvY9KZNLOjdty13yRIvquYnLK5lAvyz3utswfVr2mI9ywSen55nRqXCOjucUch7tz02kU/mP1vmM5FtQAbOB865jgXuIc2WBWLRNdiCOBrG161p3999j4V9399WLU6QrtpmR/8XsctyDHl5eTZp1Ch787777M7q1Z36DWRRD73vm/QbpFS5nVCRR7TFpc4D+UPtCLKL89R1cA81HgAPttz7euvWFh4YaL8UMfl/uuiUAQ5AwaKZM+2tpk0dzxaAgyIhohsADAAEyonBhwJyBx4vHpDBoMPoAR1zP5/tfsklFjlrVpFT9h55dDroxK//tMT5ARbQuoWlyDBnTQyMf9KdMBKZg3j8iF5gkMNONELCm0gIqU+co14CgAGQYFEsFDf1FLShBVQARAApfA+fx9MYo98CJODZmlytss169RVbvWzpH+r+ckyyZcf27RY3ZYqNadfOhhQr7Krl/H36LVawRp6QxkNEtb+OSQMj5SuivP4mKUp+l7+Vv8f92/h7MUrotoICJVeYDlbkJScIiFBPElm9vAV92LnIrUAOLcvNdboEPlKypJNu4IILN4rh1ulxzJZj15GEjOfYBSIYHMh0rgE4MEQYc3g+Sd3CcKHjWJiee4TeByBy5l23WWZCgtchyKP/kxgjmQnxNvmWmx1niAM4NO/plJcgORCr42hxqHheqRI2s2oVm3Vpc5v/xmuWGRlh+w8WrSjm/0ZHfjphCZGRNvqBB2xh5TKWhlNGjCMHnUFrczoVYq8hb5nbOI6Z30QKkBOu0xgHAwwgcVPqcTRwjjQ3nFoDK1eycXffZQmTJtrmTZvs6H/oYCbllc9NE/B44eab7dZy5Rx5Racq/h5anwM62Ed+kVoFEEFn8Le4XatYG44t91HX4bTQLV/eBnz2me3/H5xiHv1ndMoAx959+2xE1672arVqzkDDK8ZgBNW6A40X7HrLQJV4yzjmGkrIzfMDiABUvmre3MIFYjzA4ZFHJ08bN260wNdesUWVyzmKF+Mbox3PP1EJvP9ELNw0KAxzZ/VxCWy6E5HLTzQEJUFKkmO0+xkwEiYGXAA4OMd3021qcSWfrawmpSVFtfD8qrag8ztOG+3/tDbimORASkyMDX7ofutftrSTwgVAAjAha5ArKDu8W9ECEKFEO/SbKElaZBJlcf4fMX873jU8beRzk4IRrfv5HJ5QUraIoPDZeVdeZksE1E4Usc5JOJGiQkLs2euuc1IR8PyRCoVidpn0A6IYpFOhzF3gCqBw0xaIamNwuDncyHfk/Q96vuP1nGlJTEtjCtNDABwYN3oXi+pUsqCPOnspDR79n0TadXxQoI246kon4oqTJEpjC2dCaO3KtuCKFhZ+5y0W8cyTFvbF5xY/ebKtzMy0PbJbPED7X7R27Vqb0KeffX/F5RZSobgtq1JYT0FdDKCDBf6G6Nlit9HdCcOdOgl3/TQ6RXEOeQAjC3gfyGjXkYx9iFzoV7yETbr2GosYNNDWFhQ4jqWTIcbA6lWrbEivXvbWZZfZs8WLOVELwAeAg78PmYWOAHQQ6aB+A6cIQAOA4az/JsY+5XNEOd6/6y7LSk31/4pHJ0OnDHDkrV5tXe67z1msj4HGSwRgoIBQNgw0EDHHKB3ABi8VrySgBM8XSorBCDrmuHezZhbmAQ6PPDppOnbihCXMnGHzL25auHquGGBA9ylW412kfZjIAQ0dMMYxyoliAC7I43cXByTCwTVSqwAVABIiBaw4i+GOJ4zvpUsVReYrahSmLE2pVc1mvPO2rV3z59tco5Jykhfb3Kfut2lVSjlpXOQKU49BtxOKwsfqt5fod7MrF6ZLLRCAoIYEYMXfTrQDQIUjBM8cdQpuOpi7hafou8LE4eVL2sJXO9q6tUWvPffR48dtwsiR1q5hQ6etpLvCLx1iMDTImUZZAzoAfMhv5DjOIxh5zzHPGoPDTa8YzbgTEI2TIRMMOMQTXd1n6bV9llpTIFX7yeLQa5tbUpDAnqcDPPpf6NCxYxY6dIhNv6C+41xwnB/Vytuie26z2IHfWXZiou3Yvs1pQHPsxM9eq9t/o93791t8YKANevxx61G1srOuRp7k9po6Plt+XmGLcyLFtLJ1DfIu2v9az7mL+DXxbTqmKBvQgbGOPGBpBNJ0cWIhD5j7OCLeqFzZvn/mGUuPi7Ojp7j17BGNhcXh4TZJ/8urVas4heWkWgGEKBgHcBCRBTABQvhfsFkBG9SVATJ+H/F4pk4dmzZkiPO9Hp0cnRLAQX5b6MKF1qFlS6flGGtpADhQLiBhwAWI1lXwAAxC8gxcrjEAARicx/sFQOG471VXWay+l1w9jzzy6M8TEYV5zz5jEeVKWYwfZMTL0GNF8Egd07mFri14noliUKuBgU7qFBENt6bDXY2XaxjneKdpl+uut+F8p5STu7p4lJQUxZqTa1ax8Z3ftfy160666xORhuVJMbbw4Vttfqlizv9CJIPoBMBnkf4fFqaaLx6pa1/pb0TZIVMATXjb+D9dRwj5xtSv4BBBPsEcA7L4/53Vii9taBHDh9iBItgxb9euXTZ22DC75dJLrYGeR1MxxZjXiOlvj6cQDyJFmQAOotMYFkSdABvIdUAsDOigQw31NkkyaDIFMJIBpAIZWTJucusW7scDOKijqVPKFrz8jK1Zvdr/13jk0f9PRMGC3njVFlUs5bTYDqxe2ea9/KItz86247969sP/REdk7KcnJNr0t9+2gY0ucKLGUZLfaxv6bKOYjlHpOibaS00GhjqyEz1AMT6yFpk7TVuiBU3ErItBZIH5zxabEEcVchdn86fnn28TPv7YCtauPW1th/neTflrbHq3rnZv/foOCHIjMaRM8X8g/wFEOE2QX3SuggEebGmGgS37XIkS1v3RR23F0qWFX+7Rn6ZTAjgIS37frZvdUr26M8AAGwANAAc5cgALAIdbqwHwAP3yUhmk3IsxwHnC7kRGGJi9brnF0uLjvV7YHnl0EkQHl6gRwyzwggaWIMVAdyq3YJo2s6RBEalAoaAYyK3F0GZtDrz/dJdiAS3SkUizciMF1H8E67tWne+zpVULv4dUpFidQwkt0D5pW1NqVLH5H7xtGwrW+P+ik6fjv/xqyQsCbca1V9s8GbCsXE5rXOoAiE78fpVsFB+edgxh5A8KE3YBCP8nOcWAEu4lwkr3lOFiwAhpW0H67jm3tHM8pUWR8O7NmDTJ7r3sst9W7WXxLfKkAR4obTyHPGeeLTIcryFbQAYAjudMwT4ru5M6xarQ6TJosgU60mtpLGoMYewECSgu1PUlAhwsNBl6aV2LGPpDkQR7Hv3fdPTnXyx+5gwLuqqFU18Qqbk6+85bLTctrUi1tP5PadOWLbZwyBCbfN01Nr14cSfqjfMoX8B/XQPJdc1NnEeLJc9ZCwnZ+KlkInVztFNHZ7Auz2RdG6gtKZd1xReIMeqZ9xj4yAtkKg6r7pUr29hPPrGtf1Ga5J7du2143772dMOGThSWCAbggugFsom/CzuUzlUwUY8OYuxWbFRSRkkjfapePZs2fLgT8fXoz9MpARwrli+3Tx96yB4uVsx5kQAOPF1EK1D4vDwGKwyQYEuEg1AWSoooh6uouN+NjPS69VbLlIL3hIZHHv15WpGTYzPvv8fCSxVzOo2glIlGkAJFfi3RC4x06jgAERiFGIh0HwFw0DqWWga34JqVx2MEVBKljLKllNY39FmetvRTd9pP+oHGfB3HNqtqYV3ednJ0TzUdOHrMwkeNshFNm/6W8oUXHZAAmABAADKIXHAeUME+zL4LOvgfOcYhghLCOQJYGaL/hXv5PqI6gZXL2ow3Xre1a4vWCuQukY4SMG2aPda6tZOiAMggTcH1ELrOI+Q+yh3vIMd4EpHvgD2nQ5gMlEUybKIry5gRyEgXYCWaEaIxFSoOI71Kx7kyepbVFfCoXszmtr/FcpJTPF3g0b/QjxqTibNn25wb21pYuRJOkXhow+q2sOfXtu+Q1972v6OfNYlys7Jsyquv2MzaNS1cci5c8zJX4H5D/UKgQSoq7caJYMRKjk/Q9kvNWxpxuOss4ZQiGo78JG2KSAbggpQk5jx2Hg4JoqIY7YMqVrBJnTo56fd/JW0T6Jjav7/Nblbfeut/olYDYAGYAHAgm5D7OMYBG/wfvwcm2KcPCpC9escdlrJkif9bPfozdNKAg8LCyDlzrHvLlk74HEZZk6oAwiWczssEgBBmB1AwGHnRKCVepttdBoXEZ7gX7ivAkeEBDo88+tO0e98+m9O9h009r7rTrYXUJ1YIz6riszjtsybFFCkTIgRB2qfImwXeRoip3QCIAEJYPIvoBUCDHue0jV1Vu3DtiwIZhaxbgacLjxfghAX95tWtZtFfvmMb1p66yMa/085du2x6r17WpVYtR74gPwAaKECiNTCRGxc8sQ+IQAahYJAznOsrRga5Rc6AD1IAiHLQBWsOz0fbAbVr24Q+fW1fEe1acvTYMZs3ZYo9L9BB60i3lSTK2U2fILWKlAWepQv8kPfohO/0DGcKwMZVKwQVkZV8FlFRrDEJ0CDqsUSGDxGP5QKyK1lpWOcW1KpkgV985vTg96hoExn/u/bus/z0VIvp083mtmzmpFSmSS4xVkJuuNySQ0O8VOz/hljYMycp2WY9/ogFlCvtdO4ipRaAsVrAH7BBKixpsDMkz2mqQce/r7V9Q8z8RV4CNFzQweKgyEs3XYlMFTdtHsOd2q82pUvbt08+aauys/+WjJWtkhsxPb6wsEvPt880Vvi7AB6kVCGnsEtd25QtugE5xj66g//vhQoV7Ls33rCC0+A8Kyp00oDj4JEjNuvrr+27SpUcDyMKBkWNVxAFw+DDy8g+RgD3MBhhjAOMBPbde1BOIE5edJ9bbrH0hAQPcHjk0Z8gPFnxQUE24YornOJvFsqjtoHIxErSoGoU7i+RwYfCWSJFE1fGZ9EABikb0qYIg+PVSmAhPYEKCggpAl/G56Wclso4pC879zDnMfBpSRl0fnWb915nW7d27Wmfvxs3bbJh77/vrBmB3ECmELFAMZJaRSoPgALF4aZO4QTBKAZkuIDD9cohi5BVFM6Pk4KltmWYmO/i2jstWljInDlO7/+iSIePHrUFM2fai1de6YANvIV4AgEbeDd5rihoN6qEIwm9MEhjao7GWAxgQ+MmRgZipDiKSIeO3WLxxbqeITC7qokArThH4IMISNStzW3J3GlOOp1HRY+O/vpPW5efZ1lzZ1jM+69YfNvmll6/jBNRRY5tusRn2Y2LW9DjD1reipX+T3nkEnKYxTRDOj1tiZVLWbzmJKmyqZp/qzX3lkm+09ULXYHcp56DiCTdCZHt2Gks6EfdHlFK1kQi/ZaGHdhypFDiWCCqSfSAgmuM9rtLlrQX7rnHFsfH/6223IaNGy3u8842rXYFp6idAnKAByCJtCr+ZmQXTnDXGc7/ggPKTa96qkYNG/jJJ17nvD9JJw04nAWiOnZ0FDSK3I1eMABJWUDZuIoeBYR3EWUEEGEwux5HUji43wUiREr6+tuReYDDI4/+c6LF4djnn7fpJUo4a2W47W5nS0GzMjfgARCRLsCQLqWTJuDBehkUkNPJCQ8XNRopumeNDEDuT9Y9FGcvloLP1XlWnyWVivlNKg3RzZHVq1nQe+/aur/QE0RB3/eSQ29UrOgoB4AH8gTZg4wBdACGOEZ5wsgc1yjmGFmFQ8SpMxDzrLif84AY/j8AycvFitknd9xhyUW4voxIR8DUqdZRYJZ0CbdJCMxz4rmRoodHlPa3k0r5LEBjCXBBdCO8vM9iNQadtKlGYqIZFwjA6ji3vs/ym/pse2uf7bpaY+8inxVc6LONVxazqDeftLxVqz2dUISIGo38ZcssYdggC3nkHku46DxbXrfQG79CMonuSfCG5hpDd1S1kD6f2bYdO/2f9sglVukO+7KLxdevainSAdFiuvm5zxGwAZhAVgI2cLggM+kCSISX1cBpoBGnuUwdIJHsubpGBBw5is2G7UaqPIY8DggKsLvceKMlRkY60ZW/m/KXLbWJTz9lr5cv76RPuTUbgCOAB383kVrOEwHBgcJ5/hecK4CUDnXq2PeffmoFa05f5P5cpZMGHOQC9rz33t+8gzDeQwAFkQ43XxpFjgFA9II0BjyFDGw8XwxSAAspD3gaOYcxMOLxxy3f607ikUf/MbGQ1bwBA6xvnbqO4cdaE9RXUK9BKByQQME4QAPOElMcSOEgYfRZur5E52gtSwoWC+hN1zkMcVrihkjB072Elb4pHkQxEQH4rnQpG/3Ms5a/apX/L/nraLlARz+BjpekTKgbQwEifzB++dvoqkUBOCkA7JMyRmoAfzuyCGDCNYDZ7xdExIHiRmJhzr1WurT1fvppp+97UaVDR49awKRJ9n6zZoXpUmLkN+BtjMbK/HJijalwAdoYgYtobaM1Zhxm3AnErhDYyJLxmCHO8YOOPIGNfAGMTZfKiGyhc421vcRnW3Wcem0dixzS3/Yd8BZqKwpE6lTipAkW9sCtlty4guMoIS10Oek/GjO5tQrT8ShqpgnGkpsaWUrgNKcNuEf/RSzmFz9tikW2utBSJLNpW45cB2zk61nibCIdFvk2HHAhRhaiOwK1v0S6IlnPN1WcpDm9WN8B8KC1+lw9+ynacu9k3TtK+9h8pCq9fvnlFjJrlv10hrwPYtIpSUn2/T33OP8rgIh0UAreARWAD9KsqD/jGPBBnRoF5YANmDU87q1c2Xp06mS5OTme8+M/oJMCHDzopNhY+7BdOycE5eY+AzYAEChsgANeT0AESgnvFwADRAwIAXjgQUTxM8BR/hSAflWsmI1+9lnbuH594Y955JFHf4hYsyAhONi+u/Zax+BmrhGtoEYDIxvQQSiche6oxSByQd4uygNje67OZ1YXV9VnpFiYmygQHAauY4DQ+nh9Hzm8MGtxhFQrawFPPmq5ycl/W5/7Fbm51p9IR4UKjqxB5iBfeA783fzvACb+f8ATfzsAjH2uAUjYch5ZhOxChiHL+N95BnwnofcXqlWzUV262JYtW/y/XvRo748/WsD339s3DRs6oI7xM1FGR5DGE+lSodrGCGiEyKCZoXE1VUAkQGMqVMbOQp2bL+NxkfaXyPBJlvEYX62QaZnrtMfVGIzU9TQibAIky5v4LPbxdpadEGO/eJr+nCUMw7X5+Rb+9WcW0bKBLdNYKGgggKpxkKYxkavjlfV8trq+ZJjGTZTGWVjp4jbvrtttRUZG4Zd49Bvlr1xh4c89aksqF7NYzc9YAYjlmmMb9fzW6vmhC7DHsM3mao5SKO4uiEokA8ZBRWSDKMcMyXsAyiTxfB1T40cXQ9ZACdU+i6sOatrEZgwbZgcOH/b/FWcGHf/lF2e5hS+vu9bpuvWt/uaPtH1Z/LT2X4D19wM6PtH+d/q/e+j/59mQYgX4oB34/WXKWJcH7rf4sDBvjY4/SCcFOAiRhQcE2EetWjleQKIceP9Qyni52KLoYZQ+Lwxl7UYwACakYQEwSF9AoTPo8Uh+Ury4DX/1Vdu50wuNeuTRf0JrpKiHP/WU9SlV6rd0ISdqIeFJuhDGNCkIGVLcFH2jeFAi83Q9WOdZ5XmBhOxInWOOEinAG8R8xgDn+2B3HmOMjy9X2ub/41FbmZXxt6/cu3rlShsh2fFp1aoO6ID5+/HAA7jIUaaVLgsXAjbYAkJo98t1ng/n3OgH52DXQYKcIzeZHN8u9evbjEGD7MczTKn+lUQh9+QvvrAvqld3nhc9+SdJQY8oVVi3MUzMgozoAMYPjqUxOsfYhCfrviiBDEBHrMbkQo09xt88jUUWbcTbOk/3ECVZKiMzs2V5C//iXSed16Nzj0hTXL0s12I+6Gg5l1WwFef7LF9gs6BpIchI11jJ0lhZpf0Vkl8ADozhgKoVLKDLR15jgX+jHw8fschhQyzkonoWoXmXIHBG7R1psvl6dosF/HEekf44VXONInJWaU/QnKOTIY4oouO0UicNK0hzFnlIRINIMXMe2epEOMR0KJxds7oFf9VN9tsu/19xZhGt4mdOnWpvXNbSycr5Rv/fBMmsQD2LqeV99r2eh5MKqnOhOjdKcoiIDSlXtAG/U/cDSFj8cFirFrZg8GDbvuvM/F/PJDopwMFS8kETJ9oXTZr85vlDsQMiABekIWCYoKgxTlzwgdLBkEF5sw/gwDvmXuPez2UsjevSxVlB1COPPPpjtGv3bpvbu7cNrVXLKfxDMYyT4KT7FJ57FARdR6jbWCmFs66+DD3tL9B1FBErg7NOgpvuiJEIqHDnLikzrmMAY9EBJGXK2KAnn3T63p8pZdRERid+9pl1qVnzt6grwAgQ4SpFoho8D/KViWzgnWfrpl3h+EA28RnymXkOyDnklts+l5qFD1q2tEXTp9uxItyjfe2aNTZAIK9zxYqODgCk8nyIBLmFmETAOc/zcxuDsM/qxaM1JmPO81mKxiSdq4I1FlmLg1XIaUjAuwGAxJKKJYAc0baZLZ47y0udOQepIH+NBbz1qmW2KG+7LvPZ+osELhrIOG4smaVtpsZJhsYAdRxLBUZyxdSUBVx8gcVMmWw/eU0FfiOCgDmpqTa9/R0WVrKYJWoOpepZIf+pxwsrUxitRrazhhHXSZdK0ryLEdigbToOGFrhOutvSDcASNAn1HQQBSHSgd2GYwdZ+32F8jbr5ZesIO/MToc/cOiQTRo/3u5r1cpp801b7+7633uIARM0wqCGo4P+x3v1P5Ji9ab+d1ZW76dtfzE2L3buO7Xr2JB337VlmZn286/e+Puf6OQBx4QJ9nHjxk6EAyWCEYISIfREmpWr7FFCGCmkdwBCXMOFYwAKisgFG3gQX65Sxcb37espFI88+oP0kwRdxLRpNqx5899Sh4hahMhgm6otHiiK/1A0tMUlDzqjmpSOrodJuZA+hecZIxyDm/mJkc4cxdjGk4UxDohhi6Heu3RpG/Dww5adkXHG5bJu2rzZxn/+uX1+/vmOjEGp4okjmooBy//I/4c84v8DVPCMYO7j/wZwuP8/W+Qb30UdGnUiyDkUbc8bb7SkqCj7tQi34syVsu3docNvay2xBWy4ay2hI9ADvAeAG2DWfaaDNe4iSeOrV1hUDtgg1Yoi84XaTtX4JB1rjpi1OmJrlbLgF5+wvOXLvRzqc4j2HDhgs/v0sVm1q1u2QMW6Zj7bItCRd0EhwFjTROCjYeH6LCvEy2v5bLVAaladEhb02H22ND3d/00eQfsPH7bwb/taRIPzLF3zhk5U1MBQd4EcROYxH2n9TTQjWQAkXnqAFCq6f1EfEw6Y03UaieCoAWg4Thudo8sVqbo4Z5jfLHHQ99ZbLOssWc7g0JEjNnXMGHv8oqZOW9/rxYCPG8Qd9P+/omfyiv5PbFoiQKN0/LXOY6MCNlw5hwPqrRIl7Mvbb7fwoCCnvs2j/59OCnCcEOCYL8DxnAAHSBDliyKh/zLoEMSIBxBPFoqGQQnQcAsLXYCBwubFcQ8ABXT5eIMGNm3kSAfUeOSRR/87EVnISkmxIXff7dQquKlAs1AUUggY2OTdUgi+vKbPWeQpRcCDFcFZ4ClYW7qRuClXfJaoIwqJLccomSm6h3QsQMqMcqVt8pNPWM4ZFNn4d9q8ZYuN/+IL+6hmTcfxwf8DWHKfEU4QPFQoEGQSAINnQITHBRlupAcFg1MFBUMnLDz4yCxkXmcBr55PPmnLcnOLrAHMugdLIiPt63btHJkOMOPZohcAZ7TN5LwL5Jx3gRLX+MRLSjoHnazCKglQCHQkyOAkxQrQEaNtpDhI1+cz/oiANDvfooZ8awcOeyuQnwt0/MQJi54xw35o1cpJ8Vmi953XqLB5wNZWAhraJ8KxtqmAiHitwMcaAZF8AY7FTSpbSO+vbc/+/f5v84gap2VpqRb52F1O2mweAE4gjdX8kX/IOMAGqUOLJP/jxUQ4SK+lEQgdqOhQmFilcJ+6DJqKEDln7uKYAohQs8H9yM3eDRtawPDhZ1Vmyp49eyz4m37Ws2F9pz0uThKeyxQ9j7GSN330fEgJfU/8phjwgfxCd6BT0Ae02aWr1U3iB1u2tFEDB9q27dv9v+CRSycX4ZCAmDpkiHWoXdup3OeBAzRg2ozBvEAXdBDFQAGBhAEYKHkUNulXvDiUEd4wugR0adHCwmfN8sJTHnn0B2jdunU2/vXXbVDFig64cNsYUhxNPQKdRhJJo5LCyRPnyKCjDSLerIUCD6w1QYoRdQwoFJc5xpNFQSBKJVBCeAWe6IZlLfjZx2xFRtoZb2BvEugY27Wr9T3/fOd/IvqDckRpEsXByQF4QEa5kRC87gAQ1xMP2CCqgfHsplMhy3CacA0Z90LlyvbDu+/axg0b/L9c9IiINHL7cxmNrhcQkIa8B3AQ9cYLyrPsrnFFgTndz2jHOVtjK6BsYYe0UIGMjHoCGTJ2AjVG6WqVoDHLCuWMwQDdEw4YeeJGW5acYCeKcGTpXCDeHo6Lce3vlAFczDHi+uk9x50neSVgsfdagY7LJXtomSzgsf5iAZHmPtus7VqBjthbW1pKcNAZ6/j4O4hObjHf9basFjWcwvC8moUpaDMl9zGYkW39Ne9CdBynORYpfUG6FOACHYKDaTpzVFvkf6iu43BCZsJESAAhTr2HrgVWrmAz3nrT1p+F8o9a4XG9elvHevWcgnFkFJENbFnW33B1g5uW21fXkPkADbpcXSVuJb7Mv393rVrWixSrZcuKbOv0/45OCnCQszyyd2+7TUZOa/8D52Hfp5cBcHAXU6EvM1ELIh8oGl4UyhqggfLmPAqeSYCCggdccbnFBwScEb2bPfLoTKb9hw7Zwv79baIMagqi8UIRDgdwOGBDipuc5zUNC9MPcmW4scgfHUdobztR85WoBp8FVKBoHI+WeLb2WWGbLdeidH9GwzIW8yqrxmY5iwueDbR561ab9eWXNkqKAGVKOhgRV5QusoiUH9cDj6HMOVcWwS4oQX65jhOMaJwnMOdRVG/WrGkTeva0Pfv2+X+56BFdaeaOGmUfXnyx8ywBbHgD8Qy6OsBNQwB0/CAm6hQmILuqmcaXDMgldXyWJCOJtKqF5QWWZXjGUmukMRsoULJY19e1lBHVrqJFf/2e3q9XQH4207qNG+37d96xjypUcOYXKz0DTr+SDIuVobz/Gp8dvNFn21v5bAMg48LCQvL8Bj5b2bSExbz7vK1f560A/XvKSUqy+e1vcxZ2jZO8pwaKeigaiOAo+ULbAOkG9ICTPqVnHSymJThOGZwz1HDQYAPQ8b22RH2Zz0SHqetgkddwnY/Rdl7b6ywjJvasNbC3OqCjl33RoIGjB3AuIaf4f7FNARo4o5BhZPS08/OtYiIbON1Jy6KVLtf/Ua6cfdWhg7MGiVcaUEgnDTgGS7neWL68tdEDJveNB91Ng3ew2Cn+FqN0UC6uknHznlHaKOtPNGDHaqAzuAnT8YK7tm5tMUFBTpjeI488+u+JFn8J8+baNAH0BZo3wWK6ioRKiURKydBxKkPG2gYp6LVSzqky3uifTscRAAmKxIliiAEVKBE+z/VgbQEvAA1SqlBA08qXsfnPPG4rM9PPutQh2tfO7drVhgl0UKMBkMBzhQwCLBBKxxkCo1RcTzz3oWh+D0C4B0cKIAX5xnfgZOHcWzK0544d66zIXVRp1969NrFfP3u7Xj1H1qMLMCR5rugBnhlMetUIjcN5lQWEL/HZbqmjfTf7bGNrn2UJeCSeL5bBuVhbohukUyUKbGy4ymd7ZYDuvFrg5K7mtnj2NDvmpd+elfTjoUM24fvv7dN6dR0ngFNTpTHxpeQPc3Co3nmmwMWuNj47cpvPduid07GKQnLa5C6+sp7Fjxlih44V3aYN/04HDh224L59bXrVKo5eQKYDJHC2kEqFs5cVxGl/Sxc4AAZOpoVidADRC2rcnCiHmHmKXYajBl2AncZ9RDjQOUE1qtmir7vZnv0/+v+Cs5N27dplAX362OD69R0dQVQDRlYBglnkFIBBa1wiGxSScw67l61bSoA+wSH1YbFi9uUNN1jo7Nl29Kef/L9SdOnkAIce4Ojeve0pAQ4ULUACZTxeA3i+BjJeK7fIkhAUniwGOkqelwGDmOmiQzEgOeQIG5T4R7fcYqkJCf5f8sgjj/6d8CRlJiXZ1LvbW1CpEk4PdOoxkioVdm6hKDyzis+yxawkm6HzeLFYdZwCQIrKiWygVDhHu0MUE0CD1cbdfSIfFFIPLFvWxj31pC3NyDhrIhv/Tps3b7YZ3btb9wYNHDmEQYPcos0tK8qiLNyuSkQ0cJC4zTBc7x6eeq5xH7UcRD8wqlFIRHKfk5J5v21bx7NVlN0lrGw89NNP7Z3q1Z1nxPPmWcMocHQFz3S8ZH9yPZ9tb+ezQ/f5bL+Myk2sMN7CZ0sb6ZoAR3x1cQ3t1xVwvlxAo63AyQ2FqTb5lxa3hR0fs7wVK/y/7NHZQid++cVCAwPti9atHbCBE5J5iJe4g/g1yR+iYFMl1xgLR+/y2bG7BUr17jc3l4zTuAl5rL0tTU31Ulf8xHNIiYmxiTff5Mh1IhA0DyEdCFuMNKq5pKuVEVgr67PZmn8AEToVAk4AGNR4YIvByDwcBqShoiuImsOADVKt+I3Zt95s2YmJ58Q72CnQMb1nT/ugXj0nvR8QAbgAaBDBoDXuU34mi8d1NBGRQ2+49X3IOLcbX9crrrCFY8bYjwcO+H+laNJJAQ4WfXK6wJQr5ygOwk4w3kCUMt5BXgKKmQVWBomp1eAl4O1CSXNMQQ5ChZfk1nB0bd/ecr2OEx559N8ShmxBQYFNfeUVm1m+rEVq/sRJeaRWLAQZrMhL60NWiCWigSeL4j4XaLipU25NA8duSpV7D9sQfSZQ2zFVq9rkTp1sRXb2WW9E79671+YMGmTvN2niAATABkADb5Vbd4bcwhPvgg7kGcoaI5mtK7+4B4WCQe3KO7xbz5cqZV8//bStXL7c/6tFk/LXrLGBr71mnStV+s3JBKOMeWYYmBiaQRqrmU18tv4qn+0SmChoWbjYX4pARpLA8mLxsgt1XWCD6McqGZukXqXpMxSXz29ay8J++M5YYd+js4cypeM/uvdee1sgHbugrbi5GMDxmWQPi0UGSYbNk/yK0BhZ10qgVCbLLo2T/PoCoU2qWkivr2WLeO/dJVqjz+nSxaZXrug4kajPw2HylbY4fWkQQmvcJKLderYhJXy2SOep0UD+oxNo7IN8Q+5h2xHZQE8ATIhsuEADnnF+TVv0zTe2T/bguUI4S/p/8ok9WKWK3av/kQgGwAP7FFBBhBvHCVsABlui3BSWu44sQAglBTCfe+HCpjZywADbtnuP/1eKHp0U4Ni4caMNkTL5oHRpZ3CiiFEmKG+Q4I1iloXnhYEGUd68GBQ4+3Qu4eXxYngh7otBqQ+52wMcHnn0P9Hu/fttfvfuNuv8GhYtRUHx9+JyhUokRcokUYoaoBEjZRJGVEOCEGVC+hRAgpxdIhgAC0LtgA8UCmF0vFsUVHOOlKrJ1aranPfesw3r158zHvv9Bw7YrJEj7aWLLnJkkwsU3FQqjB+MYldOucoF2QVzL5/hmhsR4dyjYkLrd4jbycju2rmzbSviC9StEegY9NJL9on0BN5SHFI8X54jShov6hSN3+hq/gjGZT7bdqUASB2dk5FJdCOllgCHAMZaAY0UGZoTNL5ZP2CsDNEZ+mysAEnwXddaVnyc/1c9OtNp/bp11u2FF+wRjQuig9gMtCNlXo3Uew2XLIuVLAuXXMNIDtK5yIo+y9a4yKhZKOvm33ytZcREe6nXfuIppMfE2Myrr3JSnYhgAzZo50pxeITkfqy2tMZdqP2pmkPIeFJq0QWkSpE+5TpbmKtENjhPDQNZK9zr6AXx7BLFbc7999qqpUsL/4BziHDo9ZZ9+2SFCr8BDfQAcgs7d4TGZnBt6VXJranan6VxukiyapFk0UQ93/4696bGbCc9Z6IiREherl/XZvbqbjsECosinTTg6PPqq/aYBIaTSiDmwVI8g+BgRUb6GuM1RBnz0riPgYxiR4G7nwOsOF0TZByRkgXgwPvhkUce/SsdPn7MYiZNtBkXN7VIzZlYKRNaGbLeBsok3u+1clOiQjSnKACnY9VsbcN1Px2q8Gi5xeBcA3AANuhAgpIhbD66xnk2RUbz2rVr/b9+7tCPBw/azBEj7J1mzRwvFcYvhrDb6tZtaoHsctu6IqvwdN0pRoG4W+QcBYRs6VTSWFxbfGW9ejaONpFFeCVyiDS8IQ8/bL3LlPmtJSdAA4OGXOk5GrOsJB5ZubBuI6uBWOAjVUAjWcxK5CG6nqFzRDRGaXxPk/EZpXvjZHxmyQhNaFzWFn7+oW3b7q00fabTjh07bGi3bvaP6tUdgE9WA3PnfcmnGZJPtGJNk+EWJ8AZp/e8WONisc7FyKhLkCGXrPPh9Spb4GddvBWef0c7du604E8/tqDKFZzoBnNtgJ5ppOYX6VMUiLMq+wLNHyIZk3SNLoR0KKQ2g/vd5g7IPBzJLuigPTrzFqBBNJzPTK5T2yIG/WAHz9F6teW5udb7ySftddm4jFPXdmXhv3TJpT3Nfbalsc+WaaymaIyubljYsjlP2/WNJK8kq+iwN0UAZKLGbQRj+po6FjGgr20/Q1dhP510UoBjA4BDCPB5vQzQHzmXRDRQvO7iKXj6UNIgQzx/FNsgXFDupCCQUjVEA55QHwPbMXi0/1n79pbmAQ6PPPoXov1ncsgim379dU73qAjxIgEHwtxO+0IdAy7IryUViloMPF2ADgBIhEAJCod1NLiOt4rP4rHic9ReAT5QKlMb1LPAr7922sqeqwQQCJ01yz677jonokGqFAzYcBteADjw+NHZBUBCBBeQgYy7QkzDDFJBkHvsXym+VAzouFDc4YYbLDw8vEgvCkh78+yUFBvd4UGbUbG4LdAYnC3jZ76MyXlSxHMxgqSUiXLESklHapsp0JEnhb78Qt0npT2Qca17Fukzs3R/qpT68ot8lnOBAEd9fU4G6cwrL7GEubOdZgoenZmEcTpz1Ch7vkkTx26g4xERDtJWpuu9LtF7zJQxl0VBOK2PNT4WV5eBR/MAXaNGLV3ng++43tKio73W+X5ihfX4ufNsyhWX/dbGHCcSsny+5H8E9X0CbOgAwAJRC/QFTqjfR7kBFaQ5EukgPcgFHZznMwAVZ62mYsVs/IMP2vKsrHO2Vo3IWUpsrPW//VbrKyD8g54d9ul8jdMcjUdqiNY18Vm+eIXk1GrxphY+29laskuAI1PjlmYta+oWgpJ17EtexV7V0KKGDrR9RSwF9KQBxyABjrcFOMh7RgmTRnW1+CIxnj6OESTkRxPxuETMeh0ADfIEQc499AIBKyhtcje593UPcHjk0b8QQn15drZNefRRm1mypAMSWNjPARnad2szABGACzqOADSIZFBQTg0HkY8gMV4tNweX+8OljJbImKOLFVGT6Y0aWMj3/W3H7nPfC4NxGjl3rnW/4gpHLsGADdJ/2Cd8TqSDfWrUUMBEbYluEM0FgOD9ImKLc4WaEJwrpIjggLmmTBn7qGNHW1tQtNt2npBhmLQo2EI63GgZjYpZBmlSTX22kuJwAYdMKeiVAhhrLvNZrhT3UinxvEulpHW8TNdnCWjM1/iMooC8js9WXSIFf7HPsgU8iIBM1xifVL60zej4jOWvXu3/VY/OJDpy/LizTstbV17p2AzfSA6x7go1nHjUZ+n94hUmbWqpjLQwAU06Vn0j+TRVxjIrzpPuOfz8qhbap4ft2ect9OcSKa+zXnrBxpQu5dRckP5EC1yi2Isk853ot54fusHpNqUtuoGVwolYENF2wQTOJ84D8pF3LugAcPC9TrSjYUMLHTfunG/5ypiNnz3DFt12uS2R7KE1d7aAxhbJnw2ST9uv8dmBu322X0wji20tBUAkv2IkkyIks+imBuhgDZQcjW2auaTpe0Kvb2GJU8bZj0Uo+n3SKVU/CHB0FOAAbLAWBx4+QEUDMd69i3/HgBCuoZDJK6RWg/xpPIMtxVxvIb5c3FGAI8MDHB559BvR1nVO5842qkIFp3gPxYBHCsBB/3RqMwAcv49ukGoVJYXOgk7UchAFmaz9mLL+qIeO+Xy0lPnSqoVF5vNaXGyRg39wWpsWFWLtiODRo+375s0dRwiFknRmIe2HLQXORDc4DwNIACFEbrlGSijnKILGa+t2MCHFFODxXJ06Nn3gQDtw6JD/F4smHT3+k6WFBFrE3VfaaoGLXTf6bPO1AhVS0isFMFYKWKxFYetagRQ622U6v1xMa9w0Ke5cUhik0NdwvZkfcGjssmjgXI3p8Q3r2cLBg4uUIj8b6Keff7GI4GDr1ratdSpWzElNCaziszi9O7omDdS7m4QXXsZYTm29YwGOUF37VvIKIJKk/WhtSWfpescdtjQz0//NHh2SURw7fozNu/gCx4E0S8+INKoEyXUABjV7dKWiro/F/IheAB7CpRti9MxxRKEbOEf0A72AMwpwgUwjG4WoL59zWuTK5hvWqZOz4GxRoP2HDlrs8B8sokU9W65xSTvuA/f67PCTPjv2os9OvCPAof2tkmXrcZ5IVhGVS61ZmBqYIfCRrW26tlk6l6FrtKuff91lFj1pkh08evaszH4ydNKA43sBDoq+AA1ENOgwAXBoKialoJa4uvg8MSCENAS36IZIx7VicjdZOIVoCAsHAkqe8QCHRx79RiwkF9q3j82oW8eJZAA03PA2oXCUBYw3y63dAGDQEpEVZGmHy3nydKdKuVDnESXlEycFniKln1VZCr2ijLZrWlvs5MnOYoJFjSgkn//DD9a7QQMnfYo6DrZENgAbpFoBLGD3OoDE7chH+hVyzY12UPNBIwy389UXt95q6V6rb/vxyBGLmzTGFj/UwjZIcS8TgCAtimhHngAEQINzDrAQ0EiR8RmlMZpCVEPXSbWixoPoRr44q15hOhVdjMIr+CyoYjGbdt9dlp20xFt5+gwhFvBNjY6yjzQHXhTYAKh/KJmUIOMtSe93roxejGSiHTF6j1m1fLaC96x3Hi25FCLDmXeLd3ncJRdZ8PjxdqgIr3PzeyLyvTQ1xWbf294C9Uyj9RzT9MxWy+hdKgM3Us8W4JGm55qoLV2rkF2ksi3kfukBAAcOKyLmOKpwWpFaS0SXtCoYGeg6Vnpdc43FLVzotDUuKrRh42YL//xdW3tLJTt8v4DGSz478ozP9nQQ8HjVZz996rNdT/ls20169gIdkXre0ZJLyzS+idql6l0AMlLFKdrPEeigCcK0G66xpIWBdvTnc39xwJNOqeonwEHROOkFRCncqMYFYoomARtV/FxfTBeX3hrkb2lQ4/kjlQplTCcrwAdAhc8+5QEOjzxy6NDRYxYxbpxNu6hpYURCjHIgBM5imTPEeKXc3uh4s2KlZIhukHaFRwuQ4niudM4Nr6cLZKyQUlojYZgu4DGnzZUWN3Om4y0rqrRl2zYb/9ln9tl55zlAAiadACDhtsTF44cCBoAQ3XAXhKK7DtcAG+6aHG73vcfFL1SubKO7dbN9+700kL0HDlr08O8s4oo6limFTLQjT0BjpUAH4CNNhigAI7O+jmV4puqenEYaqwIcOTpH8ThAI05jd44M0TEymqZoTIdqTKPQw5pUs0U9aZd67rTqPFsJg3hlRrrNeOQB+7BEcSeygdPxXcmlML2/ZL3n0ZJJpP8E6j2yaGmo3mmirsXJMJtWttDwZR2JfmXL2sT337ftO7zGAC7t2LXL5n/2qQVUqWRheoYACABGRlWfZRMtEi/Xs6SGIF0G7lTZXwAOskxIm1qi+2ME9AAfpFjF6V3grCLNimiv28KaSC/RjW6SjVN79jyn2uD+EaJSaEVWpi1+/0Hb+0hx2yRgESW5NE/POr6Jz/a+ItDRw2cnuvjs4KN61pJXRDnWNPRZga5vkHzLu1ByS58hWpcqMEIa86JyxSzggbssc3HiOe8gOWnA0fPVV+0pAQ4W6yHC0cTPLtggslFNDODg/DsazHQVmSVBgkJ2c6EptHRBCsDEAxweeWT2068UiYfYrJtusOASxWyR5gYtbp0+6Nq6C/RxTHTDWTtDcyxCSmSWlAatDFHWNGOYovtQKJFSLtmafys1D5MlLBfo3mkCGzHTphWZ0O7/Rvl5efbDCy/YB+XKOQDCXRkbzx6KF2MJQEFqKKlTgA3qzjjHvZxHrlHbQUcrnCow595t186S4uP9v1S0afOWLRbS9SOLuriK5Qg8xGs8TtJ4HCqD8wcB5gHajpKxOVPG50IBiRAp6SCN2/FS0tw3VtfJ7+eZUzvDu+iisTzFiXJo/N9+g2VER3kLwv2NhAG1VHp82tNP2bSKZR2DFRAOKKdm43u93yXn+yxA76u/5BMFuZ/rnbKewReSY92130X7gP3uxYrZoLvvtuzk5MIv98h++uUXi54928a2bGnheka0RE/Q/KCbV5rmymoB8zUC6LkyfDFuU/S8p+mZUo/RRzwZnaDnDOBAn1BATqptlJg1mKixRebB3N+vRAn74eGHne5NRZGO/vSzJS0IsOiHWluKwENwLckbySba4EbreO1DPjsswHHifZ9tu0E6Vs9+pWTbKm3zWR3/AoE/7RPtSNRnwnAM6tmHVS5tAU8/aSuyc85peXXSKVW9XnvNnvADDjq2kDYFYKgpBmycLyatimMiIN2kEGgZliCURytKUqgAGnwGsMG99cRPeoDDoyJOpCEsy8y0wEcesJgKJS1RcydKyoF2h259BsoBJQHQIARObQfAg/xbjllXgyJLtxCQ/F62i6WYkqV8ZpQsYcNvudUSg4LscBGObPye8MimJSZa99tvtzdk5NAKkXQCcpjZJ5IBmABoACiIXsAYvHTgI4oLuGALEGGVWnfxqIerVrVBX3/tpMh5JHC3epXN7/SUJdUv5bTEpWMhhg3PG0+4WyPzpc4TbaK7IXoDJmWNDmIAPZ47DUco4gfcEZEaUKW8zevyobNysEd/PQE2VmSk2/x/PGKTy5dxPOYDJLPIaGC+8P5IRZxVyeesuTJOABIwjyOS98l75bqbytivTRuLl5w6/vPPhT9QxAk5hX6Y8sADNlVAgPRZulClCLxlCZwTvc6u4XPqB0ilQmfQLARdQMcp5hlpVRyjL4iGT9N10nHpfohzCr1C22qcLaSRfnPJJRY5a5YDdIoqschk9NgBlvtyfTvwss92dPLZuifE9/lsOzUdnwhwvOezXQIcjoNEejZRsi1e74XuaimkUul9RImpXZqs5xymbWTdihb0wdvO+jTnKp0U4Nizd68N6NLF7i9b1ml320oMWAA01PGzu19XTATkVQ3kERIsvfWAKagkBYtr7ucAHYAWAEe6Bzg8KsK0euVKC3jxBYs5r5xlCSCwijipUgs0P1AKKAS2KBGUBUDDLRpfKMZjNVdMBASQAQChzgPFz/XAUiVt2j33WHJ0tB33Wkv+C9F5JWT6dOvcrJljGGEIuWADDy0GE2AD4wkDCbABuMDgBVy8rueN0Yvn/ffgA6P43RuutyWe592hE7KaUiPDLfS+6531N+ZIN9C5iKgFzx0vODUxAA+ePcw+78OtleEetoAQgCB6BWCCd3ZUq5YWP3eu0yHLo7+OjgkULA4LswkPyRiuWMapNZtZsnCNjW/1fnlfzCdSe34QCKE1Mgs4UhMFwCSiCOgEZJL6892ll1rwhAl28MgR/y94tHnbNgv48H0LrFLJiXzjiKJVOgv6UY9HzUaUnik6I0bPHb1AWi2R7rFi5scU6ZB5YnQEXQ2JlKNT0A/oGT4zSuw0z6he3WZ89ZXtLKKL1v2eNm3ZaClD3rB9b5Szf34oE/or8Zc++6WLz35+12fHOxR23XtPY56x7hTx6z1ESr6xgCV1Sisb+CxHQJumCbECJJk1fZZwSU2L6PXlObsw4EkBjqPHj9vInj3t7vLlnYJvNy0KAAFogAEQMKCDa7TMpXbjLjHdqCgshxuJ3c9xTEqVBzg8Kqq0fedOW/jFZxZyfhXLlDJeWt1n6RJSKA9HIYjZomSo61jkKgltyb8lRB4uIYci4hqKhOJy6j34zPwSJWxG+zstMy7OPH/hf0+79+yxkV9+aZ2qVXO8rXSfAkDgfaUuAwZ8wBi6yDVae5NS9YPewRhxX/EHeubd9S66iPHYDq5S3iZ1ftepF/HI7MDRoxYzYqBFX1HbEqR8B2jsAiIAF2wxTGE34kF6zWA911G67ztte4g/1TPGUAWoADzIN6emaXrFUjb7zVds06ZN/l/z6HTT8Z9/sRiBjT7t2tpwvQM86QCIIXpP1GhgfI3QPkwTC7djJS1YYdeb7vLwiy+0sKFDbN+BA/5f8IjGC6HDh9v0Rg2dVCr0AbKfOgynNbr2cUjRgYpVxelQ5db/sW4TabdEu4mQoy8coCJGNziRDjFRDzoY0pzk+9KlbeSTT1reypX+v6BoE+6LpSlLLOW9O+3Hp4vZL68IbLzusxPP+OzIHT4raCY5VrZQZg3Q8w0Q89x5nov0TrJqFK7hsUKAg/1U8SpqPXQu4srGFj1mpNM58VyjkwYcYwQ4HhDgoMsURd90qXLBRkMxIIJ0qhpigAfAwu1ixT2kUgEwqO/gfpef8ACHR0WUdu3dZ4u+6WcLmjaw1HKFhX5JAh3k4LJSLAs3oSjcdTY4jpYQo/0tnadYRZx+63SmcsCFGGWDUgnVdm7JEja1/V2WHhNjPxXhxej+CBFl6vXss07rbwxgt27DBRp44QEhdNxjzQ0WOgWIkH41SM8fj/0MKZ6IKlL+1WQM6D1RMzOmRTNbNHWqHfnpJ/8vFW1at7bAQju/YGlNy1iwxjspNIALvIPuwovdNH6/FuMV76PtQBlNQ8TjNe4niofreX+n86yfgqE6SPtz8She29wS58y0Yyc8aH26iVbEMTNnWPe2N9i3pYo7TS14Hx3FgIrRekekkTAHHOChcwASOsGx2BzrO9B2mmJlgEfPphdayOBBttdrtPAb/SyRnRS80CZc08ZpBsLCrRiykXqmMRrvNAVZoOeMbiCysVg6JETzw4le6BwAg/oMrnOf051KjK7AOYW+4DuJmLOlDnD4DTdYkkDkT16k8Dc6fOwnSw6YZFmPXWhbr/LZ1jY+W9dKAK+RnltlATXp60WVfJZb1+e0+2ah0rk6ZtFTFq8M13W6s83U+2J9GRY3paB8kc6PvPJKi5k375x73qcEcDwiwEFKFREOUqQAEQAKwAcAA7BBupQLQjhHCpWbagXYoLMVn+U61x4DcKSl+X/JI4+KBrEKb/SEiTar2UVOO1vWxVgisEEbW3Jz3bQqlAXKI85/no5TqbqPMDqREGo9UCoUBAJIWIcjhuNSJWzGnXcUrtDr/02P/mcCjiVGRNjH113nAAzSqIhmsE8qFd509ml8gQwknYraDqIgGMv99OxZPTlY74TQeaTeUbR4UZXiNv7Bey0zOcVLrRKxgn5q6AKLuaeVpdXyOUXE0/TMftCzI7JEas00jFSN/akyqkZon8JXgElvjevhGt+sLzNJcwIDCSOX7mLf6nh2tVIW0OkZW5OX5/81j04HsW5P7OjhNq7VJU7t2Fy9D9rcDtX7cddvAFSM1DuZpGvjtKWZBREOOlCR4gOzTwrPJ7Vq2aQePWznnj3+X/CIyonVWZk27dEONrxkCac9Ommyi/ScEzRX4gUu6FJFdDtCjA4gXYqohQM2dA5wApAg9QqQEqAtgIN7SMPlfqIfbgruoEaNbMGIEXbomNdQ5N9px85dFtztE5tUr6qN1rOcqnfAApWLJOtZb4O1gvY/6rPjrxe20c0SMJmid8Xiu7P1PkhXm6AtUaQJvA+BjWBd53jig/fb8syMc0o/nDTgGC3A8aQAB3mz1HC40Q3W0uAYMAHYAEg08zPAwr2P6Abn3HU7ACuAkPuEqGOiovy/5JFH5z4d/ukni589y2Zde7UFaw5QBIjHiqhGogytZKIcKBQJJBQH1zKq+Cy3ms8yZZylSFixngb3Eb4lpM5CT6RXxer7IsuWsID777GM2FgvsvEf0MHDh22uFO7rjRs7YAMGUFC/QbSDImUKw4lsdNOz/kTMdWoMKHh16j/0Lj/S+xikawtlTCfrnQXXqWTzPuxsW7dt9f9S0aZtO3ZaVJ9PLPOaKrahhc82tNT4reOzvhrrpNoEauyHa3wvFiBhZfE5Op4iHqu5MVrPdZq2rEQ+WfuAEZ47URKiHcOaNLTQMaOdVYM9OvW0ddt2C+vd3QIubuAYwf3EpLuR+gYIHKX3B5BwF84EeAA2ABgULrtbzhPx6FKjho385BMvFe7faG1Bgc177RWbUqmCA+pIWQMwLNa4xxlF7QbAA91AGhV6ADBBDR/6gJRaCsYpBCedDaCS6L+PVCzSbklFdMHG2GpVbe7nn9u27dv9f4FHvye06KplK2zEM89a/zJlLFAyKL2Gz1lJnG6sOzr4bN8rkmX3+2zvgz7LkUzDOTJR72Ghnn2IdHWiZBntc3Mk1zLP0zuUjEvQe4xtVMHCO79o6wryC3/sHKCTj3D06GH/EOAgpYBVwt2UKEAEx27Ew41iwIAR2F1ZHGDi3kfaFdv2l19uC+fPt189w8ijIkB0/ciIjbE5t97seKXIy6V9LalSTl91QIcUCdEKZ8E+7aNYABekXNFxijQqupRkCoSkCoDwmVjdH6HvWlS6lM275y7Liot3vMke/WdE338MoDeqVPmtvoBUKtgtZn5D741WraP1zihapo7ge53jfgDIW1LqtPikUw/Gc5TeWUDLxhYzbqQd8IphHe9t9uJ4i3/6Bttxnc92i1noL1YKfL6e1xw91xCN9SW1C0FHTFXNDY11OFQGF4vD0WI1kY5H2v9cz/pjMd7y74uXsFEPPWQrly4t/DGPTgkhSdasXm1BXT6wBRfUdHLVSY8i9dCNTPXVOyDFEPBHLQ5zg/QqAMYYXWP9DaJSfA5w2Ov8823MZ5/ZBg9s/AsR6Qnq0d0m1azhgAPABp5w5Ag1flmaB27qLXqBVCpABilT3D9BTKoaKYk8b4AFK40v/h0w4T7O0+1wWOnSNvn552yDQI5H/zMhtzLjE2zKXbfbogolLUW6lxS2WIGHfQ/5bOu9PpunfWRYgsAEC1hSJM5q+qvr+yyvns+2XOyzzeLlkl0sFLiusc82ilMvO8+i+3Z1IinnAp004JjYp489U7Gi053FjV7AAAzABEzkgoJxtrAb/QB8UDjO6uPsk0rlgpUHABwBAR7g8OicJwRWbmqKzXv4QQspXcIiNf4JdTsdRqQMSKeiLiNW5zgfJ8HlrhSeIOG1tKaElBQOEQ5SqnKIeEj5cJwkwRdapoTNuO8eS4+N9cDGSRAFk989/ri9V6KEU/yN8UQUw23dSVcd1g1gPQGUOmk9gA5AyWsodBnLpFcN0/5w3TMDY6B0MZtw4/WWHB7mjIOiTrv37rPI/l/Z8puq2i4Bjs1XS/FeoTF+oRS1AAbRoUhtWbMjRkqc1cWjpbxjxGEa71G6liYFniCQMlvHM8SzNHccj22DWrbg++/tx0PnXjHm30UF+fk2+41XbE7Nio7hO1XyhlRCon7UN5Hu9pmYOpyXtWUuEBkEhONpZw6wFgQed+bMtywqJ2BPByaP/osOHjlqUePH2uRLmjmggK5fw8SkrWHgrhTQxsmEjsDR5IAO5oOOiW5wP9EjoksAFcAF9Rox+ny43gF1G3SkYgtPLF7MRrVvb5lJSf6/wKP/jXAYJi5caFPaXefII1rgxks3Z+i9rG0mmSV5NV/vIk3yiTU5NjYt5LWNfFYg3tpcxxfpPQJCJL/yGuia7kOvR7ZpagkTx9iPh89+p9RJAY7jJ07YzGHD7Mk6dex6DVLAAwzIAFSw5ZhaDgAIaVNsXfBBLQfA4wYx93Oez7QRP+wBDo+KAJGfmbd8hQV0et5Cq5SxGAl/UqZYKZYIBlEN0qjYwqyfARMuj9XxSgmrH9v6bLsEVr6E2+paMs4Iy+qeaH1XaLlSNueeuzywcQqId5UcE2Nf3367vVmsmOOppZiZ9rd4Dt1UBVJHqC3Ai0sdAQWz70u5T9M7m693RntQPLujxaSV9GAtlGeecQrUi/ob4v/PTV5i8c/faltv8Nm+m8VSUbs0xldpjKfWlSLX+I6VIk6UEl+sMR8jcB0lJR+FweXfD9P4X6R5EybFz6rVcKQ+M+uhu21ZZkaRf84nS8yFVSuW2+zXX7U5tSs7ntuUahrjMqoA4XR1cyMZRDZYyI92+B9r7FP31EuyiZQeWrSSgoXHfUil8jb17bds/fr1hT/ikUPHZcymhYdYxN3XCdQVc8ACUaF5epasrwHQoIYvSQAD3UH9HtFxB3wQFdQxxfkADoAHzUPcAnGi6exTIE4NB81F2E694nJLmDfPaW/s0R8jAEH8lPGWfN+ltqmF9LEAQ6bmxErJrHVNCtefWy0gsVlybNslPtvEQoF0phLnSY/na7uSCAcORHGePs9K8WmScRH3X+8sAPzTL2d3RcdJAY4TGoxzJkywhxs3dtpBAhyuEVM83loMmKANLgsCAjrYAigAHUQzqOFgMUAW/+M61wAutNgFcCzwAIdH5zht3LTRAt7vbIFVK1mslDCRDFYgTSdCIWMJhUJ4nHA5UYtknQNMkHebIkWz/TKf/Ux+6FUSUBJM+fV8tkFCLR8PcJUSNvv+e5zWt153kVNDLDoWPX++fdW6tRPVwCvbS0qb9BByqlnVnRQertGmFeBBlIOCWYAI6SUw3ZQoliUqwr2fVKtmI7p0cdohF3X68eAhix45yJJuqmdbW/uc9Kod10tBX1mYYpWu8Z1GD/sLfJbbWPtS6Is13uNryMACjFT1WbjmCakL4Zoj1H3ESvHTcjewcU0L6d/PS2E7CfpZsiQzJcWmPPuUja9cwemqk1KrEOyNlaELwAB0MDcA46QTvi3ZNlgy6ytd/0b702UEj9WWdSBYG2JMhXI2u9Ozlrd8mQcGf0eY+zlJSyz8mQdsReOSlqax7NRjCEhkYcxqzGdrXFPDRzotzUS4zpauhYAO0qooTmYB2Fm6RndDWqgDNOhcBdjgHQAA4eEXXmiLhg7VPDxY+Ed49Idp/6FDljJ9nKXd18K2SFZtkIxaIyCxUeACkLFVQGSTzjsRDIEMUqdWSH4tr61j3UuKVS6AQ/Npja6v0n1rdD7tglIW1PEJW70s96yeHycNOOYJcDwkwEFaVDsxwAPQQJQC8MF59ln0DwaIcEyEA8AByACUwCyMRRcYvucxAY5FHuDw6BymvQcOWNgPA2x2owbOehmEtolsoFQypURStE2WImGfNClyckmpomuVs6KsFP3mpj472rZwmyEja4UU0AaBjtVNSln0U3dbVlysnfD/nkenhg5IqQSPHWvftGxpI6S8qS2YW1ZKXe8PL+IgGVO0awVoADgwvEhloBiWnHZAhtu6lQgIRhmRkg8uuMACRox0itSLOq1dU2ABrzxniXVL2DK8f5f6bH2rQl4rkL1JAHuDwMhKKe/lGvtZUuqZUs4Z4tQ6miuaB6Q2EO2I0z61HQCOSM2neffdatlLFtsvnmr5jwl9vGTxYhv58P02uWJJB1yP0vinniZAc4AIH/VMrD8AoAZ000yB5grUdBD1GKA549RuaI4E67OTKpe3KZ1esNVLl3od2/6N1uSvsdA3XrCsC8rYWhmmsZLx8/TccDYRzV7GOJcuoBsY6WludymnVa6Y2gz0ClER6j0AFqROUdtH50LOcz/tdUm1+q5uXZvdp4/XGewkaM+PBy1u9BBLbXeBrZM8Wif5BXjYJDm1XXJsQ5PC4/UXSa5pS80GAGS9rhcIgBDZWKvteoEUwEq+rpE2vbh5VYv4+mPbvGWL/5fOPjppwDFXgONBAQ6iFAAFWkOyABY96QEfMOcBFKRN/b5mg6JxF4BQA0LqAYLpVvGLAhxhAhy/eIDDo3OQyNdPCQu1qVdd5YSxWdWVVoakSqXKSMoQE+XIrV6YIkXLWzxVeKfI0SU/N0kKPkOKZ42MqZW6h+LxXH0up1ZxgY17LHdJgv3kTZ/TQoeOHrWwceNsxKXNnXaG9FFnyzoboXoPwXo3w/SuMMgAFwAOOvdwTPoVhhngBIMMI4woB2Dk22vaWMKCBc7iaUWZ6KIWN3euTb6ihQVqvBO1yJbiXS5lnd/c5/S939ZGyvsKKfQWAhxS0ukCGoAOoh7pAt3hmj9wshR6io4pNqflblyzKhba+0vbvW+f/9c8+qO0dMUKe//ZZ21g5ZI2S2OeWoweGK96P/Nk+DKuiW5wvrMYkEEBuVPDIWasUxzOfRi6s6qWt0kvdrSV+l5PVP0r7di120K+7mqJTaoVpstqfEfpGYdLtmRX01yQbkiQHhgiOYMcIYJKS9upYtYzIVrh1mVQ98ExnaeIaAA20CduZIOC8jE1a9rsrl29jlSngHh3MQP6WNLVdW2LgMQWgQuABoCCaAfpVFsv0TsljUqyifPbJMc2+s9tbSbAQQqpgAbRD84BXJKubWTRo0fYgSNH/b90dtEpARwdBDhY9A9wAVgAcAA8WAzQTbUCVMCkWxHpILLBZwAm7jVWH6eHPUVlHwhwhHuAw6NzkBjR+StX2tTnnrMJpUo5ObOEtwEcrLFBLm6qOFnKJVMAYqmUeYr2WcgvVMqE9TnidV+aDFsiHazVwX0Z+kx8lZIW3KG9ZcfHeGlUp5n2HzxowaNG2beXNHeABB7dyTLCMJBZZ4CiTrfVJ4DD6cAjHqtrrE1A5ANDgTx3FjkjAjKqTEmb8lgHr85ARGeW2V9/ZSPOq+50zgnSWKcmI07GFuCCyMdyKWpAiMNS7MvwCtJSV0Akr5UUtTjvUs0hXScFa6nuz5HyjrqntaWFL/IK9f8DWiGZ9erLL9stVSrbBMmcaWKAxDjJnkwBvnmSP3jRARREOLjmrllDATmAAyAC6KBt8eDSpWz8s8/Y8lwvsvHvRGpO2MCBtvCihrZM4329gPQygY44dIPfGYVOIKrBKu48W9I5iWgAOJAlThcwMaDCjXoANohqEAmhBS5RDQDHmKpVbM5HH53V3vMzjbYIuMUM6G3p19Wz9YAIfycqwMU6yakNkldEMdZLLhHh2KBrOyW31vojHeu0XSo5R91Hvo4BKcvryga45wZLDQl2anvONjp5wDFxoj3epIlTdwHAAECwD+Bg1V0iF4AOAAWpVm6KFecAJrTT5XNESEjBekBM//RPvQiHR+coYagG9eljk2rUcAT/AimIYDHFfAulMAAdgIi4koXAwllbQ8oFsAGH6TPRMlqJesDUdGTJEFtSpbgF3t/esuLjvALxv4h4l/O+/db61q3rgA7ypN2CcEDHGL1PCsMBGoAKQAYLnrH4Gd2s3KgHUZCBOkcf95A65WzB+2/ahg0b/b9SdGnl8uXW/957nedGZOgHPbPxek6z9ZzmaY4s0riPFiBPlyJecZFYSnqtAMeWq3y2/Xqf7WgnRX+tlDrpWJdLkbcWIBEAyW1d2iK/7mxbPW/uH6JVq1fbm6+8YrUqVHB0/CjJpg/0HtDf82UI5wnQsaglUT5SBt0FMR8W40BkkUwiHdRzADo+KV7cBt15p6XFx3tg49+IQu2EuXNs5hWXOesoEe1eWctnizXWWTcjrExhe3R0BXMCYEfdDA4O9AjRCgAdcgUQAtjAoUWkwykIF48XEwUBlEytUN7mv9TJCryFMU85bdu506L6drO0VjVsUyOfbWte2I0KcEGNxzZxgQBFnuQXkY+dkk0Ak02aT5sBIwAN3bPlkkJwskoAZHmTUhb5wsO2UkD9bNPyJwU4fvn1VwsRKHiuVSsHXLir7QIqHtRk+FyTpZMmAMCCKAdABADClvsfFyOIEEp8tr2YtCrynnteeKEtFJg5cRaiOI88+p8IAE3P7mlt2zqpVCgCOoWgKAAfeKBoh0uhOHm25N/SnYruI6RdcR/FgIt1Ls0fCSGykVi9lC14+F6nZsNb1O+vpS1bt9rszz61UbXPc7rBADDG6j1N13uaLRk4U+9zkni8mMgGQARjOVBMG1FSIvgM0RG6KYXofU5rVNMW9upmO3cX7SLy4z/9ZHOnTLGXmjd3Oh9R60LqGdEkFpYbr+c3SUzr2wgBD9KnsuoVRkBypKzzBT7WXVYY8aDr1fabBELEu272WeZTl1rKgll29ITXied/o7Vr11rn11+3+pUq2fl67i/pubN4GTWXZCl8pWcfKqM4SuOWNWYwfgEcvC8iHI+K0fVsSZl+pUQJ6ysQmRwd7XS69Oi/6GfJ7rSYGJvd/g4LLVfCSZOlKDxLHK3nPFeygk5TAAaiSTgxqJkB5BHJQH9wnvmBEwO5Eqj3hd4AbJBixbocFJE7TSwqVrQZr71qa1as8IDfaaL169ZZxGedLaNZZVsv0EE73IILBByQUwKSrCMUL845T+cE3uOr+5xFA5foWoq2AJOdkmFrJM8oIqddbm6ryhbZvYtt2nx2RaROCnBQQBYfGWmdbrjB8XoALAAURDCekeAh5Mrqum6KFffARDcAGOR6ul0s8H7QvxtPFu0l+9aqZXMGDbJjnkDy6ByibTt2WNDHH1lQlUpOoTgKACAB+ABwwM5iTH6QQetC7uMeN+0KMJIrBUT9RoqUELUcgbe1tVTNRW+2/D20Wgp7/ovP2KyqZZw0BoDEVL2rmWIARATeSb2naZKHgBAWsAsuJ+ChfYrNAR0z9JnJuh/gESHFE3trY4ubOMoOFPEicgpYh37+ub0g4whjlkXkvtNzmi0jN1A8Uc8LBsTRlSpS53i2zqrkeo4UkZNStbaVzzZdLdAh4LH3Rp+tb1vKEt5/3NbkrfT/kkf/Tlu3bbNeX3xhLc47z6rpudPs5TON01F6/oAI0qBZW2OYjhcIULMODU5DjGA874AM0qQ7iIl4dC5e3HrdcostjohwjGuP/otwra7IyrRZjz9mC8uUcJxJS2sUgg3a3sZrTLOwIoCCyAapawBwZ70TMatX016YSAeRVu5hH5CCHqF7FfqG1CpnHQ8ByHEvvWirVq0q/AM8Om2Ur2cc0bmTxTeu6LS1ZzVx5NUgvU/Sbb/WuxkkJuqEw72Pzo/QnBqtuRas979KYIPFAQEday/02eaL9B1tG1ns6GF26Nhx/6+c+XTSgCNORs6L11/vRC0AEqRNsX1YD4+VdR/UFnCB0LlXzD51HmwRRoANOlPRyQLwQeoBk+fj2rVthgAHbSg98uhcINKcUoMXWECbK5y0qFAx7QndUDfeKRQCebjBYlKs3IWYOMeK44ANOpOskiG1rEphOlXQDVfb4tmz7PBZJHjONaJeJjU8xObcep1TTBskIBggnq73BsAIlvFAm9YAGWUc0z60u94vXkhSH77R/hRdm6t7YqlPkEIJrqXz115toXPnFXnHS25GhvW85x57XwbrhzwzPa/JeqYs7jdbhlhINc0PzQtWJQ+TMp+jZzxNz5joEqu6R2iuJNb2WeYFPlupZ7u+ZWGBZtatdS1x0gg7ePSY/5c8cmnnrl32TY8edk3dus4aWbXErJ31rp79t2KchEQ5ABJDedZiPO1kLRDhcGs4yGBAxxPx6NGmjcXMnessGuzRv9L6dWtt1jtv2szKFZ1UKmo2VkgG0DSEInEM1QU4JPQcsZOohQHYUZg/WDxCsgZjlTQqnB5EMQAcrBqOI4uCcvQLhePDypWzGa++agUyhL3IxuknwOSq3Cxb0PFRi6layslamKt3PFU6Yk5FzSfNnW4AjOp6v3rnM7VNlqyKlsxCxk2XDKMDH92t6GBFlATwEfNQW8uMjbITv54d4P2UAI6XBDiIbLj1G3SlwvMBqKA2AxBCCpXb9pZ9QAlRD3JAASIIJVbupU0k29cEOGZ6gMOjc4jw1C74oLMFlyvtAA6KwMOkBIhc0MIQ0AGjHCjswyMF8CDCESFhxLoctL3Nk0BaKQWUJQUUcn1rS5wzyw55CvxvJwo9w4cMtDkX1rEIKQm6Vc3H0y5jd4H2x0vJDJBiGaj32kfcRe+2q94rx9N1f3J9n6VJoRDdmKL7ASMYFF/cfrulxsYWaY8wqTdhU6dav0uaO+2GeY5jBCZoSzxZ+4sEMgAbyXVlmElJU9sxVc+XqBHgg/UeSHEL5L3oXtbrSJRSjzqvmM1++G5bmp7udUn6Hf144ICNHTHCrm/c2BrqeV8ori+mq2R3PUc8sDgRyV5Ad3+rYwBef22JQDF20ePUb7j82iWXWMD48XbkmAfu/p1279tvMQN62aKLa1uMjFCKg9fIwCTFZhVpgpL3tEyfL3mBI4px/7aeKdEkwB3RDLzkOG3pAAaooHaD9CkiGtRtoFfQLyMrVrSJL77oRGU9+usISxan1Nxbb7AIveMYyaXUqoUF4smSXQnS6zvv9tmW2ySb6vhs82U+23OlxoHARbiujwd4SOdn6xodrnZSs3ZRGQt57VlbtXzZWQEcT0lKlQs4ABkIIAAGxwAK0qvI8wR4ADIQUlyjQBzgAeCA3ZArk4ew+VsCHLM8wOHROUIIg4y4WJvVrq2FaHwDOKjPoAj89xEOFAT7C3QtSgKJFri0MIyXscpaHACOXBmw6ToOadXcYiaMtwNHz84WeecirVu7zgJf72ThNUtZmAyEhVISgI2+Mo5piIHH9xu9zwUyeGMFMPC6L9B9eOnnywAeq3t76N1jOCALKbD9tEwZG/6Pp2x5To7/V4om7di50wK++MTm1qtoGQJmS4kCSWHP0rOdr3kCsMuRcl7ZUuBc18N0jXOh4rl6vtxHittkzblJYie9TdspNavYvC8/99Ye8NNRAYKJY8fanQIIdJS8VNxMTFv7Tnp+dKPqJdmELkfn4zAkKyFIzxgwN1XPmcYIdEqiWxVg48UGDWzSgAG2d/9+/6945NK+g4csfuJoi2t7sZNCRVRjg8b2qno+y9DYZbXpBBmapNpO13gdJe4hxk7CZiKixHMm0kErYurIXF0C2KDeg05UgI5JFSrYlFdesTwvsvG30IHDRyx0/ASb1fIii6GlfWufHexQuD4Ha21kXu6zRXr3IzS/FmoupUk/5EumbWnlsx90PyB+kGRdooDouoY+WytQmnZpVQv9gg5jW/2/cubSKYlwvCDA4aZSuS1wARTss/4GIIRrrDTOOQAI54mEcM1NuXIBB2HZr+vUtoDB1HB4gMOjs59Y5G9Rn94WeF41i9D4prUtEQ6K+YhmoBjmaZ91NigipzCcsCspVOTvLpPSWSYjlY5VqRI4IU0bWLgU+G5PgZ9RROJT0sIgC7jxcqdOY57e1UgZaV+KP5Gh1lfnFsqoyGsu4HihDDQpmcEy0N7TO39ZTIc+mLxslAueYmcBwYoVbPQbb9jGDRsKf6iI0orMNIt88X5bf10J295GSlrPEOUbLnARL0Nt47U+23unz3beIoWs6wVXFm7XXiMgImWeIWUeofum6L3M0HMn1SpWcyug3eW2OGi+Hf+laJthFOkHL1xoD151ldP85W4xKdDo7lbitzSOR+nZPSfZheMQpyERDsboXJ2PI2qkdxEk2UV0iS5sL1aqZN9/8IFTD+LRv9Lxn3+15AUBFtP+SlshgLFc8oDVpmmZymrT6AAi24nSA2F69nTAwxlBuhrRT8AGhfikt1FLQ7ohgAOdguOKKAf1GqRVTZQMmfXSS7Z6+XL/r3v0d9CO3bttUY+ultj6PNtzl+TV45JdAg9ECZ8Q36N3DHhk8dgY6Yy0atIXF+hYgMNd32aQ5laG5N7GxgIkdWRPXH6BRY8a6oDXM5lOGnAkCHC8LMBBBINF/dzUKoAFgILzLqgAiPwejLAFiPAZrhPlAHBQRDOiXm1bNGSQ10HEo3OClqWn2+x72ltoiWIWI6FCji5F4QAO1xMVqePFKG1dS9SWNTYyZRBRr7FCigiwkSIjKax2NQv+9GOnO5JHZx7t3LPXwr/5ylKurWarZTiwKBpRjsxGUixSDnMFOObpnX6j9/uM3j9GG04Y5CCGA0CD7jOs34HBxj51Hv1q1LBpLMy1Y4f/l4oeHT1xwpYETLfEe5rbGoG29XSfuk6KV4BircDFZm2363jHDYWdqPa399nRh312Qkr9mLbHHpOC17nlLTW/pOST6sqwk9LOvKikLXzpcRljy4p0atUigY1Hb7jB7ihWzKm5QB9j1Lqgg5Roxiit7OGHxIBj0qgoJKdQny471M3Mk5wbW7q49X7gAcvIyPD/gkcundBAW5a82OKevsPWCQgXaDzm1taYpi2q5AapVAkCHItldMbpeVKDQVExzxvnLKADkEEdrBvloJAcwOFGylnwj+5VI0qWtPGPPWYrsrO9tWfOAFqzapUFvPycLWxQxqZLH3SSXmeNOpoyNBXjwP9U8ydE51mNP0xgY6i2rNvEO0YnTNGYYH2O9U0ESC70Weo/rra0sAA7dgYvGntKAMerAhw8LFYOp4aDMCtgAwWKIgVYAEIQWnhNiG4grLgG4GDfvZ/icTpVjRTgCPEiHB6dA3Tk2HELGzrUZtY630mlipJipuUtgIOIhluvQVH4EgmRXAmXHDHtEFfVKkyjSpXBmiqBE1WhlC14/inLX+nl356phI98aWa6zXv2bouVQpgiI2ywDIcxeqef6R2SYoIxh4eSNCucMs3FOGNopIHxxoJctHsdrTFB5x/SUzg37IKGtvCHgUU6NWXbjl0W3PUTi29e2VYLdGy+VgDj+kKgsVZAIq9ZIefTu14gZPuNPtsp3qp79t3ls0P3C4jc4bMt+tzKFrpPn1khhR3Z4jwL/eZr27V3r/+Xig79+uuvtiQpyZ6+5x5HJzM+ibRRmEzqDjqdFGnOoaO5h2MMXTyuGEDfSYZRIxOhcT5P4xwnyuhLm1n4zJlet8l/I0Bt3rKlFvvWE5bTpJTT6nSpAMYKbVlxerPGdYH2U/UsARuhep4Ui7N4qAs0qN9wIxxscVRQTE4XKzfCMYVjgceh7drZEq8z2BlDWLWJoWHWq821zrt07WeY1EXSGHHCAy5Gal4NFpNGxzpE8yv4LEigfprGRcr5GiuSc9ud9t/FLfz5ey0rOUXvufB3zjQ6JTUcHQU4CLfykFCe7nobAAwiGUQ+QGyEZ10QAvAAZLjtcrmX69Rz0B63T+3aNt8DHB6dA4Q3Y9oTT9ickiUsSgKDCAaL+1EITv2GAzjEc3QtREZmpsAFgCO3mowhKaGcKj5LIPohXnDD1ZYeHuoILI/OXDp09KjNHDTYOjeo57QPJWUURr6hSDAQ8FZhwHEduQj46CKmpeV0jY8AKZbJAipDNU7Ga8yw2B3FoCMvaWaRkybY4SLaKABAtzIny+Y9fr8FVynmFH8nS/HGCZhTPE7BeKzAOkxxeLJAO61xWRwwVwBwucDI6ksFNrTNaVKY2pZez2dJmmsRt7e0lODAIucFTktNtWc7dLBrypZ1Mg0wgvCkk77DGCUK94jkE2Oxs7bob3S226aYtVEwhlnQknqaBZJVM2tUsYAvPrOdRRDA/V+0afNmi/u6sy1tVcFZ1C9H4zejpgByUwFjjc0NGpNLdS5RAI52uKGa/9Rg8Kx5NzCgkC0RJxi7idQ2WuPSCpdW69RvDGna1CImT7bDXrH+GUUHDh60mf2/s06ydXHC05gBsEEkETsavk9M62McToD5FMm61Y18tquVz9ZIdrGWB2OG8YJjMq5OOQt6vZMV5Of7f+XMolMCOJ4R4GipB0Ikw63lwCOCkOIY9MY1jkmvQrkCMmAUMECDa2xZ/I+w7ZteW1yPzgFCyMeMG2tzL2xsURrXCTIaE8WkTwEyCH2jGNzC8Xgpa2dBPykZtiz8RJpVigzPxEtqWfT3fW3PgQP+b/foTKY1EvpfvtDJbildxoniIhMBHRh0eCO/klFAZxlq1jjuI2Nuqt5zqIBmlJRHf+1/qOtjZGxgRFMPAuBgJeGxba60mIB5zqrERZGO//KLsxrzpCtb2WgZubRppXAZsDZJz4t6gmABtkgB9xDNJTgW4C4QQjH/Aj3bEF2PEkCh7iBG51kpe2GV4jbjH485BfpFxRfMOgxvdepkl5cu7YBhIhgwHnRqAhibOBGf0nMeI7n1up41xhCAg5xywAbABPABiB6m6+PLlLApj3awFVlZ/l/xyKXtu3ZZ3IAetvTGOs5K0ksFOHIFiNfIaNzaonBRuFTJgEUaw7TCTdYYDpJsIDWKtreADFKqABww+wAOUqowTFmPg+6GOLKG1qhhc7p3t7379vl/3aMziQrWrLFBzz1r75QtZbfpveG4xwmPrsBWxi5+Uu+yh2QaMmqdQMYWjZGtl/ls48U61phhJXKY1Kr1FJG3qGYRvT6zrWdg6u0pi3CA0AAaRC0QTjwoBBKgggeHwgVQsM91HipbBBxFZyA5ul3QOpfjlwU4pnuAw6OznJbn5lrgYw9aQsUStkTKOgHBAdiQcKGgD9ARIoEC07UqTQqGBZ+o30iWUeRENqRssmqXsNjXH7f8lcu99p1nCf3y668WsXChvdbiUsf7iHGAbMOh0k3vGsN4gt4tRvIwHdNJKaGmz7KlOKbKCHaiIDq/SIYya0tMx+jQ8UwxbTEH3nGHpcfF2c/6naJIe/bvt4CePaxL9WqOcfyFnskcKWX61ydL8aY31HyqXxgpmqM5NVsG3Aw9czpUUXw7XfsL9cxZI4XFGVnlPVDnZp5f2eZ++J5t3nruFzlv27rVvuzSxS6pVs1xCjI+4Q5iDNsPxEQ60OPP6ZmxujupgG6EA0OXOg+eP6k9MPd/2bSJRc2cZScEDD36L/rxyFFLnDTKcu5qbDsvLQQX6TV8tqyejMiWPtsmXqUxG6nxyBo+iRV9tkT7M/TsWV+DZQNIqeIZA/YoLgZwwIDD8bovWHICvTKqfHmb+PrrzkrXHp2ZdEKye7F0xILrL3dABQ56nFJkBrH/mt7nfOmEZRonSzVGCgQydrTWOLlcIKO5zzYIaJB+RxoeQGSHxtRm3RvbuoGFDvzedp9hQPOU1XAQtXDTo9x6DACICy44BlAgpMhV5oG6heUUntEuEkaAMXle8QCHR2c57T14yBZ8088iGtdy1syILy3DUUoEZUB+M6CD1KoUXUuSUiGiQTrVYqIgEj5sU2QQrZDxmXprM0uZN82O/OTlQp9NtGPnLpvV5UMbW6Oi03HqAwHIPnqnU/Wu8cLjnQd0sDJ5P227CmR213W8xniLx2ts0AI2Q8bzHI0HAMcE8fe69l3pUjbygfstIzm5yLa4XLVsqX332GP2XqnSNlLPM/cSKeE2hbUb8LrrfbaynbZ3CYRc5bNZdX02VqBkdCXNQW0XCMhFaJslkJfdWIDvfM07GYBR19Sz2FEDbdc57Bk+dPiwjR0yxNo0aGC1NZ5ogYtD0E1tRh9j1KKTOUe0jYgcBhF6HSchupqiZUDIG2LufbpCBRv27ru2ZcsW/y95BCG7kxfMs6SHr7LNMgzXabylkfKn8eekxsh4ZBVpIh6LNT7DNd8TJCdCpAtY2O9TMZEk5AKRDgAG6W44MgAgNJgIkhyhjfrMUiVszH33WVYRlg1nC1GPF9ztS+tyXlXHZnZt59f1HkOk+zdrXOxtJUBBrcYV2r/GZ/vpxid5tl0ANV8AY3UDjR3JMLqbrRFgZR2XxXdcbItnjrfDx3/y/9LfTycNOBIFON4V4CAExINCYLmhIB6aCy64Btgg0sE5gIabYkWhJIILjwqCCyHHwn9TPcDh0VlKFOelRETYnLbXWpKMSKIWtDUkbYpQN6lUoTrOkGJZVVMCQoonV4onu0rhvURC8Gzl1fZZweXlbHHX12yzp8DPOiIalZ2YYNPa3+x4qtKlPFZKcSTLwIiQYUsKFXnxXcTIRPJ4kYn9ZGwEaTyQWoW3ng5XCzQeWDtiiJj0IbpYdS9b1oZ17Ogs4lUUI18//fKLxQQEWP9Wl9tIGVu5pBvcJCUthbz5Op/tucdnh5722ZFOPjvwpI7vlaGna3SpypMSX3GR5pwUNoXjy5vrOUtpc35zW5/ldGxuyUGT7NDxcw/k/yL5FBYcbA+0aeOsHs5K4qRzuA5CUpuJdBC5cEEFq7u/KEaPE6UjAsc1apDYklJFWs/nd91l6UlJXiT2d0QRb1ZivMU8fZut1/haJ8MwU+A2XCA5tqJAhgxEDMeV2mbIyIyWXGAdpmCNadbdoLYLQAfooFMVUVHqNcjvx2YiEkXUjkj5QvHEq660OM0LPOgenfmUm5pqfTRv7vEVcxzzPfT+YzU+1knuAyJ2CGiwEODOywuZ1Lvd2u6QLiGyUSC5tfli7Uue0XyA1soFkmmhHW6wlOAgO3KGgI5TAjg6C3DwkNwUKcKxeD8AGYRpYa4RInJrOgAh3AOTRoXwYuKQOwrweBXAMXiws8KsRx6dbUSv88Dn/2GRVcs60YoYGZQs8kcb3EVSCGE6lyRFs1rCYZ0MSgAHbW8p/tolwbJWygcBckDKKf3eyywtJLDIrxFwttL+g4csYvggy7yzlh2UuM2XYRsvZbJMSgIvO8ZbC3FdMd2q3hLYiJfiWCFlwurZoQKlERobQTJOiHBQFEqEgyJdWoj3r1LFJr/5pq1ds8b/i0WL9uzbZzN79bbhDWvYMinZfbf7bFMbzS0p4jwdr2stlsLm3PabpawFJoh+bLxKfLUAv+5ZISC46lLdr7m3pZ3PDj/ss6MdBWC6XGfp4QF26OiZ4yU8FZSdlWUvP/ywtSxZ0gEabudIwC6AAj1O5gF6GX3MqtZ0o3LTqPC0k87D2HUzE+C3mze34KlT7dhP59bzOhkCeK1almuhr/3DVl9RxrZLphPNSJbMj5BhmV5TY1XyfpX0QLbm+2LpBfRDhOQAaZTMcZywRDFoj00hOAzooIicNKv+0iusQr6Qaw0b2YJhw23/oTN7TQaP/osOHTliC4cOs9dq1bZvJefXSg5tF6BI1tiIk+zfqGMcKKs1btZLN2yUDtkjubZbvFNMetU23UONRw6OLYHWDI2llNrFLKTDrQ7YPRMs6ZMCHOQORyxYYK+0bu0IJ5hOK2yJXgAyYAAGlfcAD4SaC0LwpLhF47SKxFPielY6S3AtkuD62csB9egso+27d1vY119YeJ2qTv1FfEkpD0CGlAItcWl1yIqytLzd0rSQ6URFzQaC4ycZTIdlFB27XuCjXVmL+/Qt27TZi26czbRm9UqLe/8xy25Z0mbIoMAbH6TtRzIq3A5/dO97XccRUirbZBgDOJYImNBmlM4/rJJNi0QMDaIbRDk4ZmGvETWq2+wvPi+ya7Osycu3BW8/Z3k3lrY9Agyr9eyiZdBFVivsRLVKx5wrIKqh50skI1eAPlf7GY2lmOsL8Gu7QvNv/TWFYOOf7/rsYKdilvbqtZa2aJ4dOoNSE06GiJR2++ADa12pklP87WYkkKXgNm5BL+MIRCcT3cCoBWCgs9nH0040A5ABKKGO46UaNWxYt262U/LPo0ICbGzcuN4iur5tSZdUdvLt1zMWBTBiNa9jK/hspYAG63Bka64HSwcECWw4625ozn+v+c2zJnWK5hLM+zFiFvJj3lPX8a14mu6j1fqcmtVs5kcf2ZYivFbP2Ur5kmFDnnjCYi8oaUdulO6/WrJJcmmhxkSWtrtkqq+9qjB1ija4e3R9P1HcKwvBak4dn7MqeYHGUpZsi6SqPksTWImsXtoWdXzElqcl209/s9PypAAHBWFzJ060J5s0cQQVYAOhBSPAABcIKArM8ODRyYpzbp4aXhQEm3s/57jOd316xRWWMH++E/r1yKOzhXbs2m2h3/SzhU0bWpxABkXf8VIgFIQHa1zHSImslGLZ0EhKRkJko3+bLeWTKuWzToroRwmSowIchyVMlj3QzNKDA+3Er948OJvp6E8/WdK8WTb2msscj+V34vdlJOAxRvbRCairAEX0pT479KjPdghwLCXHW0okUOOCdAnW4QBs/CAmXxtDg3SLKRpbtMwcXb+2ze/e1bbv3On/1aJDJ6QnsuMjbcmz19q6yzSfSFnTc5vJ3BO4z75QYEIAY7m2rEwepPkGzxPoCxSzOjbnM1DcUth7HvPZrx+JXxbo+Ic+92FrS503Rsb0Hv8vnp1EK87hAwfatQ0a2MUaM+hb1+lHlgLOPrIMiFyQqYDzkJqNLzXGPhZzH6k9pPgQ8cDzTjrVC6VL2zek9q1c6f8lj6Ade3ZbzMCeFnZJLafod1trn7NIW2IVjT/N90SNQQAHRmS8wDFzm8LvGAGOcboOyADg9RCzoB9Ag+gG3erYAjg4T6fDgPJlbFanjrZquddY5GwkFjWNmTnDFt9xiVObwZosGQIOdNsLZ5zIVthMapV4A+lT0hW7BDaIdNCtanVDXdPniIZk1S6MciQJcJCavaROSQvr2MGWpqX+rS2/TwpwHDl2zEZ/8409VKWKozTdGg2EEqlSgA3OU0jOWhzNxNRvAEAAFy44Yf/3IAQB1/WKyy1xfoAHODw6a2j/kSMWNWK4BTVp4LTAJbIBiMiQQZNYtjAnl+jGagkRAAdcQL7leRImNaWIZFyyANSOFj470kbXW5SyiDc72rq1XpeRc4EAo3M/+cAGVCvvRHSJapDK8r4MixkaF4lSGns7CGw+Xpjyk62xECHDZLiuA1AoHAVwwHSpgsfJCJwvhRKkcTab48b1LFhj8MfDh/2/WnSI/zn8h28svGUtWyLjjXU45mjezdOzTWOutdL8krJefonmpJ51pgAdW+ppkutqbup5p8v443jD9XoPT/vsxDM++2dH7Qt0pD9wgS3q9ZUVrFl7Vq6DQ7bAwrlz7d5WrZxaITIP0NMusGAL4CBFiq2bsYAOpzMSjO5GxzN+SYEmwtGhWDF7/9ZbLTUx0TN0f0cHjhy1JVNH25J2TRy5n6fxtuNqjcGm0gUYkWK80svEy6UTiHgM0RymexotcftqnxoNGkiQQkk7bNZqmimm6QgRDuQC4GNeiWI2+bbbLDNxsf/XPTobiQh15GfvWGrDcs7CwES8SL2jbXK6ZNpGya9tt2i8SJ7lS16RXkVWBBGPXbrmABUBD7qcAWYBHWk1JNukRxbXL2ehnV9x1uj4u+IcJwU41hYUWNdOneyeUqV+i1K4xeCABgAIx9RtoFhJGaB2A3ABCOE+wrnscy8eFsK4tNbrf9XllhIY4K2M6dFZQQeOHrWEyeNt0dWXOWttJJfTZNeEX+YHEzkyfigQzxRzLQ9vl4QFReF5UjZsiXyQZrVTBtFOKaXklnUtdtTwcyaVo6gTNW9ZsVH2TrvrfyvU/YfAxAIZu2uu8dmPAhvHn5BRckNhdCNSY4YOVkQyMDiIZuABHSAeLSaygQc/SMplphTTOF2HR13SzBYMH277iyDoAAyEfPiaZV1ezkktWIbnT8qYVcWp2WB/nbbuccHlmpNS0Is17+gGlkt6o3iDrlNwfuAhn+2/V4pd92bpvrBm1Sz4tSctJzHGjp5Fi9JiYMSEh9uLMkqvLV7cSWkmdYqUKSIagA10MboaXYweBnDQ0MVNrwJkADZIAeQcx3zulTZtLDQgwI57dRu/ER2pMqPn2uLHr7BMGXws7LdOcn2jxt8KgdolMgCXaTyta+azbMn+aIEPutBN1nwHjEzVvKYbFZEkohg4G4aJARmsOM7Cfsx1ztGEZMY1V1kC6/J4Na9nNTFP0yMjLLDt1bZE4yBX42aZ9ANNBeI1ZnI0drZeL7mlsbRcIIRicdLxqOnY1krXLi0cX6HSCTH6PBGOTMk2GhSkaj+hcRWL+vRVW1eQV/iDfzGdFOBgDY6Xrr/e2hcrrKwnsoFAQmi5kQ0Ahgs2EGScI/IBU9/hnuOz5Ioi5PCa9GztpVR5dHYQnqyE6dMs6roWlqFJTi0G4KFAQoJohgMmqktACHys0n6GJj7dqLhGLQdbjpP12Xwpoa0X6LyOg+++1bIXJxS5VY/PZTpw6JD179fPrq55vuNFnqZxQl7u3rt9duhhn+27Q8rjMikKgdTxJQvBBulTQ2VcDBf30j5ezfGkUek6iwFO0pZIxyjxFBksgJFvL77YFo0da/uK2CKRzJWcxfG2uOPNtvnqYraDQvHrBOKkpNdIGbPSOAXkWwTwKBgHcJBGFU2+s+YeK5DnAVBu1Pt4XCDwfs3JlgIkek/RmsNLNH+XXFDMFj7Y1uJnTrPd+38s/OEzmH76+WdLjImxd9q3tzsENnAOErkATLhMZgFAgpWO0dUco9NJrcIByDoyFChzL1kKbNHXzzZqZNNGjnSyHTwqpJ9//actTYmynK632JobitkSjZs8gditMgjzZCCS7kKO/RoZirTHZZX8EZq7dJ8CdISW89kPOgZsMN+HikeKXWcDkY75us5CgNRzTGjU0BYNHWIHjx71/wUenc20RzIltE9Pi72whtNtar3k1SqNn1zsCI2f3bdJpt3ps02SadslwxhDpFgROVsj2yFbdgfF5jnapsjmyKon0CIZl6pxGCEgm3BpJUvs+4atW/vXRzpOCnBELlhgnS67zAnLAhR+X48B8CC6AagAdLhpVJxzIxxuGhX3ssXTQgEaeaHdLmI5/kleWzePzmg69ssvtnjWDAu5tpWlC0jkSXkAIIhU5AM4xKRKFWjSsxLorktk8EiI0Co3U6CC+5ZJENChaoX2N+seUqySKhazkHfftB07il4+/rlOOUuXWa9HOti0msVspRTFBgEO2riuk0GyUkoDBRFQvrBAlNztvmKMDQpI+4kHigEbCyv6nMLzMTI+SMOYI56ofbpY4REd2bSJBfTra1u3b/f/ctEgxwEweYRl3dvIdglwbBSoWHmhFLKARAEeZu2vbK7nfaXOiSnOT5eiztJ5uloBMNZJke+lpe4D2tf7oavYbBmCYTUEUARMMjRPE29rbLHfd7eNmzb7f/nMI9bamDtpkr187bVOJgIggqgEQAKdDRPpoHiclGfqOkh/JgKC4xBHIOs80JWK2g10PICEzzxXq5aN6N7dduza5f81j3CPrs1fbUnd/mH5N5SwdBmJOZL3mzW3ya9fpn0iGuTjE4FjdfEgyX7AHO2uFwlwDNeWY9baAHAAMgAWLuggyjFFTHRjcM2aNrtrV9u67dxfpLKoEGNoVU6OBT9+v5MGevgRjSHJrVTZBSwUSVOMH+/z2c7bfbZFsmkTkTPJszWNZTtoXK2RbCLNqkBja5WO85rpvK5lCoTEauzlX+ezbZ0qWmLPF2x5ZtZf6tA8OcCxcKF1atXKEWJudypSqRBGhGcBEgAL9gEU7BPRcGs1ACqOF0UTrK+MrkkS6tOrCr2LpzStbZEjBtvxn70QoUdnJgGGc5OWWNjDd1pONZ/lCkBslMG4XUYk0Q0W4OF4kxQLrW5ZWXYTuZea+EQ0sjXOSbki1SpX4x+AQhQkTYZNVKMaFjPMW4fmXCQKyGOnjLeEmxtavpRFvsaF431vICNW44gUKVYe7yPZSDTDWeRPIGNGBV3TWJkosEEheYTGzLQyPhtfQuBDx3S1wSjBQMEYwWP6cZ3aNrRrN1u7YWORyq/ftHmzxfZ8z/JvquikrRC52HWzQIWUcYzmHZ2rqOcAYNCZaoUU+hodr9E8Xan783Q/5zcJCLKuxwqdj9f8zNG1zdeLr9E8l7LPvaW6xX7xigyE7DOqsQNuunXr1tnovn3tiYsvdnQwYAE9jd4FSHAOByF6mqYuF4kBHOy7jK4mdYr6DaIcn2scvqvtYxXKW98337TNmzYV/qBHDu098KMljO5vsVfKfinrsyQB1A0aS1s1fuggRGqLs+YG3micC3V8NqpUIcBgFfx54i+1D8DrJqbBBBEO0qgAHQAOjnEq9Ctf3sa88ooVFBT4f92jc4VIyUuYNNpyHmlkW9rKRqjnsxTJrRU4L3GYyI5IraWt5BZtvknVyxMYcRf/g0nFWicZtlbjLwtHqK7tvsdnRzr67OCD+vwV5WzmU49azpJE++kvcuyfFOCIEOB41g84SA8gzOoWmSHIEGqkTiHoOEe0w/WuwBSdOetvSIhFC8kdfUpo7n6fHRCCi7umtkWNHmzHzqI8WY+KFq1fv96C33ndUuqWt5yKEgoSCKREbRHgoPvUeu1v04TfLqNyhwyVDTIoWdyPFrhLZVhmVtak1+dSxDkyHol2OOtx6J6IG1s7C/Z4NUznJm2QMRj16UuWfWVZWy0Fki9QmqL3P00GxyDJQ6Ia32pLYThF4hSOh2pczBOwmCNAGq97g3XM9dkCKKT8hOgaqVeAFMAGxaaOd7pmdZv+3lu2ZtXKIpOeh/pclp5qsS+2t3VXFbODUrRbpVeiNPeicA5IIa/W3FwldoDGlXoHl0tJ6z0kSamnSlnHai4u1na9AMbO23QdMAJAJGIioEJK1l6BkbU3l7bw5++11NAQO3wGLBL448GDFh0cbJ89+qjdX6XKb5kGOPvcDAScf5x3MxGIagA2KCaHm/i3rcV8Dr1O61vG4tgyJW3wIx0sOyPT/4seQcytpckxFv9sO5uvOUqXtA0aJ9sETGmFm6uxRFoLBcCkU5ECg4Ohj+bst8U1pysVzm1WECediggn4IJoxjQxXeqY2zgU+pQoYYMeeMByUlO9Qv1zlDZt3mhzO79ii84v4zg0iXDQ6WyjxtLS+mKNo41tfLavg8/pXEWXqvzGheOMRSSdlesFRDJ1H6vZE00jOkJ73eWyUUjb7VeppH1z122WsnCBHT523P/Lp49OCnCEC3A8I8CBxwQA4QIOBBh1GwAON92KiAbnKVLDWwLYYGVSFCIelAmagP98S39KJ5/9KAG//KbqtmTMt3ZUSM8jj840Ov7LLxY3fZotanmRpZIeJdBQoAlP2hSL9m2ABToAHmslJNZKCKyUwOA+ismXan+5JnyuBEmWjCAEitOlSrxMxmPoU/fbytxsT5mco3T8518EKAMs8s7LnMgGvEjjAg8mkQ1SKUihomsNRsbYkj6bWdrntMoM1niJ09iZWaawqDxUxxSYz9Z1gAbrc8B0uOkqAENb2MTmFS3k1acsKz7OjhQRJw6r6ybOmGgZDza13ddJYWtukXYWKaMvW/OUVcZZn4MC8W03FvJ6KfClUsaZmr+La+s5C9htoEX1U7p+pz4nhU4nq2VS5huv8dn+u6TEb9b3CITE3N/aEiePtm07/54Uo127dlliVJR998EH1qlZM7uvWLHfaiQBHKQ1kyblbklpZh9d7QKOxmKaGQA42GfL+cvEpEZTX9mbDpKBgU5tiEf/RTt27bCYPh9aSKMKTpSSBT63ttaYInomcEExL3n1q/BEa4yR/jJPAIPF/CZpXMZp/g/XHCa6QZSDdrezNP8BG6PEAA1kAXVdA9q1s8TQUGelfY/OTcLZmBgeaSPatnVq9EidjZMs//EmySLJKbpRkaK3SmOJ8eUADo0tQAe1QrRfJpWUFD4iHDnaOlEQjcvlumep9r+T3uioMTbwmistfto423uaa/5OCnCECXB0FOAAMAA26GQB4CDiQWQDsMF5QAbnEHIILdru0bubFUwBHE6RuJRm6tV6OBLcSRhmF5S0xD4fe4VQHp2RtGHDBgt8uZNFVSjpLO5HIfhWTXx4jQDGGrwMMnDoUEU0A2CRVkFjXAzgWC4BQArVCrwWmvRcB4Ss1DapURWL6NXNdu/f7/81j85F2r5juwV+8oHNP7+sRQuIkhJF7QVdaTAuAA9EOigaB2jQwQYPaIyUTrDGW4D2F2g8BWpLsTgGytdigAbOHNb5mKPxlKLxOEv3LTi/pEU/caOlLZhpBw4f8f8V5zZt27HD4r/72LLbVLLosj6bL45y9IvmnJQynr7NNxSmW/0o8LD/bu3fonmsc6sv0z1S5DsFNH5532fH3/RZgXQUXaxYlZzOVdt0H2lX20izEqhJa1/PYvt+5EST/gpX2e7duy0tKclmjB1rn3bqZB2aNrU7S5X6LWXKjWwAOgAXgAz0NHqZcyzIS6E4K9wT0QBsADRIr2Lb8N/4mho1bFDPnrb/xzO/WP6vJNLpsqKCLfiW1g5ISBeY2C2gSjrLSgxAGX4btb9WQJU0lwKNoQjNzR66d7AMyUWawzSJAGh8LgZYTNP5YACyrgVq3JImiTzof+mlFjljhh3zAN85TweowRo0yL6oV9+p6ZkjILuTjobtNIY0lkjRY2X6TIGJ1ZJlgImtLSWTSKOSfZEC0JD8Xy4mOgLIXY7DREAlX/s4roYK5A4TR97X1FKn9LLNp3GR4ZMCHCECHA8LcBDBAEQAKkiZIr0KoUY9B4XgABL2EYLcwzkYoUdeKMVoFIqzsBALDIH4h5QuZnPefMV27vRWzPTozKJDx49bzOQJFnRJU2dhvyQJgTRN+iwpkJXkVQIyZNTQCpfzdJ8CaJA+xT3kYa6TElqrib9cxzkyHpdW13kZkiv02Yj7brLsxASvYUIRoLSYGBvX7gYnf3uWQAMrh5MmNUxMSgUGiNupBi9XoMZamAAri0FFa+ws0PFonSfVBbmJLIU/17mRUiLzde8YjbspGpdZUkI7bpSCuq+FhQ0bYtt3nfsrQjODVq/ItKi3H7KEOiUtSfMsXnMMgxCwQZrUjpukpKnVEGDYLeCxXSCC57RVTBRjpwDIwScEODr5bJ8AyQaBjjWXS+HjvRboWKd9Ol9t0vmNVwqk3FDJYl9/yNJCF9j+I6fPYbZlyxb7oXt36yAdfE2FCg54oIMUdRdufUYnjamPNbZe13h6Q/vdNCb6a8vq1VynMxXF4gAMAIdbxwET3QCANPUfX1q6tL321FO2dNky/1/gkUubN2+y+e+9amOqlHPWftmgsbFDY4dUyRV4nbXd0qrQEFyncceibuPKFL4HWuAGaR/Hwldi5jItrwP0ngLFtDeNE1Ms3q9hQ5s7YIDt9QBfkaE1BQU25OWX7YuyZZ16Pmr3SJdy6jY0lmj1vVTjK09gg+NNurZLcok0K1p/b9A4XCF7A1BC1G2zzq3SMauTrxAISdX5cOmI5ZJjmz6oYUmj3rf81Xn282lIrzgpwBEqwHH3ZZc54VhSqnpL+fXTZCNyAcAg2gGwAIy4x9RsdBQDQkizItLBiqUoSbYfiFl1923x9w89aKuWLvX/mkce/f2ETyk9JtYWtL/F0s8rbis1WSkOpwg8SkoiSYoBsLHifLEMG847bXAFPjhPW9wNF2rSS0Csw9Ogc4CNAhlAOyQMstrUsugf+tv+g4cKf9Cjc5r2HfjRAr/pZ6Nq1bTpknkTZRiOFQMwSK2iSxURD7ybdKYiqoGXfgFeT8lbQAhKCLDxlphU1W90H/eMkSGDTO0pZbJeRvTh9oVdTaI1JkfUr2czP/vM1q5Zc86n7VEHmBQ42xZ3uMyp2aBGY7WMP0DF9naai1LIq6SklzfVPGwppSwFTqcqWuauFa+X8Yji3tZW94tZwwPQsa5NoTLfpO1aAZc1pM5ou5Y6D31/ooBd7ND+tmnjplPefpLIxtDeva19nTpOHQbgAaaFLbUWcA+9/2DJF1r5Uu8TIoA6V/LpK40Z9DCOQtKcW4qJcFAkTncqulCRQuUCEc7TxeqJNm2crIafPc/6v9CR48dtybTxNqZZI2euxsuI2ybgybobpE6tFOCgnekGjY/1fsCRXUtzXPOUSMZcbWn8wBwmgoEMILKxkPnuBx4zdX5g1ao25dNPnaidR0WHWBoiNTraxt7a1gZoLJB2u0DynUUjt0s2Hf6HxtstGlOyOdJwXMoe2Sa5tV+yzZH5N8mu0Dna6hIFKRAQ4XipbI41yD2NTdZ+ydf5nz+WXPygsIPV6mXLT7ncOinAER8VZc9fd13harl6AHQDidJDeFXHABCABoADwUZ0g3OADWo42Kd4DcBBkVQ/Pch+mlwsdgMTVuzWqpVFBgae8n/aI4/+DB2UYkkODra57e+0uIolbQ3ggVzIGlIyZTT2pSCyNeGpxSBlykmR0paIB61vSZuibqNAQIPoBilVXAecbJaxs+G6chb78ctWkJfn1W4UEeI9L8/JsSkd7rO5pQtXDSY1ii40GCOkWBHBmKZrQQIZIZUKwQTtb4mC0MUGeYmDprdk6CjdR4H5txqLb+v6h9qfwjjEyJGCmSnFwveTEz64WlWb8PxzTqe1n8/xaNr2nbstfnA3y76xmq2Wntp+s8/23SmdJYWdozmcprkI5+gZ0TWMld4LBB7yZDQCIpwohkAEwGItYET76wU6SL0incqNblBIvlbXNui+VRcKdFxWw2I7P2PZMRG2/xSlse0/cMCGf/+93duokdMR0mkjr3f9jd41796NkM3SWAivLLkk2ZMoGUMNy2SB1C8YNxo/fXTvo9pnxXEiHRSIuwvzAjzQ61wjLesxAZvxAwbYoUOeI+T35BSKpyZZzNN32qLKxR2HAOOHYvEVGktrL9L4ERcI6OKRhlmsLU6gf5SeP+9otuYqTgPABl3mpuudBOlciDha37dYumVWlfI24aWXLG/VqsIf9qhI0Y+ad/GjBlpM2zo2U3YE0e8pAqXLGxY6TJZrfBG1yNFxNpELjbFNGoNbJbdYwwOAQaSN1CoWAszVPo4SrtG4gOh6lu7/SYDj1/c0fh+uYJEfvSTQsfSUNho5KcCRnpxsb7dvb7cWK2af6Z+PkjE1TArtRT0MgAa1Ga4nhXxRajrcmg3OkXqFV66HhB+pAWM1+UixIsJBqLFLlSo2rls327Nvn/8XPfLo76G9Bw9azKSJNufqKy1ckzNOnCJlDoBIkxGYICMwTcdENQAarLFB5ynW1lguQEJROOlVrNWRq+tEOlbjaRXnydBZfUExS3jiFstOjPMWuyxiRAvEyDEjbWLThjZeco+F+ygWp46D1cUxSuZqfFFgulBycoYMEQADKRgfSHZ+pOsfazyOFgNMiBJTN4e3exRjTkqI9QC4RueqrpwXO338S5a0mR3usdXZGf6/5twkZtTqZbkW+dpDturKkrZB4IBoR4LmZlRVGXWap9lSwoAPOlHtvl2ApL3PdgiYsLLvZqIYUt4sCkj0g5SZTVL0O9oV1nzslhrdeZNYxyzUxXofFGbSHSazSTGLb9/S4n/oZWtXr7LDP/95Fb5rzx4bOWiQ3dm0qQM2PtH4GKnxMEtGaYDGyBTtj9P58TrPStSMJ1JxZuh6uGQS9T40FyBa1kPXcfxRb0mUBCYdi6gH343DEAfhe+XL2bC33rJNXgvc/4/WFqyx2M9etFVXl3UWV6MQd5PeP6ktHOcRydZ42aJzGIAAkDTpCOo1qMsK0/tg3hLJdIrENZ/n6L2wkvhCnY/Su4qqUNzmP3yfLcvI8JyvRZjWry2wuM9fsMzWpS1M8nyq7A50wmLNa1JFqQ1aLxlFQ4w02RUbONY4zCBV+0IBX8m1dNkesdIhdEQkHZQ1iIhuTNB4WyzwcfxdgY43C+VYdutyFv3py/rdNf6/4OTppABHTmamvffgg3ZHiRIOeABkUMMBoGAVUvj/tfce4FmUWf9/KIKAsiJSVLDh6opdWRuCig3sZbGsiAULYAUUFFCKSBEB6b2FFgg9JCGE9F5JIUACodeEFiCEfv7fzyTjf6/3ffe3qIguzH1dJ/Nknpl5Zu77nnPO9z4NawaCj8A1gsY5DkaGxQO3KvJPszozRIClh16wD/W5jxjnj/r/S59y1vO++y1m2TLvRfPaH9Y2bthgIb172OKbG1iU5iZF++L0kibrRc/Riw+oyNCLTC0NXKdIa4uFg+BxLBi4VAE2WKmKFuF2xXFYNjZIKSFtbnyzGy1m+hQ7cNir2Hs+NlIsj23TxgZUruy4U2HZoBbHVCkcAA4CxgkMnyFCkWRFlGw2g7GcSSGOlHJDJfJv9X1fzc8uUmjgvV/r/1HwU13jU33fpuw8CghyDTLeDKt2ofm2b+vUbTiX2+Fjxy1hkb/jWoXwTdP7GSqhvUh9QxB+/gM+tlsgg6KA5Lan8vuBZ31s3+M+tqeZQIWIeA+sHwAP0upSP8WJ/RDoAHxQ0XyzwIhjBQF0SNCTKQbf6cxG1Syi5UMWN3qwrU5NtoJ9Rb/Ikrl1xw4b3KuXPVOvvrNghxfAZI0z4IFsZWM0X5x5Ixqn8UWJmM580X6UWUDITP1Ppi4q1Q/Q/91FX4m66P/eus43+r6TPvdVn0yVMkOcwYTmT1hGQoJndf2XBmTMXb3GAjt9ZMl3XOLEZ5CRahdzoYnGX2OPhQPAsQGAKnJiNwT+F4j/O3V11MfzRaS/JqvcdPaJsHD4iRZq33xtpzd5wBICA72MVOd5O3LipMVqHgQ+frdTXXy75lqEgAXyYZHmVFQNH1ut+eXUFtJ8BPgyL9cIBFNkkuQF0dI74nVcikDvZvGrXc+IRwloZGpu7njBx0528rGSt/T5Xh/bcqv0miY1LWJYbys8Q4v+vwlw5ObmWpc337RHLqjoBKkRk0FQOKtrgAkACL6kWC0AIQSJsx8gAuAAhJBNBdBBZpUOooHqvExWk9SZUyUo+1aqbNPatbVNGzeW/arX/qztqKhg3z7Lz8+3zORkSw0LszSBxRWhoZYpyhCt4P/wcKeS5o6CAuecP2s7fPyErUxKsiUfvGPL61azZM1HrBmxVUUSxml6cQEbUOZlpcAiVsekCIisqScBI4GzBsAhZhCteR0ugQ6FSajH6XzO2yplZOWDdS38x9628zwI4vXa/91waYpYHGDf33ab40rF6meAhEMI5m4URCkerFRj/QAo4IaKJXkE1jQpuXM133Ct+kHzKkbz6ifNQ3gvPJXVU/gsvJcVa1xwIBRWXLLwHf+qTl2b0r+/465zLrddhXssfHAPy252iQMMUtVvQXqfsRytE+DYI3CxpZGAB4HiT/tYkQDIvkf1v8QkW4LKASSsIOK6kC1hjosWcR4bEfC4WeFepf93CrTs03nbJbwddyydR5aYlBsrW9jTd1tMr89t1fyptjYx3HZs3/ZvXReOnDpl2ZmZNqxjJ3ujTp3SehiaHyga47XFEoYLHlnNHAApGq/5MldgYZn4FemWUW6xcDGXIL4j89F8bRdpGygeFSH+FUJf6P84zSsKi/nddZOFzZxhR7wEFj+3w8dP2srkeAv79A2LvuFiS1c/bZKSt1N6y37mieYIIAPfeILFieVA2XOrjDMOYzRuwXpXJwvckRQCQDhHn/1E/pIRgI5Z2jehQQMLmTTJSVTiNa8R27mob18L+2tN2yCgkCo+xGIUVmsyFFKnibiyXU9p3t1dalnbLmIeMk+TBDQAG8R/UI9jyxM+lqXrHHjdx4531haw0Uy8UHMWa9yOu3TeKzdZ3NxpdvAM1On4TYBjlxTGvh062COVKzsBawCLL0UEjWPpwIUKoYgghEny2SUACEHkBDmS7guhSHaGOXoJN+mFLXm+1OzjmIcbXGshY8fYgUOHyn7Za39UQ+yw0rKrsNBWZWVZnABEyPTptmjQIJvzxRfm27q1jW3RwobceacNve5aG3bVVTZcNETUV9S7fn3red111ve++2z0q6/ZvG++sZiAANuh6/2Z2u79+y3ad4otefQBCeKKFishESdhHCNhvEwv+HIJ7QQJ8lSBi1QphiukGPKZY1L1OVfKSL6UC2I3EjWnIwAaAA6dh5UjTefkCYysuPpCC2z/rq1be+bMll7772wFegd8O3exUTWqW7DmVrSUE1auyFhDIOlk8UIUSxZo4JvwUSzC7fT929qykNNV82uo5uD7mqNYk9tr/0jNO1LkkjkQvuzWPsJ1law4uK86KcpvvdUW+fuf89nR8lavsohOr1n+AxUdQRyn9zBUyjbuVYlXSGBLUO9vLpAhwVvQVJ8FQnAx2IJlQ+AiWeMCZUuJxBc6S1ssHetv1rm3C3BI8dwhEIhl5JAE/y4BGSrKr9Zv4VudeVWp7/RaViLvq2zJT15ry95/xUKnTLbVq9fYoaPHnOQU+yXvstPTLOinITa62cM2sFoVB4xOEf8gSxkxP9RqwbWOuA1iABhPP/GbwIt0HABDxy3Tsy0Tv8FtLFrKBsUPw0WR4lNUXSeJQJyePVYgA+A1XueN1W+MuLa2ze7f74ytbp4LjQW1RP+pFvdWU8u78wLbpPmwVkBy532ltEfzpEAAk2BcZ4y1xcqRpTGnWFvmlaUJH/zVx4HqY6ySAMW5el+X6v8gvb+z9D477o41atjMr7s6C3Ne85rbyCC1oN17FnF5VVsmfWS65stPmke9NYfG6P0NE2+ikCnxZ8RV42q1QnMPy4ZbjwPAAajA/XNDE+nbncSrPhQ/Eg+DP5E8o+Ax8bCHxffuKWcRbzazjLjY3xzP8ZsAx2Gh7rH9+lmL6tUdiwWrZsRkYMkAbGD1QOixyoZ5H0GHYHOL/rkFAFmtY5UNpE/FzSAxPvJUJ6iDePkWVK1g81s+b2tWeun4znTDTI6CQSaXA4ePSMgViw7Ynr27bVP+OstKSbHYpUsteNo0WzBkiPl362bTPvjAJrz0kg1t2tS+b9jQ+tSpYwMrVHCUIZSiqSKCX31FAEZWbzAZk+ITgQi4RDhyPKZ93781sMWftrOMyAgrKv5j6wMcOXnKclfm2JKuX9mSG6+2JL3AKRIQxGjESnhj2QBwRABA9H8CPvIS2iv1EmOxcLNRkR6XWA0sHlFlIIOK4oATJ4uVaMVl5Syw+SOWvDzMUTC8dn433sW02Dib0eJRW1azvKNU4j5FICmWDbd6OG5RAAbi4wAZuKzCe+GpLPrwGesyCzrv6f0ao7n3ueYsPJpjOQa3Vvgxi0FkCIRnNytXzto2b27JCQnntAvrkROnLHlZoMW92sjxrydDVYaAQJzeWYhUucRtEAROCsn9Ah57BBrIMpR9tcCGQEmqFEdcEQgox8VqG/EcUji3Cmxg2dircw486WNFT0hw6398qxHiABLO4TMuCyilFG4k9mJY3To26rFmNvfdty2gbVub/+YbNqfZ/Tbnyuo2R/NgrsYSawQKK2AD3gkfda0axO4ARp1aLQIZ32nMP9X/KCMzNAeiWPwQn0pD8dVzOKky9SxYQYLEmybrvI91TebJc1Wq2Pfvvmt53kKI047p5VyXu8bC+na3lCeuKS3oJyBBbQ1id/Y9ra3mDGBjRyMfW6NxXdOgFGzQz8TzEOBL/MYSjcVCjTeKImCRCuJB2hejMQiXvAGIzLj4Apve+nXLzckpuwOvea20iX1ZmnSlsOfudwBEvPhHwmV6l8XDMjQfowUmIqRnJOk7ikxSFDBPlCHelsjigihR+gfB45vFgw6+IX7Vyse2Pyq+Vl/7dT6pwY+wn3ktnpZ3X2WL6P6erc/PL7uLX9d+E+DADSBg1ixrfeONjisVfqWsovEZYQfYQMABKhCAEO5WCEmyquBGBehA4AFKEISY/DEPBerFw7xLNV0UukU3X2Ohvr5OhWevnV5zwcThkhI7eOiQ7d+/33YXFFjB1q22MTfXMuLjLXpJoC0YN8Fm9v/BZnX72gK7tLXsIS/Zym4Pm1/Te6zfzbdYl+uus49q17YO1ao5ZjvAIcQ44ZJBmjbcPUjrOUdECj+qowI+CFpEYSJdIMwVwci+aSKYLgw2WoIuokY5C77/Flv+04+2fccfk/Zv9/59Fu3nZ35PPmFzq1axUAlqgAbAArABuAA0QAR/EyQO4U6VS7yGXuBUCe8UfR+P0NfzkbmKDFYEkRMcnqfj1rDCoOMCG15nYZMne8UtvfZzw4q7dORQm3VtXcfFgrocvDu8b65bFIG+WCoAHFiO4aWAeYA8xHvJPiwgfN9W12ml68CL4bmkyuV8+DW8mUUgsgU6vLlqVRvy/vu2ccO5Hc+x98BBixz7oyU/dIWtkVKIBQIrBe5SawQGyDSFq9QqfUe8BxXGKRhIpd80KY6ZUibz7xAQkZDej9vV46UEuNgtBXTvY/r8oIS4hPUWXSvvBgl/ESl3saCQWQYw42QOE4/BgjX/glLlP0Bbl2/i1z9T4GKKwAPuN6RPhUidTNwGLlUAClIou+NIIPlgHdtHW/YBQAEmFJILFh/DDQyf7ngpJLPFf8lWhaXMrctBgcD2jz5qcRFeAgvawcMllh4eYsvffcHSGla1TVLSdmjsyD5F1qn9LaS0vVQ69lS0p/4B443lg/gdAAfgI15zZ57G1ld9TawGi3GMHS4xBI8T/Esht3TJiJAWD1ha2DKn2rTXvPY/2/6Dhyxq/FBLalzPNml+5QtsbL1LPOZ26SuaP1GaS7E19J5rHpKsgPovxHfES5cmkQXF/wAhpNWlsGmueNQmzdst4l0bBTaw0m4RgN7V3McOaG7v1L6sR2tZxODeVrjn1xck/k2Ag5aTlWVdnnvOARjU2nDBBkIR4YjrFFvAhisoWU2DEQIwEIhsAR2k04VhsvJG6r7vRQP1gi6XAje+akUb+uabln+GAxuJITh05IiTdmzXrl22eeNGW5uTY6tSUy07KcmyRKsyMmzdmjVOutL1a9fZ9m3brKCwwHaJdu76F5Iyj5vZ/4sK2O7cads2b7aNa9fael1zA9ct27q0Ma+U8vUZ4rddcve5lKf7zUlLs5zkZIfSY2MtdN48WyyANnvYMJv8zTc2vkMHG9O6tQ1v3twG3XmnfS+Q2PWa6+yrK+rZd1fUNN/bL7bURypb8k3lLFbMMUAoFyWHVTPGxrVKsYLGKitKC0oNggwfYoAI5n6EJBYNTMJs3Ww4gBJ8z1GecJ1jVQdGO0/CNERCkHgIgq0D/3q5BfToblu2bCkdoLPQjh4/bjkpybasy+cCAdfYUt3XEt0fQXshur8YCeV4zUHARYaExmr1DalwidUAYKRpP5So54jQfMV1CqDhWkE4jkxVBJGvFihJ176QmhfZws8+ta3bd5Tdhde8VtrWrl5t019/xUZfUMF5Vwju/UjEAg78E/7oWod5N7EQAzTcIHCsiASGw085DmDiJvLgHBZ14NMsDsFvsZi4C0C4xPapW9cWDex/zmcH3JCfb8Fd2lvMjdUcSwNF/rYDEiRcARzUr5ihd3WwAAEpZ7HILhAvSBVIoObGBimeAId9Ahd7Hxb4aCKhLwG+TsKdjFYAljQJ9hUS9OECK7g3zRW/AKxsk8K6Qb+BMkqWrKniG6QsDhd/mMNv6rcYTzcuA94K8Rleyr2MEoAYLsJ6jHcALnJudjJkLFvGGbmMjMV1mYxIFIMMEr8iLSseCaSnJ/3tE/q/m/jwsLuvtoCJE+zQGfDZ/m9ve/YVWZL/WEt9+3ZbI9m4TeO+R0oZ8RoADoDEDn1m7F23KidAXGCDgF1cqhxrhxRCrE7j1c/IRLwA8ABYoHEP1ZyKkHxZIbmCv33q49dY1IQRjlLpNa/9u7Z58xaL7N3B8v5+UelCpgiXPTISUl08XO8yCybbxWucCvf6nKt5uFr8iwxWuwRQqIa/XlvAB58PvSqA8YYAisCGkwzjUR8rel37ntf/jTRPmzW0mNnTrehXFjT9zYCDlfNxffvayzVqOEwOUIE7FUwOkIFwZJ9r4UBoIvgQggg/N7YDhohCyz4ACoQg7CRB+5MYIQy1Q716Nq1fPyvYs6fs1/9zOyYipSkKbL4U89XJAhHh4ZYVGGip/v4WNnq0LR4wwGZ262YjyBLzzDPW6/bbrcsVV9gnNWtaG1HbBg3sy/vusy8bN7YvHmlmvV59zeZ88Z6lDWhjyb3bWOSXbSy0YxuL/raNBWv7k67TVfSNqK/oe1FvUQ8R+7u//bb1f/FFG/Lww/aTrjlCNPbBxjahSWMbI5r/dGOLeKmxTXm4sfV/oLF9q++7iDqVbbuKuJevyj5/dddd1qV+ffvyssusg6jNpZdaq+rV7a1q1axtlSr2yQUXWKcKFRylhH4EMGBq7yyaKEGY0czHDrfzsaOaWLFierhvoLQwLignEIoJ44YCgyLjBp+6lguuBzjhN7B6fCsCjPCdS1wT5QjFBoWI3+e4YRKa1BfAx5Bq3AFX17YFPXuclQJHuI5kJiTYwhefsrhaFR3LA25UYQILyytL6dD/WNjIQkXmKbJSrZUSwf9YPwAWpMldqmcI1FwN0jZS5yXrHI4lS1WmPqdL2ECJOidUx/s3e9jSY2K87Gte+1/tiABw8NSp9m2D6x0lcbDm1Sci+Cf8EQsGSqaT4U80SHMOYMK7DQABPLDfXRjgXWPLe+cu6sCfUUjhuYAMjnddclByZ9x5o8XM8rWSY3DQc7NhK89ITLCgls2coldYKw60KHWDovJ4TC0f66V+x/2MfofXAThIM4ylgsJZ2Qjqh0qFNSuJuM6kXKF3XsdECzxQ7Z1EKN00Rsg4+nqyeNwC8YXpl4rX6nMfKZ3wT2RdL/EGl0/DM+GlzAHOw/2Nz3xHHn6sGowbMTiu5ZkxRLaS6pbK4xT1IzskaenZAjyRuchWjqPeBoX9kNHTxH/XPF/V4oe2c4oVnu+t+MgxS1wyy7I/udmKX5aCJsUNlziSB2DhyBPYoKAfRf52AzYEPACca7FkaV5AABIABwpgkHi/m7KYuCy8AAI0N0Kx8GteJUlOpDasYsu6trdNXv977T80bF9rMtMtut0LlnPjBU6WzLTLBCrEl6LEu8ZJN1kmPYXAb4LHSVqxsaH0kmsEOsSnNgqEFD7oY5sElkn7fVCgYq/4X6G2mwSqqSlE/RgsuYXiibvE5/IblbP495vaiujQX1WJ/DcDDn4zJTHRPn78cUeIAShcK4e7egYQaSFygQdKK8oqjM9VZGHogBMEJoIRZZd9HIe7FQyXbc+rr7Y5HTtaSkCArUpLtrWrMy0/L8fWrspQ56dZbnaqrcmIsTURAZY1a5rF/PCDLfnsM5v96qs2relDNv6WW2xM3cvNV4q4b6VKNrZiRftRynj38uUdZs3vwMD5jFKNsAH8wJwR0BD3+CMmK1a4HhBCxBdXA7leQspfgoRjqdZKwSS33gggDCFABVcKLHFthAmrVqxkoeTjloRVIFETAmRKLn4yyaAwuCuV9In7mWvQvygT3C+rVRD9yT3Td44gEyGoEEoIKBT973H5EdM8+KGGv7u2rXwsQYxxuAQeggvhxtj8a8YxtowZ9/ONhGQ/TWhW3FBs3BVSzqMP+Q0EI8+IgoTLB/u4V/oP4etWlOf+vtOzDtc18U9GgfdtcJ0FCwz+nokCmLtYrha3e89Ca1a1BDH/hGqlrlNko8KisUIvMMABdygnxa3GPV2CmRocgJIg3TdAg3sO1f1H6/x0veRkqaLAH1XE4wRACBqnEnmYnjXwqsstdMQwJyjUa177v9qmTZts4Icf2jviUbwzvMe8W7xz1CsiCxHAgBVrMg6N1dzi/eKdx5WGIGJWwSkAN0QE+EdB5V3j3YO/8h5yDu871+I95TdIx7tQ78Cc5x5zwPiJk+euW8ehI0ct2s/X4l5o6BTxc9xiJFgJEifL0GQpiVjjkV/03VwUQwCFvktiQUFCm8Dy7RLOWCtWsMqo9z5MPGKU+AE8zuXHXAMZCe9mH3LRlYfwTng04zS0bMwAf//Kg/nMuDFGwzTuE0RYOxyrseYFmY+QH8gM5BQA43YRhfyQR/VF14kAIcihG0TXi5BRQzTmBJTHvHWPrYgJtmPn8JifTjt24qSlREZY3GeP2b5XytvJf5bOjXzJ+Z33SBkTuMSSQSKBQs2bQsl+YnwyNPaMPyADQJqlz9kCn/jTB2oukX0KsEFsqr/Gi3gOAEe4vluq99r/kQcsJWy5HT/P+99rp9eOap5kxkZa5DtP2cq/XWCbsKxpXhKrtUDzirTfVLon5qjwfs1RAWYWRIjjyhYPW0/ckQAGeuyeZ0q3m8XPirSPWLRcAWaANfOcVOF7BTx2v36BJfz4rm3auKHsLk6//WbAQSs6cMAmSrF/tXZth3mhXJMiF6bqro6juAM42CLwUIxhvBwPE2a/u0XhR2l1LR8orSi2bGHI4wQOxtera9Fv3mmrBzS2rI5NLeLZ+y34iXst/ZO/W943DW3DP+ta5rWVLVovdajOWSzCRcZJNSfCnMlnzJusFsKkYfAoxvyOK7zJ7kJu+yESNKM1eOOkcPpLoRwqRtFPAmW10N8OEcFjmQIJ34rxA7jwg6VqKwWUAF/so6jS30QwfwQRq1QoBaxOUjkY305/MR5M8EvF/OkHlA2IvoBQ+AEd9CurVezjvgEB9BWEgGTlEsEE8TyADY6h1slsMcFVmlSHXvOxw200gZ7T72mCAkb4LY7jfK6PsGPcPtOzTtJEXarJHCeGu7q5j63VBMQ0z5jQf/wGq3OMHddAgEKAIcAiApv9gAzGn898x36+h+h/xodYkIlNm1hadHTZLDvzba/m7ZLvetnCOpfaMvV9sMYgVONHTAkuVLhSRfFZ4w7A4H9ABpaNCI0/IGNZ2fFJOoY4jSyNGwAFFyqsNWSzCtCzMP8cwHFRRVvyz39Ybs7Ksrvwmtf+d8N3PmjuXOvQsOHPiihKZlgdzUPNLQAF7yuKIgHHZCvi/QH8Ax5wyUEZpRbDVJ2HWyP74BUot7x38BesjhC8iPNYVWcRBNePETUutskdO9rW7dvL7urcbLv27LHQn/pYYuNatk4Aggq8e1nFljBOl9I4Qu87i0bwXiddsd71BFwXJLTJNLVFwpw4ECcTjBTLJfoeqy19DC9G+QcwIOsIyCaZCvESAA7GAiAIyJsgQg5QO4Oxhre7sgOwwpZrcM4U8RXS2y4QH0rSPbLYtU7KBNmoGHd+m3OI3flQ1yI24woRoOMmEaAD8MEiWD/9JpWGp9eoYrO7d7XCvb/eR/tcaWvz1lnQJ2/Z5kcrWclLPlbyquaEVCXc57BmsWJMzY09+sx2s/oexQ7feYAobnXMCcBG+uWlgGOJ5MRM9TVynvS3ARo7XKliJVuICQy6vrYtGzrIce/2mtdOt5HQICs+2uLee0IgobwdZBFcfCxRcgLgkSyZgYtfgfga8xT3vhzNzR3S4fZL/yt5V/P1bu27QQBD51HYdKt0PIqZbm+i80SHsHCIJ5JMg5pDuR9eaQlzhmuu/rIkP2cEcNBWZmZa56eespblyjmgwVW0YbaswsMkUZRRXgEiWDNQaGG6/A9jBpiwD4WUFT3+h1GzAkewsas4IxjxgVypl/poK6ExKc9rpeit0ot9QAzh1Nt6JCnTBxup82pIOOjlDtNLTmo68qET+EcRLQLzUPgRtqwSIZAR7Pjr9pNiOVMDlaYBWo1vrzq5UL9DUZU1t/rYIv3WBDGXTQ9KYRfTwcQaKKaCwg/YYlUJCwe1RvCRRcCwn/9Z1QLkjNB98fvOSqXub4oUhwSYlAZ9oO4BUOFaMRA+7pa+col+QiGhf/mePuYeAEyuQoESgVLfVdcMuVmM83VNMjHRtRKUU9Rvo8XsvtHv427Bqidgg99l7BibHvo+kUmniXnqM/Xtl6Lv9LmbnlvPHq5rLNbEDheQmSlhSxHHvnoWwAfjxb2494Mg5J4BNtwT5FpEUIb4H8sIfdLzootsyjffWOEvcKE73YZClxwZaRPvv8/89VuLRIvVB7hEARKwVgTqM/uI6cBlKkCf2cf3TnpbCZBkzS8yVBEwDuDA+oF1JEzfAzQAuUHqi0hAiRSXoIbXWsSUSVZ89M9cgcRrf4a2acsWG/f++zakUiXHAjpTc2qpFMrJAr7uggjvvmtlBMDzLsEvXfBPEUEABzFTvFPwHb6HL/A950LwPnisC1RcC8r3t95qYf7+dvwcT9axfl2+hXzRxrLvquwAjSKCJak0rs8EjA+Xckhf048U2ovS+062KbJTERzMyjarhhTWIjaCsWBBDfkGWGELudkbAQMAmOG61lzxhnm6/hyN70z9/6N4zAfqfxbgXK8BtsTccD4Wkb76foQoRfeGzMuTHNooxZeCYHPEZ1jQYoHrM12rm675V32+VuS6WbHwhQXkC30/Q7+LpWzUffda3LJQx/J7PrcDxYctZNw4i3vkKke3KH6x1N3k0LM+dkR6BfE6ZKMilmOv+p2sVLieoMjhUpcvubpV31N/AwsHfvXoHsslR+eonwEbC9XnEZIXuBGn1ZTcuKGyBX38tq3Lyyu7C6957fRbyYlTlhS8yNJb3WWFAhYbAA7iBbuaiS9ofmJxo/AkLn5rRbhUbdPc3aN5vU0QYLN4BwsWJM/YjLVO+iy68o7HdQxWDY7V/N+hOY91r6Clj8V0edIyk5LL7uD02hkDHKTI9R871tpddZXDaFkZh1GiICMcWYFjRQ4F1s0Hj+KNIg7IcN1rUEph7CilKMAwZc5n5RtBCTj4SS8swVasJhUgHKT0guqKJSSOvuVjJ0TH3hC9qv3qMJhwyqV66dXRh54Rg9Y+Op1gLQQ5AnaWrkc6Oj9t42Aa6uB9L0ipfk/d876Ia74sAaTfIWXYYp0foUFkJYyKtNQNCRFzYeUesAXgwG8WsMH/bBEyKAk8z2gxHn5zrPqFXNwEW0/V7+dIiMXr2lgmXAuR2w+ANEAY/Uu/0l8o6fQZgAOgwO+jdOAe4SodjvVAvxGgSbjnOU0YgJMYZLgEJAAFYMGW38FVqpfAFqCF/d0lvFaqv3C7krZiJ7v62PEu6uNvRQPU3x3Un4C7dj52WGBkm/pokyZmnn4jRMIXawUAAgWH8UMx4tlcsAHxP8/BPTP27jPxHH0ee8xS4+PLZtmZa/sOHLB5PXvaxOrVba5+Z5H6Z7HmFYAC0AEt0T7o5xgNUajGiLgOgtwdoIF7hQQGK1SR6jcsJIAUQEwAislF+l6AbKWOj7ioovm/+YatzfWEitf+cyOWgxo3I/92gy3Q3KJQG5YK3hd4Ae8oPJX3iveIdxjewMID38Ef4AEsZgAgXBcrMl/hxsnKOtYMeBCZj4ZxjIiVdl8RmZOGV6xgvu3a2s6zEE/1Rzbg1Iq4GIt+73Hb8Wh5KxJfdzNPEXQ5T7yMvoV/Y12KEODYKMG+Q4Lada9JkmJJUbcv9D3yjQUmwAWLTFg2kIfsRw68rmOolxIsvhAo3jFdfBcrB2MCb8eagVyE78PTXZ7IghD8HJAI4MDCvl1KRUfd36jLdD/i677VSi0hyCDkDsDjRtHfRQAW4jZYDOM+CTwnRmhgjYttXrevrHD37tIOOY9b/tp8m/fWa7by1vJOcUgy9uxFx5DuUCxFi8BwAsVRwnCnIoYDawYpcMlQtUd6CCvD66TgEQiOzzxF1MgaBNgg89gSvcsUVsyVDrG64QUW/lYLy0pKcFKees1rv6btKTpgkcP6WfLdl9l66ZBbBCD2P6b5qzlKNjwAB+UmUjQnKUS5poySpb+slG64/58CKE9pfusc3KsoZAroIL6Da1FIcL32EQtSJJ133duXWtiYQVZ0qKTsDv5zO2OAg7Zx40Yb8vHH9lbVqs5qDgyTFW2YKGn9KOcP08bKwXeAEsAH/7sr+SjjCFBcdFA4YbJYNkZKcWMVPek6dZ4oWkpfltBYsTpon0BHibanBDJOfiz6qHR1ioJNx98WfaBjpGhj3kzA5YUUiOp8XGWwcmDVGCvlcA5WDTH+GDGIvTpenN5OvqtrPa0BAFhoW6yByJFwWSDhQmXao1KwjwuMFAtwLJPyieIPwABsNBW5pnCYP0Ln51V89Qemc/Ls4xLB71INlgwiP0ipRdDQH67rEYIOAEK/sR+lg/5BAEEoF5DrVoEigpLvuC3pdxYIdO1X/+Sqr0br+uPF8IarT1/T72OJas896LnzhGbzxTAXaYIO03HL1FcACQ2KnfhKoKujqIf6BfDRR6T9p74u/f5U79J9p/qLeqrP1CcRAnoAOkAHxH0BKhhX+oLx5lm4Z+4X0MF3EPu61qtniydOdJSvM9lWZ2WZ74svmn+Fck4cRrD6aKn6IEQEsACAADoAEJHqK6wZxGek6nnIVJVGgJYECClyyUblZLbiHG0BJQANrB/ZmrO5Eiyx2jflqvoWPGGCl9rZa6fdVufk2JQXn7MFVcs5/AFeynvDe4Q1AgI08N7AM1gkQNmE57Cgw7sGgJiquUmwKqlVIcAHVl0ACKvqWEEAHmSOYwUfwEGdAPjjuIebWmpU1DmfovNgyVFLWDjLMt++2faL3++S0rhTSmWahHcH9f016ou76Td9TpYs2SRBvLlRKdgg5e0SAQcWxFi4gU+7AANyrRxsGZfv1MfLxEPCRNPFXwj8h98BFJGRyMOvNR5DNB7ITWQiYwm/ZOxJi8sYRUp52Co5FEP8gJSJjVIgxovXYAXB0wBgQcwgMsldBOQ+kMu4hzn1P/R5ZKM7LCFwyTlf9PE/NSzf8UtDbOGjjWyT62YisECMhgM4/qH+xp9d3+1/uJQKBEDwjd8o5WyzqFC6B4G3FFaj2F+OZGma5ACLBsTYUD8lRPKEquOA2YR/NrbkZUFWctyTC1779Q3unB4dbQEt7rE10vd2iHdt19wkW16OeMMm5qj245JLkc9M6asrNTcTxINS9Xmv9Ngi0U5BgqIXpPe20GfxN+Y7weRk8NsgPgMAKW4tnfqD8hb2eUvLyz599/AzCjho8ZGR9ukDDziMDZcfmC+KJEIRBRlmi+INU8VdCsbaUcwTZRkmjaUDgeq4NokAHmOk6OVJUcaCUczKU+PSlWUyRODmdEgv+PFWUoTf0Xf6fFCds1dMmOCZ4lf1eF9IAW6vTnxI54hBB+tlJ2hrhn4XX2V+C6XXZeY9xYin1hazuMfH0nWNuX/xsdmXqLN1zZMttV8Dt0KDgFvSCaFCSXrH7EQ6Q54Hv1ieEWbPChNbfGh5dq6PMIDhE7vBiiVFmciIQqYmBAt9BsAAbNAvCCHOoT/ZD6igj+grVjVdwME1Cb7mNxBe9DeWojlCpIcFunYLlc7Uc3AsK6Rczx0Df03KYgLIBSZwlzoisLUVpKvnO9ldz6n/MSeXvKl+7qp9/UQCFSd17EmsHV+KOuvzN9pq/6m+pdfZJtBH6lsUIwAHFhcIixUC1AEVIhQm7pv9rqWD/T2qV7eZX39thWewEjkiNSEw0Gbd08gBGMs13gAOwEKA5sUC/S4WCscVirGpWmrVIIsIGaviNc5YM8hQheWD2A+sIOE6lmNIm+sEmUugUOQvTvPNt0J5G/3c85aTmVl6E17z2mk0LHH+/frZj5fVdPgU7wvvD0ABawQr3bhJsQ9rBsT7zUIOwKOHjmFFHlcgrBxYNwAWgBBqOGD9cOo7aDtVWyy8M7Qf6wYghXo5k66pZyFjx9rhczhjldt27y+yuLHf2ermNR2lcosEbqyUxnfVJ7XUF7giDdB7jvtU/q3ikZIRBGTG6J0nroLMMNRWwF12JHxP+z7V/yj/WC6+0nW66/9R2gaLV8SIRyQKJCyVvKF2hssX4d299P8EgRFiLLrpeOLvSAjAohYFchkn0uIGiteQhpegdVLvIgNcWYvsAXwi29iHC9UI3eNobV1r1/gLytu0Vq/bpg2/PAj0XGsHDx+2wOEjLKRRfcebAXc6kgfsEuAgNWixZCAud3hWUIV5n3QKaq1gCUGhW8/CnpS1Q+/7OHVdsjQ2FFjDm4I6KIA7Fg5iNPYkJEn920UWNrC3FR0+/VVir3nt37WNGzZa1Lfv2LbnLrQ9T4kvaF4SP5Ql0LxRcxg+gd4cU6N0DhJfREHKHO3bLn1v9yviaU2kK0ufZdFlt96BAvG4IunU+0S7Nd/3Sg8vEeDYq3ch5Nk7LD1sWdmv/+d2xgHHweJi85Nwat2ggbOyg0KLAo3yjNIME8QflVWW9mLGM4WwVtwh5U0P3V//wxRRqLFqEHvA/9PVKXsBEuqQA3rgbQIBpJwjXRc+tCUoxQIVZFzC+rBVnVqiTsEycfRTKcBSgo930lbA4JhAAoIEZEdQzSIxAVYd+B0UdywCkGPG1nedxZARFN3FpPM0YKf0W4d0jWLRcQ0O7ls60fGBG6bjeTaXyWO6Jr85aQfJCsJ1iF0AjLASiYLNKiOuVMSVYArneywYrnsUq5b0G/u4P/bRn1yL/W7fIoSIPZmla2Eix0JAPw6WwrtFE+PY65oc6mP2AfYAhFwTpX60AFW+nkeSznGdOoXlQoDhhD6f/FrUUc/6bqm72vFPRGWgAjqJVYMtQKWXSODjFOcBOgYJ6GhMUgWmCNJ3/MnVR6yiMrYIVhdouMoS//8r4PiucmWb0KqVbVi3rmyG/faGrSRqxnTz/2sDJ87Cjc1YqO1CbZfo/gAbZA7BusEWMEGgOEHjBIoToxGuz1C0hAnWDlynAMJUHHfcrARSgnQcBRAH1aplc6Q4egGBXvsljVWr7BUrbNiLL1nfihV/jjXDaggAgchoxOIFygzEu+XwMs3lCZqruN6wDzcqzkPJnK25PE9AeIyO4XqAEYJZARqAD1whCWCeLZp8URWb3bWr7dm/v/SmzvGWL14T1vV9y2tc2VnZpvBfX/UVcRBXi77g/df7DuhAqSRL4Rods1JEjY3l4qeLxBcidcxSrB7qQ+TLKO1bIB7PAtN0Ee5UCfV9LFfXiL+yFAQAOH52M9X/I3UccXHzLtKYiJcAQpyYQI0R4ME5Vp976TtAiSsX4O2ATvg8AAdrBuM/UlvcvgbqXPgt86nvlVeY3+DBjrJ9vre9RUW2uFcPi7+zhm2WnhAn3YOMZE7FedyxJSfROQgU36G54QAN6SGbbvOxbIETYnl2S0/Z+2IpUEmRshcrxW6pZAjxG7xTxHKkS0Zg9QhocqclBAZ46dG9dkba7n37bfnI/pbatI5tFD9ijgVLPwm5VPor1gnNXVwAqccBEE4QD8rWnCXGI19zvPgD6c6tpEs/p/lNtj6I+a65vltQAU8fYj92C8wcaikw06K+xftNtsPHTs8D5YwDDtrOXbtsRPfu9kbNmo7Vwg1w5jOr6TBElN5xUs62PqyXVmgKkw2rRKzUsSoPw0U5RpmeqBd2k5DWISn7Rz4uXUEAbRGjQZGmQqwMUpaLpQxvul+dIWZwVC/8ibalCjGxBhCr8tJiS4EHcQfqPPzRYCpDxQz4XawJKPEwbO6RmInOYuZLcLN6Vue+L5LiffT50tWN3bp/Uiguk7IJUMFnF8CBmxLZqMgIgnUDkzbXfEHEMQgG3COcQE0JhB5iRKxMAjAAG9wH1gv6jS373O+xTkBcg3vF0oHgAfAgzFAy6EcEUcTfdZ+ADQEsBBRA723t74OLmlBvhvov/3H1bXsBBIELwMIpAQdcpk4AOgQuTmK5wKoBiCBYHOIYfX+yv6jMjeqkAMapH7Tle4CI+vzgO2KuYroEZS9QH1NZPFa/7a8+Rdgh9LDquOSCjZ+BR/ny9uNTT9nq7Oyy2fXb27FTpyxs9EhbWLumY5kI0b0slxBmGwHIUB9GaRurewVQ4GqFBcQBGvrOyWIlxSFJikWWnm2l5vFazY91UkAoCBir77GALNY5gA1Wl0c++KClREY6vuJe89ovaRSmjAoIsOH33uvwC+YTyiPvCe8PCya4ZmKtANTzHfyzp/6foTnLft41rMwEgmMZma356ScifgzifGoEsMXqS2wbGa5YKBhbuZJNa9/urBbj/CMb72hmYpzFv9/MtjYpZ5ulUC7We91a/JNYiHe1DdK7z8phut75jKvEQwU6nMJvkj/Ex8VLHoTpmPniIwulYMZIqCeIT4QIPED+4h8jxW8maQwIGvfVZ8YSXg9QHK19uL1iTflBfKijjgM8PCi6SnS5iIUs3HaJFWERC4BBvIYTIyJCVvTWGJI+l0D2f00YgLxApvB7H//9HosKCzvvg8Vpe6SwLej6lSXcepHjThUjpWzdLT5O1fiDzaWENS4FFoBMLCAADgpAkhKXMU+TLoG/Oy5WpEjGXQXrBgB0rt7FAI1rnPYhM1LrlbeFb73mBYp77Yw13F7D5s23Cbf91VZo7qZrToZLf04t41NkIyUsgZpB+ZrfAGRCDViAXym+hWXuqHTBQ9IZiwU89mElYRG/UencJ4YDcI27Kfp4xrN1LXzkIAH1A2V38P9uvwvgoOXpJRrw/vv2TrVqDtBgRR8GBwE6UJj99JA7mumBdfP7BRBSpLSxYoeiievA12K8FEZaphd3i8DBCawVUmZPELjcWh0jALBFnVEohflEG/0vdAbT39pQSEzXPNJOii+Ks845PlAK8Bj9P1hbgZMTn4s+1H6dd1idm6HOHyOGAOjg3gBFKPIw+yR19qE3dDyDoW2J0F/Jk2JEGiBWsKZIMHwlxo5AIEAQwIFij7UDoIFVB7CBDy1gg88oAKwqQrhHcTzHIQAAG4AJAI9rweAc975YvaQfXYsM5yOscEEbqj5jJYzPI3Tv68Uok8QQO2o/AultPeN83fc2odPDHdUfZRYMx20KN6kh2jdUNFyfIfWbBsVOlZEubCZQcUrbU/Sp+hMwx3ccC+gAhGAlwa2q+G1NZE12rAPEQCRI2GINSFC/wYBRoBhz7h9B6MZxuP9/U66cDXvyCcvNOnOuSEf1UoYPGmARNS60WPXVMhGuVQAKPgdqS4XxUFEM96x7BYgQ88P9U6uDtLkr9DKv05zNlwBap5c2W4IkmvMk3LGcATbwgZ9QoYLN+OAD23GOB9567fdrWI4XjRxpferVc9yosACzas57QjyGk/5Wcw4wwkIG7pVYDnm/ACTjmY+a1/iP4//vp88EDHMdeNBC8YpoKUuBmt+ADa5DynAAx+QLK9nMth84MXrnS6M+R/z86Rb//M1OFioqkYeofz4Uf4CPDld/xeMOJdDhBP8SMHyXBLTk1H6JVNJPAkYCxSvSJeCp0pspXhGg/33FI6h35AR+i7A6sUAECOitMSGeEHesVjqG+AsyS7lJSBxAofFCXuAyh/suKdgbiUjDDvDA7ZYYQeQSFm8sJ4wzIBQLOnIDmYwV/tFKleyrt9+2DZ47ldMKCnfbgk/bWtbd5Z0YnWyNHSDyUAsBDilf+K+TiWq9xhf3EtypqBhP7Ea69BSCxzdI/0CBS9G8iND7tERjOU9jOk9zJ1TjTypcFMHIBpdYQO8e543l0Gtnp8WGhVnnhg2dJCDU1mFRfYt0wM33aN4JGEeJLxEeQEwGIIL5DQDBokc9toPSianHsbNpqUVjq3RqXEsLHhMf0/5NutZ2nVf4tK71cF0LGSbAceAPBhw0UuX2eeUVa12x4s/ZqFDoUZ5Zue+rly/zTt24QAcv8iIpdiifCEwAx2C9qLn6HtNNicDDcSnFxwEc2h4TujpMjIE6CTero//Qvvd8rEjgg0wdlHHfp32cQwce/kTnSZlGQXZW74k7EPAAfKB0k9Vqg9DbLDEDVg5R4sdJqGRJiHBd66ztO7qOGE+xfpcsFQFSnDkOMAWjd1PfYtngs7vKBIDAtQxhQYC8K+RJhUgVdfqCY+kXAIZr2eAzgAJ3KcAG/eesgIlcszv3imJBn7GCxWf8e+cK1WbcpH69V7+lfnXcr8TwFohRHlBf6IRS1ynco3qIAAw/igQyTo3VdrT26TPk7MdigRXDBSI/ibQf0HGizKqhByu1dAiAnABw6JwjbTW+mmI7BQBJ0cZqUaYYcYZehFT1X5jmwFyNM64djD0gg2cAdOBe8H35cjb56Ra2duWZtXBEjRpqy6/4i5MumZiNeYyHiMJMVIBdoPshNgPAkaq+xJpBwHic/o/SuCXSv1g3pHSsEQGilqp/AS1YREjbjOKGD/z4K66wxT/9ZAdLPD9dr/36tnXbNpvUoYMNuLi6s6CAwoo7Fe5SWCnc9Le8RyiwWDpwlwJ0kCqVla5A8TQ/lFEdz2o3yifnB2tub5NgoXI2oARrCG5azOPp1SrZ7PbtbPPm88PC4bbdUgTDhvQz/+tqWmhNCW4J60AJ6zbiVy3Vf920nVhF77t4QyQrhw0kQ8RvyeZCSsr0+pJp6u9EnUM9j3niHWRYZFxYcGIMia8h5gPXqam6FmADCwduUw1FpK59R/8DIPpzrr6noKBrmeonwpINwOyp74gZAVhiWaEgJPU84KeAUxapkDMADSwlgJTm9evbjHHjrNhzp3La7j37LKRXZ1v/j2q288lSIInrFAG0AA7cpwAVWDC2456i73bi6SBifpDZJ0/6B5YOLGC4s8zVGLC4FqTxxW8+RvKYpDfzGt1s0XPnnvGEKF47v1vs8uXW5qabnIV9LKWJ4j0h4k8xN5bq2uhg1N2g1AOuUtvK5qyTkU0go+AJHyezGpmsdgmMONXHiVfS/sOvSuduXkrsj28uwDFisO37oy0cNPwSk2NjrVuLFtasfHnH/EsnuIDDsSCoQ2ZJWRsjBtlLjBO/fRRNgtx+0IsarQcvfEFKbBfRIN0qijFuUR1EraXQYm0Q0joicFEiOqAO26GOXakXnnLsJ75QJ+GXJtDgBDXjMsQ1UIxxEeJ/ETEgJ3UMaQ4J5IvS71KF8fBr+k0UdF2DrFek2M3Qd1METGD0WDV4Lte07QIOmDmWDtfUzUoUq1RYLkh/SMDfJDGhj3QNwAigAmJ1iv7hOLYAFj6zn+8RLK4lAEHippxlpRMlA/csMoJFX6EJIYa5Q4r+IPUt1xij+z74uZ5lhPoCECGwceorgTLS3NIHuEkJLAAoTgwTqb9PCFg4gIKsVNp3cpz+H6VrYAlRH57AZU10XACOcSE7lRP/wRZwqL4+pq3jZqVr4BK3XhMeSwFBcysFPoh9iJfQJrjczbjDPCAOpXelSjbl9ddswxk0OzsxHNOm2rwG1zh1MmaKWMlFuZoioiAkwePLJbBjdZ8Ao3QpZCnaYtmgyB+ZqthPliooAOVD581X3xN87gIXrjXlrrssISjIjp/nGWC89tsaLi+rMjNtwksv2Yhy5ZxU2gAOZ5FBRDA4/+M25QSFi5xUuCL89hdpnrLlOJRe3jEWQ1j1RlGNwuIsJSrmSh2jc7GazBJNqVbZ5n7V2Qr37i29kfOorV+7zia3/cC+u6SaTZeyGKs+Wi75MECKJItHLOR8p776VO/8p+LnPbV/pGQafU0SkIX6HFTW7/A13GJZcKIq+ET1OQHEuFRFSzkNFD/pqv4mdS3X7qrrIRdJmUuAP8CEdOp9RdRNgtfzHdcg8H+2jvXX7+M+NYLjtA9AiaWc6yGLWPQCxJBtq5HmUHvJZhYGvVba9u4/YJHDe9uGN2raOr0LmVK6WAylmvw+qUoU9CPAFqsXrlROilwpbfi5syW+Y6VAe6rmSLJoscaDYn+LNTZRGt9kFtoEXikkO/+FFpa7alXZL3vNa2emxUVE2Bt33OFYRNGzO4kXfCxe8Y34yXTpMcukuySL31BgeuMNops0r0WA65XSEbcQlyQiwxXzm9S4AG3cCikSuK+l5jlWP8ofvH+lxcwYb4dKTi+hyO8KOGgoWYnR0dbzxRftrSpVnFV6CPchGKGbjQnGiPDjM1YQVmRgzJiF4gQgjhGsPFgP+alID42C67gDtfdxUtMSJI7F40BjdY6Ox3eSAiZOHAfuUx/pGm10nhReFF/iOU79a3wC1EnfC8FRSMkJCifz1T9Fb0h5F8JLlhLvLyUUCwL3DVDAkoFJ2815zv+sHpHznIBxTOIEj0OYvFllmqwJ4KvBd60jWDKIV3HBBkKJfcSPABRQCFC+XaAByABgsDKJPzZpE7FuEMOxWMIL8+3MamKImiBMmJ8kkLCMzL5LQ4071Fg9m7ZH1JdH3lR/vqhn1nMfI7CelLf6zgEcAiYnRacAJ8Rn8Hlo2Wf2qQ+PYyUCrAAwADBstf8EgE6g5ATWEmikSNek77dqjCLUB7G6xxVivgCOHAFErB6L1L+4GPB8zjNdcrH5d+xgO3bsKJtRv72h9scvXmxTBQSwQLjkp35cJAGO1SVF95UlgYHpG6CRrv8dkCFg5Bb4A3gsQ2FQv6P8odhRIZ30uNTiIG5lloT6rGefsbU5OaU/7jWv/YYGWI5ZsMDG3H6bAyYAGg7g0HxjtZyVc6wauEOxj1V0YjgIBIeXwjPYBzDhf/gKi0Dw3UGay+ukXB0QL8UNaKHeRQDHxFqXWsCgQXboyJHSmziPGrxiZWqyjXzxWetSsYL11LsObw2TwF5UT/0sXkCcBDz7k7It8oHaGvHiadHiGVPUr/B3+DkKQC/x5xCdn6DvASPIlLm65ggd5wSLi8bpc7R4TqQI9ysWm5AJLMQhD5CVWLkpEggIQVZ+qd//TIQcYaGKccXtCjdeFsQAGyx8IafY92Lt2uY7ZIgdKv5l1YLP5VZUfNhifIfbmlb1bfXNPrZKusQ26REEje/UFqBBlh+sHGtQ1m6XnBAIzdRcoF4HVg+yhWHdiNPYLxLQmKPxJlA8Xv8TQA7YiK5T2QI7fmwFXlV3r53hlp6UZO2bNXMWvHHxhwegc7M4gqcMiZDQQQM0D6lIDuBgzpKxivS4G3GZ0lwmToOq+riHkv67UPpkkfTiHdKPyc53WHr3ynZ/s+Tgxaed9OB3Bxw0boaVuR/fecdaVavmMF4UaxgjBPMEcLiMEuYM08VNaJwYavItUla/ErCQIpyD6VLo6wiB2x9ISRaQIHPS0dclKNVBe8UYCqRYO0VO1Jl71Tko1Mff0bFvSwHuoMdlFZ+6EQCM9wRWXhHAEGrjGtTyAMAcfk4Mpql+C/OTrkOF3/5lAgVGjg8twXkwboAEVg0Gl/8BH+yDAB6ADrJUYf1AOSBTBQLftWTgIsXzAwrcPuA7+oXvUAogN5iabFTTJKACdE9RUoqTxPxir/dxAtxCNYm4NplRwnFd0iQidSK/M0cMU9qISTO2YwJhuwSi9qo/96nf9mgaECPjBoUDOgAJgI4TOgeQcmqCCBcqXNKwEqkfj9OXxG1AuGhhJQFw8L/AyQkACq5XAB1AioDIHkxxuv/luq9oMeRY3XO2JnpufU16AcVAVvX0jJQH1OsAAB2hSURBVMESxCHX17LwsaPOeGVu5uO0558zv/LlnJobwRLwEbqnNAGMNRIgGzXmBIIDNpJ0f4ANrDEEhRPDQWA46XKJ9wBw4B63VPvJZkUgOpmvcNWaXaWyzXvvXdu0cVPZL3vNa7+tkSp3ydChNrzelY6lAqsg1lKyvwE4cJXC2olyCh+l6Coui7jgAFIA9FhAZgtck8oVAcTCB/xnnvgFLqyHxTPDNN9xCxxz950WvWjReVujgedOD11qox9r6liY4cELxHsJKo5Sf7HQg5wiA1WQ+BeygjTnK6SEzhPv+Fz968bxcf5gjdVS8ZFAgYlx6v+J+n+qtkMYI/GhBeIrxNT4C4yME58BWABUUBaQCSxaISdQINjPuKFQIJOwZLhbrO9uZXO3CC0yCJeq1uXK2ffPPWs5GRllT+k12rETJy0tItjS373TSQSAmzUru44lQ0oXMR2sDDtxPWVuKACQZL0rJBcgAya1N+IAiwKjuFKRICVScyJBsiROW5KmBN7WwCKmTbUSz53Ka2e4YbH84vnnHa8iFsOxbLoL2fAKFiyQGX6an1jpqIifja4jXrZaW2rUbdU8BlTsFDGnca3a9UAp+AZUE7qwTzJieZvHLDMhseyX/3M7K4DDbWvz8mxox472Yd26zkOzmuNaN3Cvgoli9WA1ByaLYr1UL+7G53WLQ6TcSondos+sNBTrtomj2Chl+SgWjC+kPD8hZVbfkcpwsxTGbHUgaO3AC6XAggKAJ78U4ZL1oYCGOuyQAMl+deZudSqBM6TVjRcDWS4Ggll8vpgFq94MEAyffOoADrZYM2DmIEnM1DB1l1hRYj+gA0sHYIRnxZ2B+A3cGRAcPDdbJgTX5/kh+seNJUFIATjcuIbJEkZYW/J0rwT8UHvkyKulk2OZBBzXpv9QPqggjAJC3wYIXEhDsaPqKyqu79QzUymVfgTEFWpfgcDWPoAZ7lCjRMRq6JzjWEWm6LP2YbkAbDgZqbBcYMHA+oFVA3eqsmByxxICMCnLeuWAGO0/ot/f/rQmtsYmWQKagHIsChTJy1a/EytBYb3VesawJ++x1LDlp42gT7cV7tlji7t/bcF1LrZ4QI/GOlVKQJ6QPoBjlYTGGs0fLBnEcOA+lVNb9ydFglS5YRIkUbhC6DwK6LBKsEUv6kp9T8rc+epvyL/mX2xx1y62s6Cg7Je95rXf3rZs3WozPvnEBl18sRNrgRvlLM1JXKHcoHLi4AAd8A74CAsmLEbAF7CwLpGCvFS8hOBxFFl40EDtz7xL/PVZKUdXlroJTn31FVt3nlfHp1hnYsBC63/v3x3BjaVolt7/SeJdFOdbIv6QLJ4RpPd/qvp1jvp1qvgEKWnh71js4cNYpwGJ1MBgHFhUm6ZrLBEfIU3xkovFN/QZUALfd91skQ3uYhTyAaCBHMLKDljkf8YPEOK6T0EADCwbyB+SmLjydcANDSx0ymQr9uLK/ldbvy7Pwj5uaSsbViittyFdY49Axy7JyXSBDaxWDhBpKr1B+yneB7gktShuKYCNaMmvcCl0/hrHYI0nIIUsVsT+RV5Wwea9/pLlelZvr/0ObcvmzfadZMMjF17o6KLwA3RPZAH8yFc8Jly6TLjmMSm5d4jfr5PuQtKDtZrDDqCQflbYXDqidEaANqB7i0A3KcIJNCe8YOszF9ry7z63rVtP3/vkrAIO2i4pXnNHjbKet93mMGEXcLBF6MFQYego4hQ5imsg4Uela1bbiSfAhecdKc0CHhQkWSVEtvtRKcPv+thhrBStBTCeKwUPeaxEqCNJowvAIB3uyfdFbfRZCvphARTiP44JeBxT55JX3c1Z7wavs0V4c3+sGMHYYfwADlaPYOhuZioGl/9JiUt2KkAHrlS4WBHvQTAfq5Bu8SZABc+OkEBokMWKlSq+w3UKgAEo+1bHk3FksZiVvwirBmg092YxQYEr0CiWnCJNhCQxNc7F/E5/uhaZd3SN8KfUP911npgoVVExl+X8zceypGSHaPJNFFhZAMATgMGK4YAGgssFICQd7RQuUaO1j1gOwMOP2k88B5YPERYN5xy+xx2L73vrO1yu+uiaWD3cIHNtqedRIJADyEjRbzvVu0XEduToOdKurmRBX3zyu6TjZNUyOTjIAhvfYclSDgARCVIa1qov0tQHVAuPkaDAlYp7IuYkRQIE6wbVxyEnc5X2YQ3Zqf5cU1/H6n+yWzlgQ+R3z92WsjTISW3qNa+dqQYAz0pJsbHPPG1Dy5V33PkAHdNEpMJ1AsgFJAbqvYePwE/hB1iPcVWcIVC8VPM7QHOYc1B+sYrgbjVF70Ow5v1UzeOxtWtawMABXo0GtcNHjthSv5nW5/57bPiF5ZzYiyXiDZEom+IBsZI336pf4evIEBZ+3AUl+t11gyVRCAUCyYoIKCEzGLEXZBccrn3we87BEwDZAJBw4/jYsh/g4LpIuK5aENYNFsFY2WQRDLn0gq7XkTEWOa6f1aqYX6cOttPLmvd/tn0HD1jY6CGW0OQKK5J6dFB6AhXFidEg8xixGBRQo+hwIW4nkqekHEUmp1whWar3KlzyLEzjirV+xXUCLa/oHMnoOO1feH09Cxkzxg5475TXfod27NgxW7Z4sbW7+25Hn4RnADYoNrpQ+sl6AQi8WtZId84R36JgZbbABtY3QAfuVPulD+8HdEi3BoCgX+4kuZPeAUpRbNecz3r9eksJnGVHT5z+cvBZBxy0YjHuhJAQG/L66/ZJzZo/m4lRklG2WZHDlYgqufHqEFbEHfcc4gMIHsdKIQBxSChru5RuEBrxG2SQOvpm6Wp/kTp0q85dISRHOkLKvB+Swl0sBRfLxvGXRGS20rF71ZEEyfiJkSAkGBwEBMo6TN51oQIQcH/uKhK+cQAMTNWADgAGq0oAEwAH1g0AB3UvCOQLlIAiyI/VRq7NMyKQyByCyR1Qw3eshOF6xb3QBxMk+Ak+i5ISkMdKusAUvqAUmFqtZ6S6KQBrlybOUglA+g8hhVDi2tzrx1KgM15Wv3xQajUKEDNcrWtFS9mn1D0rbKyIkqp4P+lysWgQgyGgQKavQwJyTso0AbtCXWeXQB1l8Hdr314BuaPEwwA2ACTjdR7WEdytsHpg5WArAOLEdohwtToxRtfWmO7SC5AhRoxCT+pZXJjICrXkgTssQS/O7+XKUbB7ty3p9KmFXFLZce+KEphgvgAucIcKkPAHUKSpfxzgoT5PUT9Rh8OpPq7Pydq3RkKI6uLcd6jGlxgOgtF9r7nalo4cYUWHDpX9ote8dubaUb0X0QsW2LDb73DcpMhQRcG+WZqDAZqf8/XOAyZYRIGXwL9QULHWYg3xF19xAIoIn16OI6MVQefEgfQpX97GPPu0ZSUnezUaylrxkaOWGLTElrzazFbcWsHxb2bhJ1h8tI/6k+J7E8vAAws/8HgKBQ4Qz5gqfjFXFFpLvEOK6RLxFj8dO1njRGwIsoX4RWQCSgLuD24sBgtSyBUIWcQWiwVuvbhIsf3ZZUrj+Kqu11W/OVo8yfldfkf7hl9Yyca3bGlZ6ellT+S1/9mY62uysi38o5dt5yPlrEjAAtdjfNixYMRLFqxqIDksvQNXqwIpYfxPfQ4ASZD6OlQyJELjGy6ZwoLePukZByRDk2+rbHPbvG35a89cIVuvee1/tqIDB2zOiBH28dVXOzwft04y5JFtr0i6coEANDFm6IDUDUqU7hut+Zqg7wkhQB/eJKCxkfAEsq9pWyj9ef+zOl/nrn/oQovqSar09WW/eHrtDwEcbtu8ebPNGjjQvm7UyD6oWNFZ7YdBY/nAnEz2j1Qp08c6SEmVMkv8BYDiGMX32ghYPClFWLdf/ILABlVAG+t/gQ5qdOCDvP0OKYNi7E7ArwQC7jI5UqhXCIBgSlopJX2FGEiAGPJICQXMTa77AcwfAOSarbFasJLE/bFFeMPwMVe7LlQADFaXXOsGcR0AECwkvnqWmfoN4il4PlbB3BTBgALABiuPWFUwu4+QwCL9If/jFjWUCaMtPsN515VmvUDJWC5EulWTgWKH2Tfot/QbgCSEFfcJAWa6STHerD4r6SQGKAYZpWNT1R8wRVZiFooxopT4abKVCCDYRPUxVothAmvqywAp3fN0jUT1Z7wmJ/nFiRmhiBVVd3Nv1YQUiDtMIL/OMVLn4l41qOw6up5j9SADluj4yFKrCFaOzZrwCRK6Kbo+sR2Reobgqy6zoH7fWcGePWWz5cw3YEx6dJT5N3/UIi8u78SPADiI21iscSJNbpCUiFj1ERXEARXpusdkCXHS4GIJwf0LVzBAR6b6KErCZrnuf8Flf7F5XTrb1jMY7O41r/3PRuX6uYMG2dDL6zrxFtTcmML7o/cS0OHEaWguw1PgBfAaeBxxHW4NCLJZTdc5KKQADsAGoKP/DTfYshkznAUir/3/jbTaKxMiLa7jy5Z7fxWLEoCAdyM3ZsEb6kt4iyf4Sq746v+oq8QbJGeStMWSzILPAvGUgRob4meQda6rFMoBlgrXsuFaLZBDH4j/P6vjkTeAC0DGK/q/vcbuc13rS1E/8dGxAhozRFhfInQfuAZTewU51P+hhywxMsopEOa1f99Kjp2wxCX+lvrKLY7r8V7pFrub+Ng2ydosjSMWDVKJopjh354nuelk+ZFMJZZvufqcuI0YyQkASobkNJWeI1570NIiwrz+99rv3nDjHtGhg71Zlqyps/j7UukxOwWcY64v1TFJ503NGOY0SRDYEtNBttZ1muv5twmcPFAKOnCpos4QC/QxbzW1FdERduzkL5vHfyjgoJUcPWrpiYk2qXNn63777fZxhQqOIg4TRgGeqw5hRZ2gcTJKHXxawEIPXPK8lFvyAqsDjuJK9Q8BDzEF9gkVmLi/HdP+A1KuN0tBJ7tQjJgwq9MUZVskJj1NW4QsBdpwJcCqgPuBa+EAFKC8YyEgtS2rTggGgAbWDYAF7lKYrSFABoADEEKwOMHjHI8SQMpVwAMuUi6YQbgwEXrqnuZIYcW3DpM75vZYCbH5UhhYjcRHm/vBCoSCsExgAxcKgAv1NnYIWB1qqgkiEEUqYddFC+XCFV49xAQ3CKwRNE5GqWMCBqQL3qjJlK4+xsoxWhNwjK63Qf1GcUXiZo7ouMgGpcIK94xgXYe4BT/1Gylk5zOJJeTIK07u5l26j5J/qt9f10QFDb+tscGdaqjABUHmBI4LcBBAjuWEwo8EYBMTQaxEvK61qGZ1W/T5x7Z+3brffWX1YMkRi/afY4FN7nDqauTohaRQIRXR/fR8c/TMIbonslWt0csIuACYAGKzBLjS1W9ks8J9j/iOdCkY8XUvsMWtX7FVWVneyrDXfvdGQb7pnTra6Jo1HBBBHY3lUnSwiDouU5rDxHWwoANPAHiwwMEKPPwFXoILFsCE49jft04d8+vVy3b/joD/v7nhILl29UoL793BAu6sZ/PV16TLJbtXmgQ49UySxRPCtS9C/GSheMsI8ble6mMWtuDngAj4P2PCAhYEuMBdl0Uutq/pWOpy/Cj+OF3nd9O2rcbqe43rMPGo6eI3BKqTUneueLCfePNMHYdVnAUqVjUBkbjMDbrnHgudNcsDkKfZCvfts6hxgy314Ssdt9kdxDyWgY41komADNfKsQqwoX1rtY/4DdyuWMxLkHzI1vgjJwLvvtGipk3x6jF57ay1rLQ069Gypb1bsZKNlR6zsVFpoDgFq8eLRyzQPM2V3pYnsOFUzBeI3o7L1VMCFtLfKKqNOxXp0rcJdHBMSsubLXGer1Mc9Ze2PxxwuI3gtcSICBstRNb5ttusfaXKDuhg5YgAl/UCDkUCGdulVG/BRKmXf7cefoNechhAsTrooB4FX0tSvOL6UwwIoeMe0gt/VTmbU7G8LalSSgsql7eAi8tbXP3yFla7vA2vUN56li9v3QR4OtWoYZ2uuso6Xn21faxtK9Hb11xjXe+4w75o0sTaiT578EH7qGlT+/zZZ+2bVq2s55tvWk9te4i6i7qIeonGiKa//IKNbfaI9dE53+pcqItzjSbW/aEmNq91E0vr3sTC2jQx38ea2KKnm1j4S03M7/EmNunhJjZGx/TQ8V/cd59907Chjbr2auuhe/paNPXmq2zpPaKmV1tyk8ttaq2q9q6eo6XoDVGbcuUcRYOq7XFS7o/2K1X6iaM4/r36SuCANMJ5ZSiXfPEzJciSbhHzFJiL0AREicH311/CD3ARKHKraM/RdYMk/EKwTIipwoS361ziMhIlAFHet2iy7sQXUGBku8Zo93MCJrqXfI2l44aka1ChO0nXCa1zkS1s+77l5qw6a8r6voMHbfm4MbborpuclLiu5WKxhDvPmqjPxAoRGL5eCgXAgjgTkhIAOgAcOYAPCfuI2hfakteft8zYaG8Vy2tnra3NzTXftm1tWPXqTornCAmSOM3LIM1nCv2RnYoFCncFHZdOgAWpdHmPKQTIeSimX9WuY1O7dbPt27aXXd1r/67t2FVo8bMmWuybTSz3vgucKrwp4nlLxSOmSuHsrb7vqL51YzncuD1ABm5RL4hYwMItiiQkWC6IDeQ7xqrnBeJB4kf4Xs8SfyQYnVg+AOVi8deZ4jkzNMYT9R2LTbjgMq4QMTkAyB+qX2wjnn/eYoOC7PAZzvZ3rrdt27Za6PfdbNktdR3XZYoME/+YIJ0EVxSsHiRdwbKxRv+z6Jeo946UuGSpIj0/GRgjb69jSwf0sYLdHoD32tlrJ6SDxEdG2vdPNjffv1S0PAHjtaJs6TOxV5Zm0SPuCD0NHWeD5jBVxbdrnu99QXr2Sz5OpfGt0ulIoRvTvKHF+U22/b8ylfafBnC4bf+hQ5YaH2/TBw60AS1a2A9169qUalVsTo0LLeiKC215naoWUe9iy7ztL5b093oW9MAdFvLiYxb32cuW1OkVi+/4hiV+97mlDO5uaT91sxUjulnG2O6WPmGQJU6cYKmTJ1nalEmWKsqYNsnWzZ1kq/0mWbz2R0yaZGGTJ1vUvHkWv2yZxYeEWKwoRhQXGmoZiYmWk539M60SsbpIxiOKYjnbMmJlEMIlaPPWrbZm1SrneGh12RbKW5lt69dlW/4G0VrRqmxbK8rN0Xd8L8oVcU52+gpLjYmxZN1PoihJlMZ2aYgliDKCAy1l9iwL0XMsEQWJFo8eZbO+72Mzu3ez5YPUF9M6W/r49y19xGuWOvhVi/vyZYt5/RGLeuZuS3rpLpv38J026K83WL9al1nvGtWtqxSYASgxNS62mRdXsSkXVrIJFSs47hsoKBS3I15hcdnnICno0RKKIVLWSQ9LrY1UTepMCchsUZoEZIoEZUIVH4uSMI3RccnaxuucoOsvt+BundUPeWc8K9V/aqQajZnjb9Mee8wWVK9sSbrvCN1XlO4Vn8ZCvXS7BHLXXy9wIaCRLYGClSNTlCHBQtD78utrWeBn7WxVRobjduE1r53Nlp+31mZ36WzTrrnc8SHHf5yClKTlxJJLoTjcqchgh8WSAqQz9Z2/tv76H2V25C0326wBP9g2zxXwtNvh4ydt9YoUW963s/k+cKP1qFrOARe4RGHBwFWKOEWsShDurgANXKIgLOVYxrGWP6Yx+qeIJCNYJ6Zp/JaJx1AJ3k88k1iMGSKKBuI6Rx0mrPMAiwH6jOscBOD4plIl++Gee2z+4MG2Pj/fTpTdr9d+Wdu6bYeFjhwqGXmbbby7nOVcJUAhWbZasmCX5AJxPACODQIipNIl+Qw1N+IkF5IAhzfWsKAeXznZg7zmtbPdWPhMi4uzSa3ftBl1/+KEFRRKl8m9gbT90tPEX/Kw2IkAFSwMFzzvY3ue9nGymZKdbc3dF1j4aw9Z4ryZ0tF/fd2ePx3gcNvREydsk5hkenCwRU0YbyHDhlvwsBEWM2Wq5QQG2obIMFufEGfrV6ywjXl5tmXTFtsmxX779h22e98BIbCjtv/wEYeKSo7av6uDeD6ohcdOnbTio0fsgPpib1Gx7SrYbdu3bbNtW7Y5/bY5L9c2rsy0TaKN2RmWl5JsGRGRlhi63NKWh9mqsDDLDAiwyIkTLaB/f5v92ac2rWVLm/1IE5t36w0WelM9C72uts2rdYnNql7NpguU+FcoZwsFOCKxXGhSs/qfLQacLiUoUfsS9B2EO1VU/Utt6YvNLW6Gr+0qLCy767Pfjpw8adlpabbwi042X8+1qHoVx51qtV7QgjtLrRt59X1sk7brBTpW8TwSPOFXVLfAJxpb9PhRtk396jWv/VGNLICRUyfZ3Ocet9lX1LDZetfcive4B+LaibWS4HL2U6hy4cXlzf+6Oja39WuWFBRkRQcOll3Na7+kFe4rstAlgda91ZvW+sp69s+KFR0XKQAHFiXca3Gbwh2X2D43yJst/7cCMIjfzBBY9NWWFMbfiXDD+l7gopf4ZT/9D8iYoP8ZWz8RhR1x26XYIyl3+who9PnrX21Sp062IiHhjNcwOh8bGaVWhIdYVJd3bMUT9Wz1rRdYBnF9Ah/rrpEsQC7cLLnwNx9bUacUbITXrmhht11uwZ0/dgCf17z2R7b8/PU2v18/C3riblv194ssS3N26QU+llrbx3Zq7uJOjj6TLxB9/LPSREE7n61kq1pea9E92ltOSpIdPvbbsm3+aQHHvzbAQomUQej0Cqh77fdoTDWE176iItu1c6ft2LzJtuTm2trkREtdvNAiJ4y14B/628LOnWzeO2/Z/FdetqXNH7Kwpnda2F3XW9RNl1tUg1oW0aCOhd9yrUU2uctC27SyWN/JtmHdOin8fw74t3d/kWXExtqC3r3Nr8WTFtb4b5Zy/5UWcUMti72plmXcV9uyH7rKVjS/xaLfedEiRg2zvJUrrfiYNzu99sc3gPP6vDxbPnGizXqrtU1tdLf5Xne1zaxX22ZeUcumXl7LJte73Kb+9Trza3yvLf60rSUsnO+4UJ1ty+K51uBgO3btsrDFi21Q+/bW9rbb7KWqVZ0YQMi1aAAwcKt6T2DhIxFZqoYJUJAmd3pVH6cGFfF+uBVjkeqpY36UcjBGNFfHUGiUGESAI3F9WDkGX1rDht97r/l++aWlREY6fNprZ64h/wjEzQxbYnH9Pre415tYdNMbLPr2uhZ/Ry3JhFqWdH9dC737Wgt6/H5b+sVHlrRovu3cucOL5fPan6IdPFxiK1NTbemQH2z2P563hffcarH3Xm0r7q9t0TfXslDpZ3FPXGkbe99gq/s3s/ihnS0zMsQK9+w9I7LhvwJweO3P3zDXHz11yimQRVDigUOHrOjgQdu3b59t37zZMmOiLW72TIueONaip0yy9OWhtmntWid9259VTQfN7xCwWpmUZInz51jkxHEWpfuPnzHZ0kMWW/6qlba/aL8d/ZMAJa957V8b7xXvIOAjMTjIwiZPstDxY235+HEWMWOapYaH2bZNm+xQSYkHNH6HBg9MTUy0Ub162WdPPGH/uPZae7RyZSdWAxer0QIMZC8kgxSxNIAGCruS7YrkJcQvkjCEJAAUBQwUEJnJOdo3U8R21CUX2+CGN9nYF16wgGHDLG/VKmc8vfb7NWQdgd87t2+1rPhYi5o53aImSy5MH2txflMtNTTENq9f74yD58bmtT9jKzlx0gERuOynBAVYtO9E6WZjLGbKOEtcNMdWr0i0goJdmsNHz6hs8ACH185KY9IS18DqK/UD/psYMXDCvXfn/k+csuMexvDaf1Fz3r+ydw9iPnsg4+w0in6ycBEWEmLjf/zRhr7/gY1+/FGbeMsNNvSSi5y6S9RAIksioAO3KIL4F13gY9P1mSxj8yros/4fUbOGjb75JvN7toUt7fiZhY8ZbRmJCVawd6/jhuy1s9t4h1hwOiIFDiXuv022ec1rWO6YvywWsyXV7e8lGzzA4TWvec1rXvPaWWrFhw/b2jVrLG7pUgsaP8Hm9etnM7t0selt25p/m3dt/nttbEnbNhbSvo35vfeuzWzXzoK7d7cIgZXoqVMsdVmobdiwwbEoe81rXvPaf0vzAIfXvOY1r3nNa39gc9zfBET2Hjjg0B7R7rLtgZISL3bRa17z2n998wCH17zmNa95zWte85rXvOa1360JcDzuoz+PeuSRRx555JFHHnnkkUcenWkysxr/H5nBqiYQhoqXAAAAAElFTkSuQmCC;" vertex="1" parent="1">
          <mxGeometry x="320" y="100" width="796" height="145" as="geometry" />
        </mxCell>
        <mxCell id="fjJRFZ9o_Kp82EdIhfR--2" value="" style="shape=image;verticalLabelPosition=bottom;labelBackgroundColor=default;verticalAlign=top;aspect=fixed;imageAspect=0;image=data:image/png,iVBORw0KGgoAAAANSUhEUgAAAVAAAAFWCAYAAAA/scXEAAAAAXNSR0IArs4c6QAAAARnQU1BAACxjwv8YQUAAAAJcEhZcwAAFxEAABcRAcom8z8AAMsWSURBVHhe7L0FYF1JeiaaZPftvvcW38tm8zYbnAnMtOSZJJNMcDKZDHW37GZuQ9ttZiaBJUuWzMzMMjOz24wyieEyM7O+9/91zpGuZcmWbbnbVp/v6tc5t7jqVn3nLzhVv6FChQoVKlSoUKFChQoVKlSoUKFChQoVKlSoUKFChQoVKlSoUKFChQoVKlSoUKFChQoVKlSoUKFChQoVKlSoUKFChQoVKlSoUKFChQoVKlSoUKFChQoVKlSoUKFChQoVKlSoUKFChQoVKlSoUKFChQoVKlSoUKFChQoVKlSoUKFChQoVKlSoUKFChQoVKlSoUKFChQoVKlSoUKFChQoVKlSoUKFCRWfA2Z/+xr93ZnXppfnpH/2fspEKFSpUqHgS8OFv/DvXmxnrXVkZDZjyG78lG6tQoUKFiscBP/rR/0HEuQ4f/BXcWZnlsrEKFSpUqHgcTF1/9H/7sjK3Nb77QyTe+SGISO/KVipUqFChoi14s7r8P96szAMg8vR2y0T07R+oBKpChQoVT4Ltzdf+P3fXzNOseXq7ZoLuVQJVoUKFiifB9IvX/tDTNfMKkyddBXmqBKpChQoVT4DtV6/9qa9rZllL8lQJVIUKFSoeA+sbf9El0K1LRYrIM504VQJVoUKFisfAmfXajwNdMxuS7/ygVfJkUQlUhQoVKlrA3jXzp75umeYEkaerFeJUhAlUXQeqQoUKFTJcXb//hr9bF1f8CeTJdrycyZ2VcUX2qkKFChXfXjizMt8NvpXpiz2BPFmYYIloLb6umf8ge28XHrz22n/wvP3D/063vymZqFChQsUrDmdWRs/QW11CYlyzFcJMlzi5CXbLdDveeO3fZO9PhLVb5u/6umUWBt7qctGVlVFF/k8GumYOf/Dha/9BdqJChQoVrx4cXTMHBt7KTITf7tIuzZPIz259I/OXsvcnwpvV5Tuerpn38d5fgsdVI0TAPLOP98QQwBF+w0l2qkKFChWvDhxZr40JvtUFpH0+kTyT7/4AvrcyjbY3Mv5J9v5E1Lz+p//RmZV5kMmz5TpSfh2Uzcl+luxchQoVKl4NuLtm5LA22D7yFK9wNjiyuvxI9t4u2N587S/JX9xPcbQWbkwMGWTUG3/+vd+WvahQoULFyw3qOk9n8gp0ezJ5cnfb1y2z3NXthxmy93bDmdXlF9xtb6l9KsLkTWlx+n7d5S9kLypUqFDxcoI3QvZ0zVjEpOYn8myN1BRh0mvkbnu3Ljdtr2d8Vw7iqWDLyvghhRMLtKGB8oQUEXidOg6qQoWKlxrKRsiSRtke8hSa5wV91p/9bzmIp8ZNKc69eP/RMVAKG2xOBDpNdq5CRWfDv3/tNXWlySuP9I2Qn0ieTGzkzt014yT5+x9yEM8MT7cf/Im3W+YtnjDiWXwed+VXRDkOV9eMfY63/uK/yE5VqHjl8b3vfe+3//RP/3T8n/3Zn20iufTd7373X2UrFa8iWm6E3BppKsL2je+JnZf2yQveOwTm1//yd7xdM7Ip/AukcVb7u2Ue83bNHKCuA1XR2UCE+Q9/8Rd/ASJSIfT9LdlKxauG1jZCbku4S83u6H6r5Zc/+E9yEB0O9P/R/yHfvsz4zT/6oz/6P1lIm/iPLUUx/9GPRF5eireqfvrTn/773//93/+/2kpzRwrHI+ddRQuQ1vl3JPjzP/9zIXSfJVupeJVg6vraH1I3/Gpre3m2FJ5QkpcqreSxUjmIlwKO1zP+locg5K9fC0iD+AsiijKSO/L1EaGGcZPkCt2fItlG9zPo+iVpHZkUxNdOqhT3SErDA07bixY5ngVy1CrSQGWjEuirDuOvMv7AnZVxi7vtTyJPXsoklhp1y5wve39pYHsjs3fo7S4RystakIYlG79wULfrr7kb9jTC3TW+UoMJkFwgghn4ne9857/JQb5wUJzzv//97z+SrhchHA/Fd0KOWkUaqFxUAn2V4Xvne79NxHhNvCrZCmGmCy8v4vWgjq4ZxbL3lwakPQ8mck9FidxZi3ZlZSyUrV44qNL/JTcCRZTG0Jq0JJd0M7pnbe1NOdgXCornqQiU09nePLYUfliQn2Ny1CrSQOWiEuirCvHqZNeMQ9IseuukycKL53kRO7//7nwzI1v2/tLA1TVjbJiIXXlLShpi+AEobzmykxcKqvSCQJVGQNrkNNJKf03XbooQCb1F18/IXX+SEpL99L2e3TNBsX+ZqBLkd4gc9AsDxfcTkjGUhpFPEnI3lK4L6dqo5JHul7bMY1tC7t4m9z+Wo1aRBioXlUBfVTiyMuY8acyTCYmJM/hWZsqZlTFC9vrSgDTNfN4Vit/R57Qq6ebvpDE3EuG/Jzt9YaBK30Sgssb2a9nqsfiTP/mT3yWC6U5+bygkKjekRiKdj2VnLwUoPX9N6Usn0C9kKxXPASpHlUBfRZB29n74rS6px71hJJEnv12UmXC9kdFX9vpSwP3hd/4bpW9+/O0fiqGFdPJUhPcq9XTLtHif8c2o9oIq/UMEStd3ZKt2gfz8F/K/RCFR+aoneeaXEjoalBbWWJsIlIh/oGyl4jlAZaoS6KsG/+t/+TvurMwGXqjeGvGwsDl3if1Enrz/p+z1pYH3ndd+zOTPBNpWHlik8dDMg1N+4zd+S/ba4aBK/1wEqoBIqbQFiX4tQxDtAaVFJdAXACpTlUBfNbizMpY9qevOXWAiKOq2Z/aRvb1UwG/8xm+6srr044mjtt6dZ+H1qvygcHbr8sK6nFTpO4pAv0vhuJVw6P72y/JqH6VFJdAXACpTlUBfJbhfz/wpaZXJtraMY/GyZie004yxsreXFo43X5vAy6oe98opd+XdXTPqTV3//LlfNW0NVOk7hEAZFM5OnrWWScpD378vW/0GL3Oi8P8LCy+Al42fGUpYFM9/5cXusnGroHS8EAKlfPx3Cu91CnsSyVIKdytJKZmtoGsepe8tKo9n2b7wtzIyMv6Aw/7ud787hsdwZfMmUHw/JvvRdJ1BMp3iG0nu/rG9i/7lsvslyUTyv4TTTdctdF1B4RbTfS9y04Wcttn7ITdPJFB+iJL5jyncwSRF5G4aXSfQ9R0eR5edqXjR4LWR1HU/3tbZ7SyslbK9M+u1jbK3lx6urIwtj8sTC2vclKdc2UuHgip3hxEo+Z2iECiFmSL5hWzFGuoGCt9OdjYyf5CZmfnMjYeI4h0Kw8ZhsdD3x76DTW47lECp4f85hTGbwtRweJzn1oTtyI2B3C6ga9PD5Emgh00m+1PCJv9fylYKcR6ma4x/LyUuviezONndIvd/JTt/BBT2H5J9IbmtIWlU/LcUOe0hun5F16G/93u/98iDgMwfIlAKt6tsxQT9e2TG78nfpms0Pa1p4VtI5lGa/qfsTcWLgrdb5i+5u9uWtsZjiax5EolWeX/12v8re3vpwWO6lOYaSdN8NF8svCkJadRGy7sdX9GoAnckgY6Uw3ikQdH3j7nhKA2J7J6VxH6T0ntAaYgUzgMK87GbtJD7DiNQCmc4iV3JS7oo4bc0Y7fkx0XxtmslCD0QfkTuBenI6f2Mzen6OZn7OTwlnpbpkM3/UQTUAkRUvchep/hRwmhL0uOgeG+TPDQxSN8fIlAScXYYmQ0g0bC/dGkZNoscNr/p9h0RqIoXA1dW5u7HaWo8Xhh+q0uST9yUvbwyIO3yAx635Ty0ljfWrPn1U7ofLnvpMFDF7cgufLbSODhMavC/kq2U2XomOxEP2V3kd9pl63aDyCWDwgko6aVwRspWbYLcPzeBcleU/C1X8qfET+FqKU28G9FYMuNlXT3J3USSrXRvaMX9Ygrusfkmv39F4lf8kZ8skn8hiXMYcjg+knMke0mOk1TLZHS3lbHn36TwpilpSEsLD7McI5lPMo7cTKDrdBLuyjOpJdmdHG453T/0oCKzJgJlt3TtTv5WsB/lRQcyN5AcJ/P1ZL+S7neR1LCd7E+ET/YXnjQUo+IZYc/6/p95szI8Ylf3FuSiiFh8npWxV/byyoEeEAce94DgsVJ6OFw828GveVIF7jACJSJZzY2Bw6IGESB5qCtJ9pPTGk6SusI/ka3aDfJXkBaGneSJy6XIzXMTKPlfJhOJQgysUY4ns/8lO3kEZP/7lGceH3UraZbDmCE7aRVcbiSCQMltgmQyyQO5bFNkt4jCe+hkA7L7bYrrHbJ/ZA0uuW8aWpHTHiSzaWT257KTR8BkRm7/htzNpKudro/sB0DhpBMop8vJ8XAcdH+KzD6l6+/LzptA7v8HmY8gex4iYL+Kn6ahChUdCNebGWNT77RNLrwkyNs1M+nu+oN/lr28cvBkZfyrmCBrY4hCHrpIOd/8/t/JXjoEVHk7hEDJL2uYNUo4dF9LDeK/ytYCf/RHf/THZO5R3JD9StmqXeA4yE8l++WGSvfLZavHguJ8LgIlv/3lPCllVE3Xv5Gtnwjy92OSao6bw6Arp6XNcqb0NREoXeMkDjn+GMlTLcsjv10pnBSHJaddT0T7M9m6XWCiJfyJ/LUJlBZBoIrwb0JXEwmn8YmbzFDaBnK62K+cvzNk/MKW7H0rIZb8dM28xu+xtyQVRZJEro6sjCPAy7Hd2rPC2TXzWKKNB4UyQebK6lIiO+8QUKXtEAKlMIbKjUBpSGtlq4dAjWY928sNx0p+fk+2eiLI/XvkTxAh3XP3stWxvpYgt89MoOTvf5NwOoVfEit9/6Fs3W6QHy5nK4chl9M9urY6dkvpS9dAlXh5v82neiGEwvivJGLYRA7LQ2G0q8zaAwrvoTFQur/CZCtbtwe/RX5upaeP5KV5AaNTIPBGly6urhlBHiNsi1h4ksXb7bVPZS+vLNxdM3qIibA2xkLlcdCzfHyI7OW5QRX2uQmUGulPKQyxBlSWZFsNlbUfcis0Iploh8pWTwTFs5vTyEL+zpJRux6Y5PZ5CHSqHJ8S7wDZ6qlBee+npEFOR3fZ6iGQ+UMEyvHS96fS1hnkp0962un7BNmqQ0DhtiTQp14HSn5KOG1yefBeCv8gW6noCBB59n38aZekmWZl6nkneNnLKwveFJpn2/kV1NbyKt6Zz8rweLM6bsaSKnBLAn1btnoi5DV+vMGIU25A7ela/zuyv8xxyY36KptJVm2D3PK+pemTR71lqyeC0vVMBErx8LAET54ocd55njWsvEaTwruthEf3+2Wrh0DxNBGo7E5HZf3/ydbtxW9RGKfYv5znBpKHhlSeF5SuhwiU5A3Zqt2gNPG+ssI/hcW/0euylYqOgCcrc/HjdlziYznoWio7f+VBBLmPtdCW+WRRtG131msddnQCVdqHCJTkcZuJ/BYvHmftktzzTPN19idXfoU8z//hH/7hY08eJbdiTFH2x9rqE8fkyG2e0tAoDu2T4kgHxfFMBMr5JH+8nlUh0Odei0thjUsjDF7H+sgLEhTPQwRK11GyVbtB/v6YwhAPHI6P4ponW3UYKMzn1kDJ38dpdUE9FqQjIY4mzso419YaST66g8dGnVkZT1zK8qrAnZUxoi2Nm83EJiNZXcbLzp8bVGmbCJSFGt0e+s5vtiwiWUH3a+laSnKY5CqJiUQs4mZR/Mr3e9uzKJrc8yyskf3JjXuNbNUqfvCDH/wnalhNmiDdT5et2gUK/5kIlNwNSs8jE6ps9czgtHD5cXh0zzPs/yJbNYHsBYFy3HRNUJk+9eQohcvjxem/6weyVYeB4nhuAuV0cT5l/5zObrKViueF8/U//a/urhmGtpYv8Yy1K0u82vlIJXxV4X6zy7+E3harCh7JLxOo0E67Za6SnT83qNIKAlWEKzOTGl9bE6WxsChm5I9n33kf0Cd2xRUQGc1VwiP/LpI2Jw9YK1HiJHe89OUHslW7QH6eiUDJ7WwljeQn8Md//Md/JFs9Myi836O0mNLC/Vy2agKZpRMoz8L/VLZqNyjs0WlxxIiE/0m26jBQPjqCQD9U0slh0XeVQDsK3qwu36EubbCtDTfkiSWf61cZfyB7eeXheKvLX5BG7Wlr0ownkuihcUp2/tygSvsQgXJF5gr9OJEru5bkAFX43vT9qd/TJ1LkPTojSnx0bbObSu7EO/bsjvwdkI3bDfL/rBrourT8Pss45COgMP8jhVWrlCV9HyRbNYHMHiJQyvNTHxdM/grT0u6he36vvUNB4aoE+jKD1zy6szJjba2N5MkWV9fMuhd5subXDd40hB4albzRcmt55u492fPES4eAKm0TgXIlpgp8ge55Y4zlitD3ZSRzSbLJTXeSfyJCa3MBeTvBb8cc5sYjE8X11iZovv/97/8ZxefjtLEQmTz1KgFK97MS6Ma0xs1a9nNv6PLhhx/+OwqL15G+aAIt5oeOnF8HXb8nW3UYKB8qgb7M8L7V5RdEkG1unCyRTMbNxtf/9D/KXl558KmcLspTWxNJbE4a6G100DnzVGkfmkSi+36y1QsHNZb3lYZD10bqZv5ctmoC2YnXQ2Uyuf87v/M7/1m2ajcojGciUPKzLK1x2/7gD/6g3WtW2wLl8b9RWFolXCLHHrJVEyh9z02gFEf6a7UhirfdC//bCwpXJdCXGa43M7OYNNraQIQnkDxdM85/nadYvmjwxBlp3RdZ02wtz+KhkZX5wPn6jztkSQpV2ocIlK4v/EwjBRTfQ8uEiCg2yVYCPHlEDYoXnCv2k2WrpwLF8awEmsPxyo2bZ+OfegF9S1Ae+F1+L4dLV35/XGzAkQ5K33MTKIX7pZJfuezavTytvaD0qwT6MoM0rTeZNB5HoO6s1y525MLybxqcF3dWxuW2NFDOM3Xh7zZ+8PcdsvECVdqWGmi7F7Z3BCi+dJLirmbTK4P0PYu+C+Kjex+/CipbPRXI77NOIr0jl4kom/b6exworE/T0uGkPD0yrkrmHdGF/3uKq+mFBfpeJFt1GCh8lUBfZnje/OHPxCz7Y7rw1MUv0/z0+TfofVlg++lr/5kI8nZbS7fEGGjXzKv8iqvs5blAlfYbJVCK908oTjHGKcc/RrZiO3FMiDyWt142fmpQmM9KoH9CbsVLAjKZPffxxhRGqTIh1lZ4ZP7cBPraa6/9Z/IrTk5lofyX0/cOHeqiMFUCfZlh7/q9vybSiATaINCQINAMQ+Nbj98P8lVCkN9GysqsEwvmW8kzv/dPeT4vO39uUKX9RgmUQY1mYxqp3GEzXjJEaeHZY04Ta1KPjI+2F+T/mQiUQW7F66NyA489C5kpoLD+isIIK2VN31vdfYjdkTwXgTLI70IuV4pTxEfxdujhihSuSqAvM5xZf/a/SdvytbWkR5xomZURtr/xVBsYvNRwvd2lizsrM9zWsSXy2OhW2flzgyrtN06gFOcvKH7R3SThY5H/gcwGcHpY6Hu7XvdsCxTW8xDor9gP+VfK5zprd7J1u8GvcVJY4tVKOZyaLl26tPo2FbnrEAIlf39NaY8q+SYxfuc73/kz2fq5QXlQCfRlBs9IE1nU8Nnu6SSiCI+NerpmNrrfyGja+fxVh6vr99/goYnHvYnkfjMzT3b+3KBK+40TKC/toYZzVSEXut9HckNJE90/19gj5emZCZRB7neka3J03cETXLL1E8HkSfGuZL9peXpkAb0CsusQAmWQ/8Ut0n6DzJ76qOzW8kthqQT6MkM6vTLj0OPeDZe2eMsokL288qDueyHnt00ClYYtHtk091lBlfYbJ1AGNZyBcvxNwmkic9PzLmCnsJ6LQHk4gfzUK+mTr6cprL+VnbQJ8vcaud2nkASTGV1XyNatgvx0GIFSfL9N8d9qQaK8i34PKtfHLoVje46b00/ySBsjM5VAX3Z4umYUQ9owpFWRt3g72lGTKt806GFwvq0HBk+mEYlGXW933FslVGlfCgLl2WhqPCalIbFwoyezhbKTZwaF9VwEyiD/vCmyvgURBUn4+IsPiWgy6Pr79P1/Uxzfo/uuJLyXgEshCNnvjtZeGEgH+eswAmVQGEziVUra08rhBn2fSvevc5x0/5d0/890/znJQtleHM9B9zzu/tBmx2SnEujLDk9Wlw94y7q2ljLxOKgnK9Pvy/rLDhvb+abgf/2114gg2xzzZWJ1ds24yUMbspfnBlXYv+LKy5VYbmDDZKuvHRT3fJmYlEbJB6s99wJwCo8JtKmhU56faUiASZL8n+dyUhq9cqUwYyRGiodP4RRHVbCdImSeIPPZJE+cCSc3TKAB9kdX3iPzuQiUQWH9MaXpkJKe9PTxPZdPehml2zGBkh0T8EMnc5KZSqAvO1xvZ/wBaWWOtvbI5G6ttLQnY5zs5ZWF683XJvARxm3lU9hlZSyTnXcIqNK21EC/SQLltATT0nKcjJ958kgBExCHx8QnPySe+XC+3/3d3/1P5H8siTgYTSHT1oTtKC88iXPoaUiQ3xqi8AVxycTSdDz080Dej5RPzLzH4Spp53tF0tPOVyI0PvtpA/nho2Qe6uWRe36lV6RTJtmnPtCRwv6M/SrxPUsYKp4AV9fMg229mcPCmhmvB32V34nXf/D3/5cjK+OBeDmglTx6u/Hm0aIL/0xHbrQFqsD/lSotn/qYRY38LarMz73j0LOC4ufjfJsIlBuXbPVc+MM//MP/ReEOoPAGUxxDSDJkq2cGdcP/O6XzYxLe9o/3D9DS1UlXG10r6MobreRRXE+9wzqFydv99aEwhpLw3qnP/QppOohI/2+K420Kew7Fc5qufH6Vg658Zj/f81nwS8lN38fVB8rbH5CbYnJbwkL3T/2+Pfn7DslQinMQycBvsv51WrizMj8X+2C2QiwKuciz060ekfAqwNPttS84D61tY8fC60KdWRkafPij/yZ76XSgBrSQiVMmz3omKdnqZce/ozT/F04vv+v+ih3P+5s8w66kXZ5tf26tX8VLBN/Pv/fbzqxMXbSN5UwsTD6urFdTC8WHr/1nV9eMe/E2tE8WsSt/VuZM2UunAzXe/0mkaVQIlLSSxx79q0KFiqcAddHntzU+yMLaKR997HwzI0f28sqA0p/Hqwna0rB5Uok006Cr2w+fu+v5soK6g/2YOKkbyOTJ44ZPtWmyChUqHgOnmKFu+3ROFh4j9HfL9Hle//5fyd5eepi7Zvwtpdnf1q77LKx9urIy1sleOiN+k0jzoqJ9kiZ6SDZXoUJFR8H5ZubSxx0wxyKfq17m/dVr/6/s7aUFp9HbrUvZ4ybIxEOha6bf1e37nVb7pO77v5HGqbzKyfKRbKVChYqOgqfbn/+JOyvT2darnYpIy30yt+348OUdDOd9P11dM3Y+bliChU8ddXbNmC1765Qg7fNAmvZ5/0kLzVWoUPGM8HTNHM2vb/LMe2uEw+Ihu9S7QqtbKXt76eDKylzN+Whr3JNFLM/Kyqzzd33+oyReVnz3u999hzTORiJRhUAfOeJChQoVHQQ+vsOZlXG+kQjS1QrpKOIjEuXuvKdbxjL0f3k2XH7w4Wv/wZOVsYy77W29XcXCW/jxeK+jA8+A/4bAZ8m3qlESaX6fRM/ddpk87zzLTkcqVKh4Crh+/f0Mf7cuzrYOXlOESZS7yN6umftsbz7/iYrPC+2vv/e/PFmZB1jz5LS1lmYW1ko53Y6sjDmy11cWRJD/QnKdyLHwO9/5zhskmfT9h/R9IF01TJxMoHSfJG30ddmbChUqXiRcXbt8RhpaY1tHHivC3XkmI9Lo7jjezPiZ7P1rh6Pr939O6b37pOEHFrF5Slbmcf0Hr9SC7FZBxDhHeVWP7llCJGJTYUVk7TNX9qJChYqvA66sjPwkdeUf1xVWhLvzRFwJ6tKXBN79wf+Ug3jhYM3X3fW1GRy3vELgscJjt6Sd3nNm/fB/y0G8suA3cogsxVZqTJIthc2JQCPk5pVbu6tCRaeAMytzCWuY7SFR1lZF97lrZq27a5fBnrd/+MJeFdRldfl/KG1DqTtex3GK3fNbSVO68GJ6SpvG9cvvZcrBvOr4LSLKLqRdTiCSPErXChIzC32/S9d11G3/R9mtChUqvm7gww//nfPNjBVMom0dPtdSeOxUvDvfNaOGiDff/2bG9+XgnhvOt157zd8tcxKRZU2cNM4njdMqwiTr75rZYO/a5a/loDod+AiL73znO3/IQsTaac6xUqHilYa0pjJzPs9s88z1kzQ9Fp6oYXLjQ9q8XTN9PObo6dpllPPNH/ydtVvm78pBPxEBcuvs1uXveXkVEfIJ6qr7WJNs61iOlsJu+OUA6rbft3TixfIqVKh4yeF+87WJ1FVOSdpl64TVmjDpJskPr7vkoQBXVkYDEdtJT1bmRt4R3/1m5kRn18zh7m6ZwzxvvjaB7EtcXTM2EemecmVlatgP++UwOKzW4mhNWGPmCSPqtp80vN7l9+VsqFChQsU3A+rOv0daoUEsX3rCbHdLYW2Qlxfx5s2sRXIYrNXyHp2sUYquPwmbsR27YbccT3u0zXThsCJv8276GYv5LHg5+SpUqFDxzcL0q8zvkfZ4kGe929qguL3CxNiatOa2PSK0TiJeJnlvVmabJzOqUKFCxTcK6n73DXbrUsPa4uN2O/o6hLVU3m6PCZTuN+pez3jqo2VVqFCh4muF5Zc/+J++t7oUB7p1cTGRcpf7eTTIpxUmTJ5h54Px3FmZp11vvqa+baNChYpXC/Y3vvfnvq5dpvup68xjmDz7/qS3mJ5VWNvkoQMmTiLrBMlR5xsZ72PKw8fCqlChQsUrBcdbf/F7/q5dBhPRnSGiCzGR8uw5E15715G2FCZM1mwFMRNp8ky8r2tmOZnPdWa99mM5ahUqVKjoPHC90aWLv9sPBrmzuuzwEuFRFzvGWiOTIJMhL01i4WVRTLB8VczYXpmNZ8Ik/wbyf4aIc5qna5efu3/xnU57+JsKFSpUPAQ+jM5L2qLrzdc+Ja0yz5WVsdbdNeMoyVVPVsZdIsdyur/v6ppx20XaqzMrY7vzzYzZpLX292Z1+YVTXcepQoUKFa2D33aSb1WoUKFChQoVKlSoUKFChYrOBKhQoUKFimeCSqAqVKhQ8YxQCVSFChUqnhEqgapQoULFM0IlUBUqVKh4RqgEqkKFChXPiJeLQBtZUvQvSVf6wt9VqFCh4iXFS0egjUjRR+ZOQah8o0KFChUvH14qAlX4MpUgDZRBX1LJRlJGm0WFChUqXhZ8bQSqkOMjFMgGxJesdSKShOvUSdTNmALzzq1IeO1IpJLPR6DkRfiVv6pQoUJFR+GFEygTF5NjS2FzIfSlMU43hPDtMlQP6QXrhC9QM/g9OC/sIbcS+T0LeYqwSVIkrNM+fQgqVKhQ0Ta+sS48k5kgUpnVwlot6nPGwT76C/hLhqB8SBaclw88F+ml+xVkKt+rUKFCRUfg6ydQhTlZZKRCPmgXz4Kp99twDvkQ2tG9YNm3CfGgO93Zk8Fhp7Fk3FYH44G1cF05BYQiKoOqUKGiQ/FCCJS73dJcOiEeQvDOTRj27IT9/EkisoBkztYyoQXvXId28CewDOgGw5xsxI1aMuUQ6PM0XXeZQMUlHoNh1UzU9PoFGgZ/Cu/1q8KJChUqVHQUXgiBJonCEjI72s4eQ9Xgz2Ac2RPVg9+F7dgmYrfEQxqoffdmmPu+g9oRH8N58YgwE75lQmw3yC0756DjVhs0kwcjMH0Y9GM/heHAbuFEhQoVKjoKL6YLL4hPYj77qfOo6vcp4gunwDttDGon90XSYRJ2AkSmuo0LYRv6EcpH94Dz/nVBgCkmQxGOcNVuKF5iOiP0kwbBXzwcDWM+hefCcWGvQoUKFR2FF0ugzITBOBzbN6NuwMdwjx0Ew5BPEbqT1p1OhlG3YiqsA99D7fi+8NZVC29J8t/epUs8YCDm6vlPuiBhtsA8eSj8uYPQMLY7QpU3JMdPjSfHr0KFim8nXtgYaJL+K0uQEE/Cc+4o6kd+ibp3fgLzgqlo9EtjoY1ePbQFQ4hA34F+2ggk3A7hp7VlR4IYSeIcLn3h71JMUSk2MoyRCyZg/4Nb0IzrBW/OQGgm9UPCZiDTdkIKmIT/CTpHKh6lq4R2cLoKFSq+BehwAmVuSRDhxOkTE9QGIWwerrsP/dQJqHr357DMLoTjzB6YF+XDPqw7DKM/gmlNCfFVVLhl2mrJU0xcSRKJmJli2RW7S9G3RoqR404h7rahYXY+zBP6wD7mMxiXU7jxmHDbXgiSFBGG4DpzCA3TcmDbvRNJb1CJVoUKFd9ydDiB8qy5RH70ITJMhVxI+t1EfJIGl6J728oFqHz/p6j98nVYxvdDZG4uqkd+BNe5w7JPiaNakih/F7Tp98J0cAMati5GzGwUdoLr2C4cgmHFAtQP7oVAySToR/VAuPya5Eb8bx84LEaw/Caqh30B28g+KOdhiCunhfnThKVChYrOiY4lUGaxVAKe8tvQbl8Jw+rZ0M2YDE1RNrSrFsFz+SzZkyaYjEE3Mxe2Ub2A7ZvgKiE304Yj4THLAUlk2ZJAhVZI8FdXobL/e9D0fhOakgmIWxqa3PmuX0TFoF6ILZ8J66SB0C2cQdpnhMKSiLktsB0PBiTFJ0Xas2RmWr8a1nF9EJufh+pRPeG5f6kprGd5O+rVgJSv5txJD0W+KncqVKjoIALlhqY0q7C2EtUT+8Aw7H04svvBljsM+pG9YOj+Kxh6vgnd4mlwXz2HmqIJsEweCWxcD83wXnAcLiXfrPeRUICtEqhovo2I2CxoyBsB5wgKd9CnMK2bh1SSR0cBz/5d0I3th9iqmdAN+xiBa0TaBGlhVXpoD4O5kIceYvThMVaOO1pbD+2YkQiWjIZ+eHeKZzni8SjCZMuaduckUC4lLisuaQU8IEOPFXo4JsFDLJ0x3ypUPD06jECVLm/gwRXU9u8Gz5hPYZvQFw2j+0Kb/SUcY7vD3jsLlpEfo25kDxjyhiGymQhpzVwYh32GUBl3s5k84yLA1ghUMpHGMoNlN1A/+gu4J/Wj7n9fBCoeCLfus8dQO/ZLuOZMRvW47tTFLxfum1PYBthzWrxRbQNqCyfAPOZL2Cf2Rm3+GMRsNoq9kSgk1qkJlEevmUJ56MVyehfc1deo9BLyzliPfxCpUPFtQsd04bk9CX6iphXyw3XiAKxrF8G9ZzsR420k3VqE7pxDw4geSCyfjtSOLYju3oLggS2IkfaoGfQRPF8dkwJqbFsDlb6xpknxRKPQzJkCX3ZfGIZ/Acu2jcI2ZKxC3aT+cBWNRvXwT+C59HTrPxNhDzwXDqF+0jAYqctuGvsZKsZ9gkDlNRG+mBqjNDJ5dkYC5RyxjhmNB2Hbshy3P/wpGrYtJwsiUPpBxJ4CnfLBoULF06PjxkCZ7VrR8uIOGzxnd8O4OAd60jT9U8fAmDccjlk5iGxfhdiuNbCNHwDL3GlojATJBzVO+muVQPkLr7Anm0a6apcsgnd8fwRKJqOueCJSQTfgM8OUMxThkglwF49E9ejecBzcjIiunEiX7MVkFutQ3EmVYklRvGFdNdzH98NUkivWqrr6fwLzl++iPudLBMovkDtphJQpVEpZJwJlh8szvdvuPncK2v4fQde3K9zXTpIJ2fMSCC4C8RuoUKGiYyeRGKSdMNEwxcQNOlSTJlg3/CPYx3SHte+H0I8eCM2yQjwY3wf2gnGCQKPLZ0Lfrwd8F7ihSpCojZttCwgDydR78QJqhn9OBNydGno32JcUwLWyGMbh3RFeMx3h3SvgmD4OulGfijWh2qKhMC/Og23tbNKQ58O5eiHcS0tgmzZSLKMy9ukK62ddYSHiNIzuC9uGJYiZ6kVcDIlwWQPmayeCKGwmUOkF3EhDOWonjYZx0jho88cgYZH2JmjkceYUMSiroo/+MipUfOvQ8QRK4FWgTKH+WxdRPvR9BIqoOzy0O7QleYhVVZOLONxXjqB2ABHdoqlI7V8L15Rh0BVSY3XaRBjcPFs20+bvEpUlEwm4Lh1DQ8EgaD77BTRv/T1sQz9HZNlsRHathW/fakT3bUSMuqC+5dPgmjEBtikjYBzXF/rBH8PcKwuG934C3Qf/CG2Pn8A85B2Yc0fCvGU9wjVVFJcUj6R1co44dmmIoTOBsyMJ5TFsQfWC8WiYnQPNrBLULl8CxEhr56GVlEyg3IXvZGWgQsWzoIMIVOoS80f6SlTTGEfMUo/6/KHQ9volHBsXIul3ChepJNknQrBtXY2GAZ/BOXMcoquLUTuUus5nD0pByJIO4Ve+YUoLyWa8c73vyjnop4yHbfggNG5cQ5rtOiLRFYjsXI/Avq0IHt2I6NYFCMzNg33SUJhG9IBx4pcwzsuDdvNS2E/tRaS6DHGvjeLg5fhMJ0qM0qy0RKD0nS+dCEou+eFgO7EFZZN7wXNuL6oKRsB7jYcvCGJnaln7ZA+drAxUqHgWPDuBNjUipcvO9MKNjIxEFy+KqLEOtXmDUfHFz2AoXYrGSICnYJCM8Vw2+QxF4N5/HPUTRpJW+CUswz+GdkkOEvEg2dOHwmk5X6F85SsPyTG1JejDCNc+gGYkaaBzChDeswmh7WsQ375ciGfGGOgGvgPNpP4wrJoNx4WTCBv0lKawHJoEDikuQuQlO0yhRBpsT3+cK+W+M0HZMjBSV4k7E/vAeXwH7Pu2o7p4AuI+q5Rd8QqYLGwgDFWo+Hbj2QlU5pV0iDYmsQx9ScG5cTWswz6Hf34+qof0hOvEXvISRSIZJWLkACQkbFY0zJ8CQ+9foXrMZ/A1PBDmKR6XE3EoLfbhCPmbSIZsHLx7HbUjP0VwUTGCezYiSASa3LkagTm5aBj4BTyHDyDpJi24KZEyyL8Seoo0rSSlLf0jQJZNvuT4Ogs4h8loBHWLZ6JqXgFSFhPqpk2Edc9ayiqvOGAHXACy8HcWFSq+5Xg+DZT+BaqroFu3Bo5LhxGPB0TXmnVCQaArFsE5/HNg3xZ4p45FXcEAJD061kEFgbLGqrRDXtdp6P8J9F9kwXFwq7ARI49iOEByL1FYWstNuw1X3UFD9lDYJw5GdNtq+Havhp8ksX0dTJMHw7ByJrV9Im9yy8I8IPwrIoM16XTy5I8AuWlylub+1UZzRpznj+POuAGI1t6H9/ol3MsegljDfWHHM/QqgapQ8Sieawy0MRaCfs5UaHp2Q/mQt2E7upUaG3WAiai4Ux+uvIfKkT1hmzYUifUzoBn+KQIXpTeDWNMT42rcMAmNTi90UyfA0uun0E0biYTPJ9Eld+PFxAUTrvJhC/GHxngEHupy1o3sDtukgUhtX0nd91K4d22EZ89q6r6vhyZnKBrWMYGGEeNl8I1xiUDT+FiERdKSQJWRT4Zybb55tSENvjQiZtWjKm8saZzbgHgQmgWFqF01h8qdX4Hl8pd/J5VAVah4CM9HoNQVt6xfBPOYXvAUDUHVqD4I1z2gRsk0RfojNTLPpXO4N/oT2AoGEsH1gWHFfCDKI6FkzX1DIfQlmYR+8yLo+/0c+iHvw39OXtIkGq5EoNyYxXsw7J6toj6Yt65A/Uf/Csv7P4djeD84SyYgvHElgru3IrBrDSJMpPMKUU1p892+yL6EZsvvM7Emqui1zdL6p4m4OwtEsROFNhJhrl+AiqLJaAwEEaqrwN0J/eC/dV6UDT9EmohTERUqVAg8Zxeeus6aclSP6y1mt3WjB8C6awMRXEQ0PIXoPLfOoXZ0T1gGvoWa/IFIOEzCexOBMpMRfNfOoWHkZ3CM6Yn6nOFIGHWSBR8BwkIOWWcSSIRh3bcCDR/8PUzdfwXb4mIxq18zdSTqR3yO2OpliO/aRARK6aEuvX3KQPEKqefADsQdBuIBac0jCxNnM5EqhPkwrXYy+hTFzjnylV/Bbeq6e29Ks+3WTWtQMzcXjUEn5Zp/Q8q/IE4mUhYuDxUqVDCemUC58Qkqi1M3fn4BHFMmkJY5BsYV06lrHxGWCdIaqbMsXLoP74Lm49fRMOB9hKofSKbUiqUGSkIBJq0WVEwdBsfUoTCO7gvj/BKknHaORRCYNCMuNeDg3ZvQ9u0K04c/gm/HEnLAbzFRGHY9tCWTYBwxGKltG5DYuQnBJTNhGt8Xho9/Cf1bfw/D8PdgWzcf/qvXkbI7hD/OjwKRJhFPuqS7eLXBjwMuybjfh/KZudCuoV4BPZDihnrUThoJ32lpKVmKdXX+bYQwebJwWahQoYLxXBood4WZHE37tqNhWE+4CoZAOzsHqUCUjUWDa+Q1n+Q2UP8AmiEfwdLjV/BdPC8oif2LJTSiYRJBUjdet2YezON6Ib5xFnTDe0A3NRfRynsUHTd7CSmnE4ZZU2Hr9y60wz6Ev+wUmTIpcKSkFVdWoGpoD/inT0Z02QJoBveGYd1SOHavhbVwKOo//Uc0dM2A8ZOfwDhxAIzrl8K4aytsZ04g6fJQBBycyECadB4ClZCC5eBWlE8ejrhF0vSdB0pRmT2cHmTytoJcBk3EqQiXhQoVKhjPQaDc0eUpCCBi1KA+bxAsvX8J7fgeiBobZCcxaQKI4Ltxnkj2U1j7dIVjzya2FXQnJihSrOkwnTbCd24/6khDDG+eg8j6JTBPHIRK6v4b1s6F69JROM4dRE3xOOiH9kRscQk0o3rBvnsleY2SRit0JuLiKKwH1qBqwNtwkiZrGt4HjToN2ZBdwIPgrStwUpdf/+Xb0H/4c0p3N9hG90DDyI9QNzcfSaeklZJrEs6hIp0HEU0F7mYPgOPYfvE94XWjnnfd376asirn+xHyZFEJVIUKBU9BoEwgUuNhbTAFHueUZtsZwYoyaMf2RP17fwcLkVPSbiZ3TGcxxMz1qCseCwORoW3ccOgWTkMy6Zf0xQSTZ4xEItBI3X1Uj+yJ4KxcJHeVIk7k6Fk0CYZxvaEf3R2GMT1hmToCoXWLkDy4BZ6CEdBPG4OUzyXafZxEnIsUd8K+cwWMPd+G48tusM4pQqMhrbseDSNQfh2ODQtgHP0ljEM+hXvUJ6j6+CfQ7too3MkuJfBt2tdXGrEw6pdNQ+38HDQG/MLId/4kqiYMQlReuiQKM404laVk0vCGChUqGE9FoNI7P/yGDuuekv7ZTKvUda64Cu2Qt6H79JfQ5I2Gef1cONfNREPOMNRP7Ivo9mUILJyFiuGfwX/vuuyLQ+BJIukbEgmYl5O/Mf2R3LIWYSKzyL4NCO9Yg9DWVYhsW4/g/o0I7CW7PesQWV6EmuGfwK8c25Fi2pY0YwT9sM6dAkf/rrAO/BCGaQWI6nlzEE4xEzbHG0BUUw7n/i0wzspHxeQR0J7Yw74FmjiTb5q+vIKgtPMvx/BcPIF7o75AsPKW+J6KRFGzYBp0q2ehMRGRSFJMHNFVzDbR7yyPV6tb2alQ0Yx2EyhTJb/iKE0KcWuka6JlY4qiYckUWMd1h2/OJFgm9YOLtFLvFNIYl89AZMsCYNsSMVaqmTQCgSuXpAknAQqfCC/mscC1cxU0w7ojsnkZfHuWwXtgEfyHl8B/ZBncB1bBu4fIdDuR5471iJYugnnk57Asm0WKEuueHBITgBRquK4cDWP7wT66Dwyj+6E2ezicpw4hKbbOY0JhH1Ke+LXOuNcHXp4l5ViykWxfbTDviXUMTjNq8sbBtoG66vIBfqEHN3ArZzB89yRCFYaKqFChok20m0BZIWG6ieoNcO1YC9f8QrgXFMO9eTHcJ7bCfvUEHIc2wzC2P0Izs5HYsBjO4olEpv3ExsQ1wz5Gw4hPYBv7BbwT+8De69ew9ngTzhnZ8JSugHPjQuhmjocmuw80Iz+GY0YOgjtXInR2OpI3C9B4sxCNt6YierkA4aPzhUYaK92A5LbViC8pRP2Q3nCfkzZl5nSyDqpQo//6NVSN6QPjhO5wTRqMyj4fwnF0p3ArXHDXVLhsRjqHsLzK4PQL3TOVgGXrOtTnTECjxSKZpsLQr5mB+gWT6WkTlgpMeWKkZVz5mmakQsW3Hk+hgQIxlw2akskw9viV2AZO+95PUfveP6HinR/j7gd/j+r3/xHm3m9CO+oTlI/ogfKpY2DdtR6hWxcQrLqJYPlVBM4cg2PdclgmD4W9++swUjimfu/AMu5LeIsnILowD/HVxYjvWInwmXlI3MtH6kE2kvdYJqLx/njg2lTEDyxBvHQzUts3AnvXwT1zIipIy/TdOENplUmUEi135hGsvouaWaOhGfoJKvp0hX3fOjIlO7mLKsAX+fbVB5cCr1xgkbTpQMUV3B/BDxpetcAuUohr76AspyccF/aRCXfRqeREmQgHTVB49eHHjAoVVCNE+0l/6qZVnE6OpxgDJU3u5mVUEEEaSWyr5iF86xy853dTd3AO7FNGw5EzGuZ5edAfWA93xV0kfB7y1UphkmoYdzvgu3MOltXTxVEf+hE9EZqXA+xYgca9GxElgkzcKEKsciISDyY0Ser+BKBsCpInFyC8k7RP0kRT6+cjuigHjuy+qCEt13V6N0UiLbkX47RyEhpDHnhvXoX98lfiYcArBISQA/GzP/LbKwaPWLzE4HRKLwPwcAuPe4qUh/yo4T0+l0xHKihP4JGFY896VE8fh5jPQV+ZbNmGG4Vkr0AhTxYVKpR6Ju1Rwe/18bAXX79dNeSpCDTUUIvyYZ+g5oOfIFp2WTbljjIVnj8I+IJIxHhmXoIoYipPfu+dO9Q8iiqu9J2LWkz2xIMIamphLl2F+lGfwzKmFxLrFiJ6aCWSt2YgWUGk+WAMyVgi0HFEoBOBu1ORPLsAkX2r4FtVjIZR3Unr/QyGER/CNfpT6Ia+D+uOVUi4pUX4nEKxvIlE4QROUSrJ5MmVQLJLt5egmIicyNeXHZLmycTJY9YxujKZOk7uQ+W4fojXVogJdlH+ThsqCybDcXSv7E/OKxeIfKtAKR8WFSqkysGtqBGeYBxagxdR3nibawhXkrS605nxVATKDStw7SJ0hZNhOLQDsZiXmqdEl1xeEimmNTIyFGftpBEov0LJhCpOtSSv3JglnacR4foqaPLHwJU3AtG965G4OgeooG57xVg0lo9FqnwcXScRgRYgfmouInuWQpPTC4ZF0xCrr4d+1QJUD3gf7uEfQz/wXdTnj4L70E5ENNVipvn5IFWYR8DGL1VlkdLJJMpTavzwiOgbcG/8QNgPbiLrMP0eElW6zxxGxeTRiJoN7LEZSp7S8sU5V0SFCqVucNs9cNqK8ZPvo7ZCWhInGvW3pKY8HYHKhZIKhBByWJBI+EUTFW2NGiXfcdMVztiQrmIlTNNX3g2UaJS+NJUx25NfRWsNnD8N7bDuCK6Zj/DRJUjdLAQeEGmWU9e9fDxwLw/Jy0Xw7ycC3bkG+kl9YN84X/jlM3vsp/dCM7k/zAO6wdL/XRgG9UDDxGEwzc6HfctKuA6Wwkvk7yNi9RzZDc/R3XDT1X1kF1wkfPWQeE8fQOD6edK6K5EM8FBEOqR8smYnMsbyUoELmMuU0peKQrtqGcqLc5Hy2ciGewGkefs9eDAzB/pNy4TbJ2VByeZLl1UV3yhCiRQWrK1Dzz51OHksQCZcQ1iNYun8eEoCbS9Y66SL0DBJE/LbETZrEA/xjvRUtGQnhk6U1pjWKpN2K3Q5A+EvGoXI3o2IHV6KRp5MujQb8aszETtHxHpoKQK71iG8axv8i6bjwYhPYDm6hfrqkpYZNzbAsmUeqif0gYnI2DH4U9iHfAz7mB4wUVffOOJTmEbSdXQP6FlGdodhVA8YR/Yk814wj+pFZp+hbsTnqOPzk4onwrZ9A0K1D4iQeAd7JcnKPP/LC9/Vc7gzrj8Cd6V1t8qjyn/zAu5M6IdgzT3xPe0nUKHiiVDqi8OVwKwF9Rg3QY/SUhdZsA2rUopK1LnxggiU9TOpiIM3b8BQMAqmsUROM3Lgv3OBbLkbT2XdgnskH0m41s6Eb3wvRHfzes8tiJVuQWgHEeaeNQhsXQzfWiLRTUsQ27Ee8V0bYZ8zEQ8GvwvtsrmIGUwiFNYOw4ZKuPaVwkDaV8OoPoIUzRSuPbs/nPlD4SwcTjISrinD4codCvtk3nJvABwTB8A14UvYx/aCc9wXcI3vTeT6MapHfwLd2jmImHkxPut3PNIo6d0vIxIeB8oLJkC3mbTMFK+35UpNaU2EUL9yFjT08EFEWoerNAgVKtoD0fuiuq/VxTFzvgaLVhqwZq0ZkSi3fZVAnwtS51EiFeeenaj/6Jcw9/w5Gt76W9T27QrvdWnrNG60rb3Z4jm4EbYxHyK8fQH8u7Ygsn074htXwTJ1PGqGfoiq4e+Jo5ItEwYjunoZGveWIrx8HuqGfooqIj/39bOUAuncJUajz4do9V14LhyAftda1Cyfj6r5Jaiak49Kkur5RahfNh0aIkfDxvkwbVwIw9oFqF9YDM20cdASiRqGfQDb0E9gHPgRaib1he/mccqh9G6POC9dRCZyJMs3A2loQdzAWLoBd/OGIW6vF+bSjCkQrS3Hg4kD4blyTnzn34r9dESqpTCkx2dr4T1LHB2RLhUdC+kXTqCqNog5i7XYstuJRUs08AakN/yYRL8NeEEEKo8PEmIOK4yH90O/bTWM/Nrlx79Abe93EeBF7wleaPPos8p7ZDvMY7ojvGMRwvtJy9yyEqZx/VCRMxSeswcRrr8Nf9lF6BbMRu2wLxFdQd38vbsQ27IM9rzheDD0Y+hWzUC8oUYOkdH8gzLhNcbi4s2jxmiE7qNkRj+82HOUU8NLfygHlL6k34OIphLOg9tgyCZNesAnsPZ/D/WDP4T7zD4OrEmx45xLX76ZJs+xRhAXk0fB8uu4M7ofPOdOUtLi9OHNVjhfSRh3bEHttGw0ymO7TKz8e0nU++xpl5oUh8PrK6T5/5YQR7TEqaz5DbR4kDzxsEvLONP80S0/YznlKl4eSASawvUyLxYt1eHMuRDmzK+Fzck9GpVAOwSsXT7UhBJBuE4cQFWvn6Pus3+GZeVUhCqvIRnjwWfJZdRuQF3RODgnD0d01yZED66Bd8FE1I3rhXCt/KqhjMagH5qFRTCN/hKJbRsR2r0V4V3r4FsxDfqxPVA/tifsuzcRUThlH4R2tkN2JlWRZi8Jhx3WrethHPQpHH26onbIu3Cf4wXo6bTZzgg6GEp6uWIn/EbSrMehYfVcIERERpmINUakau2woapgEqxH5ff9xTNDGo6QHmUcCuc6PeftA8etHIPCH753eUlLqQrh7Gk37tz3IeRz4sGGdSibNgU3FxXAXnMN/lAUew7UY8seI05dcsDu5XFmTkvzRESLmqTiG4ZSS06cd2PpSg3u3I1g1vxKNBj5FWlJhfo2oGMItJVueHMRy3Z8kW+9186icsgHqO2aCfPgt6GhbrR183JYNi0T72nrxgxAcv0SYEcpsG897MUDUD13GGkuXikqClZp6uGKy9St/xihRaRx7tqM8N6tiB/YhlTpcvinjUTDgDdRM2cswlrppE8BOQwxECsGY4Vpm2AyUDbi4GUFvjNHoR38CRw93oR+2OcI3Lgqa0kUFIclwlNuxJcOhThPqi1QAkxUZmWT+iFmkLYV5A1aJO0zBffJg6ibPAIJk7x0iRItPejYXkmvKBz5/mmRQsRYC1/5DXowhnHqogVFJVWknTTg+Fd2BENeGC6chf7gLujPHEDAqkEoHMfxk2asXEOyQos6TQC2yhsoXz0drlM7kbBQT0JoqulQ0qeIiq8b/AvsOWzEms161OnjmLX4Lu7XeCXLb8lP8twEqhCHIA9e88lXthD/lYbYLEq5hioeoH7yIOj7/hye7AFwjhkC66gh8M2eisSG+fDPGQ/P+IHw5YyGa3wP6CZ8jJi2Uvhl/uDmzicrxX0W0ljHw50/gn7NDUhtXA9Pfi4so/rBMrIHXHlfQDvuXZSP7w7HoR1IkIYrqV1SalhLUqiDoaT6UbAp+2MXcbhP7Ydm4Eew9X0LmnGjEamukfwqh68J9yx837GI+72wnj+OIJGMtPq2OZbw3QrcHj0QznNHJQPeJpA3RyEHjREnamdOhGHtSilpbN0kSlrTpTWk29E1zVnEZUN96RrczRmCymUzESNt0+OPw2KOIBKn3yqZQIK03YcRpzrEeSAKp7C4d8/HWQcaqmBcuwDlk4ajZvtG8YJGNEx+m7xTeume60J6rVPx9YH7LFt3N2DrTgsc7gTmLrqNq2VuyfJb8nM8M4Fy+XCTS1JlT3LDIC0nlSBK4krNrCpuuHbzlYmHRFylt5EYkfoG1E8ZA+ekwdQF34DInm2IrpkDzcgPUD3hc9iXzYB5RhG01GU2fPwvsK1bIMbPOG4e6eNRNl4mZV69EM7cfkhunQ/jmF7Q5gyGf+9muHatQv2Y7gjMHwvP7EkUTg9oJg+GY8tiBO9cICKyU1hMn5Q0Wbh9srQJcsQ+kokYLKTtNgx6D9b+H6C+aALC+jrJCe+hqeRfhNoR4HC4DIkyPU5UrZyJm/RQMK6dQUR6m6yoXJx2epjkQbt8kRjb5c50UpxAKuUoUHEVlWP7I1gmLV1SwCG3n4TYDeeLRUK9xo+aeg88Wi1q16+A98wJMdyRYjZsghJ+S1HCYpFKv1HUE/pO9ShhdyNidcAXjGLn9mqUrtfCYKS8MRFzcXAxi3JmUfH1gUfWE6R9VmHPQQuCgRQWLazEmXM+2f7bgWckUPFOkUw0KXjKr8PCG1TEqUaLNqDU7OZGIUQ0ZL7K7gihmzcFsfnXzEV000roBn4Gw6JcJGzc/SR31A30nDoMzae/grHPO4jXVotmxye8S9QHeLashGfcF7BM6I366SMRtyuTRzHoV86GftJAYBcR9NJ58EweDcew7tAP/xjG/GFw7F9PXU4Kk/fBlMMT//mf9PURcIeeY0+Gw9CvWgTDwPdgGvIh6qZlI67XkwsKqSn/LI8JrN3gMieSFO/G0l/ED/+9K2hYPBVlY3pCv6QQltm5qCucgLjNKnwwcQrhuOk30W1chob5xUgFgq2k5mnT14hwKI5jpxyYlF+GvQeqScsUxhL4ykVAV6UUWCSwZbopf28WLjsh4iOZxlIJPKjxY/nyOsyZWwatQdlnQRq/le5VfH1IIUIP7WVr7uPwSSNi9NsvW2bAoSPS2WTfFjwTgXJV5SkJrrb8poth3SxUD+2NhIbXRzJt8XvYvEJSIlmW9KaSjkh1GeqHfYLwihJ4qLtuzM1Gyi1N+iiaatyog2n4lzB/8jrs+3eSufQuPTdOhmfzCji7d0XdmN4I1lwVZmzFriwHSqHt/SEcI/tAO6Y/dGMHwDzkc1j7vQ3HECK+EZ+hfkJ/aKePFxsKu66dF3uUsv/WllgxOH6FvuMuF7Szs2Ee/BGsFG5DwVgEaiskhwSpBKTcizDZ8BnA/gRN8A0FySEKJKKkWV6HZtl01BZnI1wjj/XySgOZiMRXiwGVOYPgOC137Z8CzQMvD0NT58bCZXdx7gppiZG0oRA5jSxswv4VkSyV2qDIw5D2J5DKTbmXhhiovkQaUVPngd3mgPmr4wjWlZGp9Fs0C/9X8aLhDybp9y/H2YsW8eusXuvEjt3yGOi3BM9IoDz+yBRJVTzmg2nRZNR//PfQTh0C372LSEb95IK0pSQRES8TCgbEkRsxr4m6nzrE7HpEdBXwXDoCTdEYmCd+ieTGWWgY9jHcx6RZbakh8ChLVGxFpxnSC86+H8C8eAZpXwGxnzO7SVEctgXTYH39H+Bcu5gMpfWfTH7cZK0UXm23n8GRNxSRiiuI1N6H/9pFmDcuRQOv7yTi8xWMgKd4BIw5/VA7tBdcB/eKbvijTbt1RPW1qMsfAdOoj2AZ8wlqiJC9Zw4jlaJ0UihSg5b+tzfMNiFlTiIWecxZIEGPrQBXXrajizjMj4lFitF5/gjKcwYgbmANuf3gGMQMPYXJXTamcd+Nq7BQ/kL+APx+6SEnoSk1aRAJloXTwqK4a829ArZTWFguQ5ExyU8yFETdhqUonzgI7usXxMQau+L//NBKj0XFi4HD1YiZ82pw7bZ0VM76UivWbTVKHa9vSeE/8xhoUyUlorHuWQ3dgH+DfexHqB/XC7pZk6BZMx/6tQthWjYbxpmToSeC0hcPgaagH7RTBkE7jq5EVtbcoUjsWILwymmoGt8dwfq7cvjSh5tt1FyHqpz+qP7457CuW4LGeJRX3gjbmKUelqGfwvLOPyNEGonw26R5EYGeOoSqd38GI3Xj43atsBegrnC0oRp1SwuJND+Gf9poYM1M2Eb2QF1BLhpDIaX5inieVB/C2kpUFA6FgUjUTXFpKUzLykLEtVWyCw5HIoLnrVvi4fCQyBYEvpXMFAIlk2gQDctmomHdMkmNfVoIAqOySARhP7cXt0f1gWHnZnpWhdhSxNc+sLv2ti4RoyzsRxKRLzbifPi8MG1eiZpV8+mhLXUd2ZXy2GhvqlQ8G0zWFKZOr8btey7xfedBM1as1/Oij28NnplAiaWoMksVNm7SQVM4ApaRPREgjdJBmo5pXG+Yh/eCbXAPWPpT93Zkd3iLxyC0qIC668WIrpqHxOb1iO7fhfChbQjMnwL9lCFIWHVyI5DoRmpAEQTqb8BwaDPCBq14wrEGyi5cBzfB2OPn0AzMQrBMerOGm49EoEnYvzoKTd93qBv/HswHdogwxROShS/JGBxnSBMmItcO/Rz1o3vDfnQ/uXl4+KHtxqikEQgaa1BfPB66oZ/BWzScyLgnGkYPgHnnFoToIcDD7ko4fG0/8TwLOGypBKN2E+6P7wfj+rlUlD4l6+2DCEZKJ29Gcn9hEYx7NtMTgzReMuYcvTgCVX6oZmEC5WFgjpJd8HBLwueD3RGDRhsWaeJcS4+O9sSj4lmhNSaQX1KH8kppF6bDpzxYstKCSPTbU+7PQaBSJeZqzQgZNNDNLUb9iJ7QjfoUuhGfiM04GvgojZwR0BWMRc3I3vDPzUNy7zokSlcjvmYJoltWILF/M4JMoLnDiIz1otozOfKH32ghXVFqLQR+uEUpUo43UHkflaQxuguGiWNAvMdKhRtuPhJ1kJJSfh111PWv/bQr7CcPClthRYnnD1OfCNNro/DuIKwrJz4Mi/AVkaNuA+yCQ5CoNuU0w0Tad90gSlf2MNJsx0Mzog8eTBwG4/YNCNeWozHCmltLcGqkpi/CFGmU5ZnAHjk8CjHog3nHajyY1B+V1BtwXjyElD/96ObHge2TMJsD0Gm9iLis1AOg8qHglbKTYmlPQqU0tT9T7FYR9iOJUkocN29Mw7h/y43pJXdR9sAnXPHQCX+EVxYVHY6ahiiKZmpRq+G3jxpx4pwfcxaa4AvwL9Pe3/jVxrMTqAweh+N1ewKRCEJ1d+G+sB+uU9vhunIEoYa7SFKjS3pcsBzYiYZhn8M3YxR1damrP7Q/SR/SPvMRWTwVdZMHkIYpnd8ugQk0So2VfqAUT1KwxiMJE3Zl3giYxvdBfOca2KYSSRePQ6Obd1bnxk3NjG5493X7zm0kpWgkImkJdtvaT/107U4KoWmBOxGM98Jp1E6h9I3ojnDBOHgKJkM/ajAqRvdHAz1E3Cd3IUJaKQ9HNEMhIk44iVCzWCTbpwN7UnLBYcQR1tfAXLoG5RMGoTJ/GOxn9iMZojLhOB4DqzmG2TPv4+RpY1NSJHqSPlJvQfo8nkjT0ySX1WPB7h+fNlH1SOKRFHbs1GHmrHLYnPI4OFMsd1W44rQKdtUyHfz98XG2hodD4gilMKR0dE48qAqjZI4WejPX4RS+uuqj73VwuKXvL7aH9XLg+QmUCkkUVKtlxYa8AyjPylMX12BA7YDPUfPRP8KydiYiD27DuWMLdIP7IFQ4FtrxRKDyTP7D4KrJjZP+U5c7ePMC6qnLbRrdE/HNCxCkbnxoyyLUDP4Uth3bRLQSgXKsbbaeDgdvEs3CMQqydxvhprTpJg+FeWhv+KaMhHf2ONjzBpCm/hmqxHhxDpx7N5H2exNJn50CadmgJbRavI8FU5lUbpI0hxE3GWDctQL3V89E2MaHy7WNaKwRa9Y2YNmiBgTERhH0QBOl+/Dn8cSZjofT1BGQ2mkKfm8MNy874XWHiDqjSNCDN0V1gFPbPnBAT1/SDPYVpYTcuufFjh16lN3xysNMHZnTlws37wQxe6EeTg/XixSu3fajYNpdmG2t9bA6JzqOQLmW0IUbkqiCoubwPY+S8YhUHK5921Hz1r8RUQ4US5WYZBIOPepyhsFJZubxQxBpkBajS4HISMWRIC3Wd+0rWJcVoObzn8H4xVtILJuD5O6NiO5Yg+S2VQjMyiYN90sEryjvzCtUxk1InlB5gRBlQZ8EkaC0SoEXW8WQsBrgPrwD2oKRMI74CPYJn8M1dQiCRaPgzhsG7dg+qBz3BWryB8GwMAf23WvhunoeEV0Ddb/9lH/uEj0MzsmjDZNNFZHSI64kQqElD6Lby2aNUSTDAYhNVGT3D0My46W9167bYDbxOFdUfB6lz6chUJEaWToIHKQY86a8UF2xfnUUjisH6VkUQpLKgOVxcLuiuHHVCm29X5RTM0TA0m07UGcIYUpRNSZlG1FQWIMGbedeE3nusgfT5zU0ddnvlvupS38XBtu3Zy3ocxNoS3BDElTF9Y7rtFz/PFdOomFwT5g/6QrrxhVkzgRDOpJNA82UYbCN+xLG7OGIEmkwEpEoLKcOwLasGI65ubDlDYe27zuoee9voJ/4BfTTiIxGf4nowhJ4JgyBcXgPWMZ8DONnP4Nm9AAiH2kogNMhNdenawzPAx7WSDbySlEev20mv5TfjtCtr2DeuAj1lGc+SM86qjeluy9skwbCMaEPrKM/hX7MZ0Sqn8OQ3QfaaUOhWzQFhp0r4bhwBJGKW0g5zEhFAxR+S2JlMpQ3BeFMs7XgKdZFJZrjsUFOmfQDtQ7pMZBCxGmG+x6/5cQPAh5C4aX8CmW2RZpxBMtvwrRiAYybVlCvQ/o9ORlcHaQ7RToI8k8rUkNPCdP+HXjAWx0aatnkoXrYEpFYCms312HU6EpMLaxHRW269iQH3E7cuOtFzrR6rNkaR06hBg/KW55k0Llw/IwLs+eb4Q/xb9mIivogps25h2qNtDmQ8gDvzOhwAmWIhsplJ9pII7z3L+DBmC/hmDgIxsEfwH2a13pKjT2uq4R2Yn+4JvSHMXcUYgYdexKv6hmO7MbdD38F8/u/hOvLj9DQuxs1zBlIuUxodGrFRs3mj34tjkj2XzoM1+mtaCDSqerWBYYZ45D0WKUmQP94dvbr+jklrZwrEOlqJMqnOQVk7rYifP867Ee2o2HlTNSTdqrnMhjVF/qRPaEf9Skcoz6BY/jH0A35BLVDP6Hrp0S4X8DC5EsPFe2WJbCd3Y9QVRmSTuqKR+UzaR4Bx61Mq0ifx0HSSaPQb1+FuzPzxZZ+DClfChm3HkbIUI3qyb2hH/op9QY+QF3JaMQcRgqN9VeG+EVk6Ri0bKgppw33iyfDQETKVg9rlQ/D40ugcHYVZi32I7fQip17pIMInyV9ZaSB5ZXosGClFyXzdDBZWj7gOhcOHrdhyXI7L8ggNEJjCqFkbjnulMs7MrX4XTojXgiBchOTGht1YA1VqJjcnzTI0fCXjBNrPUOm++SCm1MSwdo7qB7TE77JA2HNGYOE0SyqrqAb6l4Grp2Hdd50GEumwHJgK2IRp7CP6rWkwfVD3Qf/Bu9JPsZYUrjCtmqYpvZHfdZfwb5+PiWAJ6AkUv96f06OjWNV6IY//PYWn5TJAwoKyF1jGPGACxGzDv5b12A5tAua1XPpITABupwhMIzvD93wXjAN700aaj/Yx/WGkbRtPRGsfvjn0I74AvU5w9CwqBCW/aUIlrGWaqVwmQolSKlp/jwObBs06XFv0jA4T/G2d5RaEcCTCdR9+zrqRn6AxnXzEF1ZgpoR7yFYeUem8BfzC4jflitbU/BUb0yVVM/qhBE/PNsC7+WwfqsRRbPdmLvEj4ULtYgEuSaxp6erM7cfBEkD1VFYDixa3YBwc/F3Suw6oMe6zVbExHMiBbMrglkLq3DjNmug3w68EAIV41E84EYEaFq3EMaRXyBQNA51/brDeWIfNaYQIkQjXDkDFbdRP4oINHsATEQCSZtVNDZp6klCY4JqIr9sSyY8OcAdSdPOtdB+9gZqB30G792bwh1TMofpu3wWerLTd+8K71enJUPxNHya5tARYJLhRsgfiXQ4T6JBs7BqJNLFOZNEAXe2E+EAEi4nwnXVcF46C+eOTbAuKEZD3jDUEonWj/wU5hGfwUMPKFf+UNjzBsM6tg+Vd3dU5g1C/crZ8J47iphJKxGMCLc5ao7vERokc57HCptNRMa70MhEzGAPMoE2f9IhfYuZDKib2BfB+cUIL5qJ2jG9EW1QJgafh1GU1ErxWOxxnL3gwr3yAKIiWEqPnEdpvW0S9Zowahue3JjvVEQweaoRc5Z4UVhSjQbqiip4OI8twJbCgeRq7zEHJhcbMbHAhtL9Uu+ns4J/ia276rF1p1nqbVJ9dXhC1KWvxPmLbfWEOh9eDIHybkSEiLYGleP7wjG2B+qGfwLXwV3UwkJU30gXo0Lncncc2wfjiJ7Uvf8Cmtnj0BhVDm1rvfoxCUWpS6ghEnGP7AHtmH4IKjP3YiKBtKCbV9Awoo84SK5++lik0jdU/sbAOWJdqX3gCvoIuTFiMSQdXnrw1MF18gQsaxZBWzQataN7wUAPKh+RabBoMFzTh8JKhKonjbV20hDolxKZXjiNBHVvFTQRaItEBRMp1BuDCLAmxqQkJ0aQZxMRS7nhbywclrCJ+tFQNB4OEkv2QGjn5iEV8pB/DkfqxD8buJ9IxEh1x+eNY8FyE4bmWDChwIBrV+Qt1KQUECS3x47asHRFNYK8Dd5j4I2mMGelBoWzHJhSosX1W83joEqIraLpR2qE1hBE/ox65MxwExk34H5d555ISVCRrttUjb2HlKVtjQgFY1iyqBYnT0nLBZW60pnxYghULlIHaT+1wz+DZfhHMK4qlhoQT67IBRu6dRUN4/vBNZG0qQHvwnKM3xRS0Erhy0b+smswjOgFHy+gnzpCjHWyJWttfHWRtlY1sCf8uYNRN/ozhA3VItxX7edUCEsRzkMTUaUhGfTA/6AMniN7YV5YgtqxX4gxVM+k/giUTEJgTiGceUOhGfkRqnP6wbR+AUIVN+gJJz2sBAsogRPqDbwg+gEatLxAmsDmSgHKkXNpixTRd7YS1vTg9Fw9At2oHrAN/RR1pB377/H5V+QoToHwlL5wR0JGirQPrGZKGqy2LoTJuXos3JzCxKkW7N5pFObN4HgSqGsIYmrxLVTKb8q0hRCR+9KNeiJAJ/KK9bh4lchPTtfjkqek3RNKYukaPSZOsWJsrg3bd5kRSfCABZdK50SYqsbSlZU4frZ5b4VEtBHr1plx5GjnnjxLxwsaA5UalHHvJhgmfAHbmD6wblst7NiyMZaE7eh+1I76ksjzSxiHvg3D/AIkPF6hqLQFpdEGy+7C2L8XrAPfg3F1IVmkHTVMEUfNNmgXzIKu/4fQzJqIuFfuhr6CaCJQkXMScc/mkn1LsAYfMdTCd+EIjMumo34SPWSonB3UpQ/OHEuEOh4G6hXUjPmcNP5JcF84QBp6s1bKOHnGgjnz7sPr50j4l2TGE1ZNkNJDKZLNI5o6mJcthIYehOaP/xn6/p/Ce/woOSTi5Ak1+mF5aIBDay3tbKRIa+DYJN/AjUtOTClsQP586nLP1aOOuuqtwRdJ4PAZLTT6x61LTMHqjKB4QS2mL3Qhb5oRN8qkBwen86H0tJI41l7Xb7NizCQTJuU4MWe2AVaHtHxNIvLOCX8AWLisBuevmCUDLiv6ebZsdWDn7pehx/f14IVqoOZt62EY8D60Az6B/dB2Ycbw3C9Dbb/PEZoyDI7xPdBQOBgxW5X4AVpZ8kiQwuMRRB4DTXoDMC6YibLur8Nz/jDZSouFRIUXLZT+/B6ESSuLW/kJKatWrzikUiDwTSvC3Vu+kYuA/iURs5jg/uo4dAumQcu79I+mh1bxGASJPB05/VE/6kPUF4+A7cR+JN1SV/jUBRuOndAhRoE8vHpAAn8TZC5iAgLl99AwaQTM3d+F8dNfQ5c/BMHrXxGHEM2SE2lfAWlMW4RE6ov/q9OwrZsL19mDiAV5SZZCj61DSgGFRzelpVZMyDMjp8QmFnPLNuLK4Dtp5XGj2Hw6YrEiKQ3UNaPpaxLXb3iQM82MlZsiyC824kElEzI/HJRQ+T/XMGloQPFsccWwbIsVoyYRgU60oWSGDvUNTL48vs9ab+clUIe7ETOou375hrxqQR4+27XXhQ1bbI9VhDoTXhCBSvAcO4iaPu+jYV42ora6pie6r/I6GoZ+BO2XXdEwZTDCDXepulKlFec5tFbybMbNi1cwSnt1Jmw2GE8eQtisJ1MeFqAfkLUc2SW7USTd7NsASWttzj8jGQsh2lAD255NqC8cgoYRH8OeOwCR2RPhKRqD2pHdUZs/DK4T+xCx2gShMXjNgLRwvrkcJZHIpTEWg3lREWz9ukI3+GPol81H3G4i+wRpnOQzSVQm0iOtQWU//vMXUD/wC2j7v4+7Qz+Br6ZcxMfhtgUlH7FYCsuWGzF8nA1zFjvhl4caFXsB+iJtKkJ18OwxlC+ZhYS/5T6VHKM0JHD+vB85RW5s2JWgawNu3eWJJyZBrm8K9bNIJBqNJnHjph/T55owZLwNI8aZMX+BHhqdVDd5vSxPZEkPmc4JvTmCqbOrcLdCHu8UZQPsO+zAsrUGUCfzW4EXQqCiqnEF9vgR0dYhHrJTReI9JXkfUSrqaBDOK6dgPLITcYs0hpLioyN5H6xWX2Xkaknmojsolt8LE2FKKg4f75FspMor9gJtJtGWwu6/jeDS4u1RWK/i36bR64H/6hlo5+ehdngv6Mdx934yfIUjYBz6KfQFQ+C7TJp9WGIn9sOEJFGJUr4SgSa9PjjzR8P60T/CMD8byaCLfg0gSr9FirsT9HsymTOkX416JhuWwzquH8U3Eg1ThyLhNAkb2VmrUOxYk1yzxk7dZTeKpptgNCrdbYmkxT0JN2dOp+PyCdwsGiS2RKzXRHHqlB0V9wJUB5u72JWVIYwvqMeKLUHkTbdgyzaqr2IitFlrZqq1uRK4csOFJSssGDXBiX5D3Rg7yYLS7RY4nBIZizIiD+n1rtOB2iAf/Jc/oxq18ji58tsePeXGolUNCNFD5tuAF0agYpccufYpGgx3MaWjQKTCFuBbpaZxHWRJs5bABiTiwlceoOfTz6UOJnfs4/KJ6GJcrtnHQ/JtBiv2kk6lgAgnHkaw6g506xehZuyXMI35EuGcQXD2/DcYv+wG7ZwCBO/fF78N++PfjrV98ZKAXKKN/gAchdkwvvVPpFkeoN8iQg/PAD0Qw9R1p1+HCVT8KhLibh1qpo+CI7sfdMM+g+3wejKl0JUfSJyH1JxKBtcf/q0lOkth/wEXcvOtyC2w4tRZfjhTHIJApWA4LklzJA20thx310yDs/YB5iwyYPhoKwomGbF2hQY6mXxDkRRWbdRgfL4OC9ZEkJ2txdYNZly5EsTZyyHsOuDEUiKFqcU1mDLVgCnTPELzLFlsxc17QZBSLMCb6jSTpzSJpGSr00BkqBGV1SFMm10PnYUfRFKeGWcv+TF3cRX8Acm8wyDi5Vi4bjSXqvTQ/OZK+YV24UW+HsogN7tHM9ukPaQ7fSykcJrDkjw2654qWkVTOUvXpqImogvWVcG6dTU0w3rA+NEvEBo/HI4Jw1A9qjf0m9Yg4ZDWNTItibFWDoe9xqOwzsyD+e2fInztLJU+0WxjiIT35oyKeBQ6jDvM0C7JR81IPkPqA2iLJiDukt48E9wogqQYSHOtrgjgyEEnNVTe1Z9X/obpypNBSVTUBlBQZML4bDuWb9QjTP1FaSMX6deXhB+mcSRi9GAN2hGJhLFtpwGjx9STX7sgwqkz61FOYTG87gQWLjdi6lwn1m8JY/p0J6YWelFUGMTUIj9mzndhDWmoC1dFMJ60znWbTHD4pGVZ4hHB8dO1mUDTyrezgDMkMpXCzZtUJgu0sHmlX1d5VFy/y0Mb90gjf54lay3QFC9rV2HEk1Rfg1zP2Eyqj1LsXz9eLIF+7WgqaRVPgaYSo5YfqqmAfeNSGEYPgWV0X7hyB0I38gtoc0bCc+kEKYhSw1D8JL0umKeMIg30J7BtWk5hsJ7K9vxfcpckgvOV3YB++ngYB70Lw+C3UTupL8LVfCwzaYHc1ZcJlEdwzp53Ij9fi7w8G6ZM0ePCFS9TofiwM18ohQWLHBg72Y4ZC41we9iUgmD/dJWENcAkPN4wLl0ywe5OUrcygUtXXJg6owGzZjswew4PAxhgMkh5On/Zg4kFOuw+ksTBU43YcwTYc4gXyAP7TwLzlgcxNteAA4c9iIWlWARpthAlDU3l2unQiPPnHJi1QA9XgHPK+r70G5TX+1E86yYMxsetfHgWSCXqcMWwY5cRc2bVoLTUCJtTbOn9jZV1JyNQFc8GrpxEYvRI55e+rKYg3HfvwLCqGA1jP4NrbHc4xvVE5fCPYdqwDHGbdIQDj9M49+6CZmRveAtGo24kEe7uXYhoapAgzTKir0bg0nk4ls5B/aCPYOj1JsxfviNOLwjU3KVKT/HyuVmkqSrLL0KxRsxcXIehE0xYuyOGeUuDmJRjxJXbAZFKTms4nsIi6j5PyLWicKYZJqMy/qg0M75Kd3qDB7NnlaGmvlkjunXfj/E5GqxeH0fxHA9K5ttw4myIuvgmlBAx7zmZwr6Tjdh3ohH7SfYca8T0hV7kFdXjeplbSjdr8PIE2beHQPk3knJ15JARcxfqEIjwd6ZPzjGgMQcxfU4Zqmo6kkA57BiVdRL795owKdtMvYUgxk+wYP8+nvGXn77fAFQCVSGaPC/64TurxYd582+hqpYXk0cQKjsL4+yJ0I78BI6xn8MyuDv003LhPrYHdiLG2iHd4Z6bh8SmhfAUjoG+f3fohn4M/dgP0NC/G2re/hk0r/8dDD1/jfoxg2DbuAUJK8/SU7PgPliSV1DwuCo1AvrKzaCizovlaxqQW6RBTqEVg4ZaMGycBjsPu1BWEcbeIy7kkaY4f3EA+dNt0OiYHJm8pNF2oY9I7ZnyQQQ65y4a9Dwmx6GTLptIYvtuM0ZPqcfkGU70GWHGZ1/oxcz+hj0J7DndiN3HSfs8kcDBk3Fs3BbF2GwDrt3mGWeKIRVDIiltV8jxNRMn/ReNmSPn8pQT0SnA+ZPyxKW4fY8GK9ZoxPsRUtlLsDjCKJlXgRt3OpJAOUZe1RHDpo31VCfcOHgeWLgyjDlza+AP8OoHaY0Hl3ib+mgbxs8DlUBViHql1C2nM4iiojJcvcaLobk6EimFXHCd2QtN9kBYBn0Ax+DPxLlPpvG9EVhehPiGBbCN7gnngLfhH/YxLH3fRX2vX0Mz4A3oSXPVLyqE4+Q+0kw1rEgIiPFKZdyQRGqWzUgSyekNEVw470PpJgtmTSMSHa7HFwMMGDHWgvWbw1i/JSXeHjJYmUC5ey9NczGN8tturB1a7VFcvm6BLyhrKYKok/CFYzhzw401u41Yu9uAtduMmDnfhNypZmzcGcdeJtDjRKAnkli7IYbcAjvMNimMOGnLiVQSCVn7FJRN93KmyA0TDa95kLTqFll7ZaH8Rkyaa0vrULpLQ2YEUdbCSuxuNXNxA05fevT0h+eBKF+KrbIqgEn5DViyIYKVW8OYNrOSuvVhShlPKvMDTZq8YwQiSfrt3Th6xEK9lIj0O3Twb6ESqIqHEImksKVUg+tU8bi2cfdIqphURS16mNYugrb/xwjOzkFiz0bEd61FatMChAsGwfHxT2Ab9wWc+7YgUPsAMaceKb8BqSQfc52mk/E/EoVA5a/NdZtJSGhySpeR0hCMoZ66heu2OUTXffP2JDaWJpE91U7dRg6Z9U+FQKXNRHhQNGGxIGE3k/Yi7UzPq+WSZJ5slDr5vDKB9RfmdWcgheWrTCie6SbtE9hN3Xcm0B27KZ4pVpw45ub5NhmcLg7hYfAYbihAMVH3vrNByW2EuGjJyjocPm6QTag05B8vHG/EgtUG7DuqnLn1/OB400v65FnpxYfiZQFMW1gLt49PSWD9n7VQ6WGaSKRw+LAV4yY1YPjwWhw76hK/WEdDJVAVD4EbgieYQpjX5hDb8HZvUaqQUrUkRBOwrl4E28QBiK+fD/sk3mrvM2iGfwJNjzege++fUN2XrmtnI+6UXvNjMotTwLxoSLzdRGEy5bFINCQ6v80tJa21hGMJ2N0xeLyUAiI9F6WtcJ4Zc6j7vudQIybmWXDitLKZCIfEYcm6EqlKujULoN++nPLFjUueWiJLqafNrsT7SsIXG23d7kTBNCJQnkQ62Yj9x2OCRFesDyE3uw5bN5twvzxKpB0R4311pCWX1wZxrzKIy9TF37jTQJpsHVat16CqWtrhXupSihS9OnhMkoPUO58zvwFfXU0jSdkt/3TrSy3YuLWZXCU8ff6lJDz8kGVUN8SRnW/E0Ml2rN5hQZgeVvwrsr30KEwi4E9g8WItpi90o3CWBdt3uaT628FQCVTFIwgZTTAcO4hGt/TUlpYIScTD8JzYDdPYL+Ca1A+mnFHwXjoF752L8J49CsfCfNR+/i+oe/uvoZ02BiGxlZ1EUUygPOfAxBmNhhGVNzPhBiI2mBGkJozgDzXixBkX5i+pR8EsA/JmEmku02POEh114YzUSInYTgMLVnmQnVuNsnvyK0kEibCI8C12VOQMguvoVvFdspHpjP7xaiyRKdJOWRe12iMoKqnGwlV+HDyfxIHTSSLPFA4Qge47lcKG7WGyd2PYWA8GjrVi0DgLBo9zYtBYOwaNsYu1oeOpqz9tngujxlsxdlw97lfwxhocGQvdvgrgdJIkiP15l6m7d724f5eud2K4WxHFkbN+5Jc0oF7Pj9Vm99K/FE6cdGHu7FrU18Wo65yEwRiFlrrQOrr6qYvPr/a2B+xKIU8xJEPXEGm4W7a7MGKEC9k5BtyjLj2bc9WRdH7pP/cUduyxoIB6E7nTtNi13yEennJCOwwqgap4BMHaCtyf2B/BskuyCVU7uQJzBXUd2QTToPegG/gJfCeOCNMmJPxEpAehH/wp9B/8MzS5AxG4fZEIWFreJJFwI9x3L6Bh+zokfS658pMtxZGgBnL7jg9zF/HCdgMK5rowMs+I3iOMGD7JitlLvNi8O44Dp4D9pxNixrxkvhMTpjTg7KUAdc9FLCKOkNGI8nWLEG24z5FKLVJuP3Iymsz4AbF3vxnZBTqs3hrD8k1RbNoTxSEizgOkie49SV35g0kUz3ZiYr4GeSVmFMxwEpEYSXTILaijbn4VCoprUTSjDlOp0c5daEC1srcoxyXH/aqAD8k7dFKHkhn3MWNGPabP0KNkTi2mza3DJtK0g3y+OEHKFv9nHS+FmvoACovuo6i4BjNnV5Gfe5g6/xY9WK7jxnXqlVC47SkMDr1ZuAeRxMnzTgwdY8Sw4WYcOGhrIlbFnfjt5aAPnDBhcpENk6fW49xlB9nzhyxF/B0DlUBVPIqwHzUzJqG6dClVOOm5zeArvy5r27QA1s9/gboJAxBpOoZaajwKPJfPoWHQRzC+9zcwEpnad20Rr/Wm/F5E9XUwzxiDqi+7IXz/hhwua4FAGZHnxElVKJztwNzVQUws0GLJStIgjvowdRa/rw5s3JXCnAVBLFvjw+7jCRw4CyxcG8DEXDN27bUhEOK0JJBMRRCLUjc6Rd06ZfF/K22HU11eG8LEbBNGjHUip1iLorlairuBCNOBbftTOETa7vwFXsyYbkEDaVP+aALuUBIefwxubxh2ZxAmsxcGkw96UwBGRxDeaExo3mKkoI24X1ZwUvmhEgzF4XZH4XLH4fJQXj0R+DxRxPgcD3LEZSdli++koZBALCENb+iDQoPVGAOoN/uhNftIAyWtVTxFn1wYHKIQcsp6qFYXwdRiepDm2ul30cLmYA2YbSQtVSJHuiEE/CksoB7LhEI78qebUGfkiSb5oxKoihcHqlzU//E9uAt3+Z0mIyYArqRxl4m65qNgJgI1LpgqXgeVHPCTn6W5cnpunEf9mN4wf/hLGD9+A+bhX8A+dSwMEwbC1Od1NPR5A6Gyi8Itv23ETeDSFSdGT9RicomXCEyP/QdsSCQaoXMkkT/LhpwSIspCExavcKCoSI8pU23YuCOB/ceAtVsTmDBVjzXbDNCZgjhyuLrpXXm5KZJQ+pQ0ypcYtdDVm6z4vJcVM+c4UFUfhjOQwM17IcxboKGuYj1WrQ9h7mIvps004z6RLb84/ChY8+U4GNxUeeJKjO6+kniUaPg7C+eTH6xSnZDAZlwmfFXctfRPICPuwosezSPhP4ymUGRnN28EMWmyA6Pz7dhzWN5zlOzEKAzd8MNe7uLg4kUvxmbbMCzbhTWlHoQS3Mdp7Td7PqgEqqIFuElIY1v1tQHUVcm7GFEtZhv/vZvQju4O+8B3SBNdLNkxRE3nG3bV3KyCunoYVi+DZSCR5wc/h+XDn8La+9fQ9yFZmoNUQJpoijXyTGoAXn8UOw4YsXyzHuWVEvnVEQlOX2wkbcKCMdlm7DniBil/pO3FsG6DhQjOhBxqVDklDuTMcWFUgRUFJU7MnVdDWgrPsStNPV2aEgyrLYHJ+UZ8OdiCm7cUwpXg9yZxYL8RuYV1GD3FgaGT3RiXb8biNTZ8dcULo4HH9ahxUpBSiC3jaA3NcTejNbNvGlKa+D/nhimIHwjKp6lLLNs290KUvJCw5k8PZIUwW8oTIZxI7mrrI8jNs2HQGA/OfMWTRRQGFbxCoFIaIH6T6SVUVya6MZZPB2jgOvC43+PZoRKoioch6phUEQ+f0mHG/Ptw+aTKxx/nqYMwDOsO15jP4Nq1XLgTYH/CL7uVhP9zk4qTZhrWNsB74jjsW7fAuG0D3GcOIunVk5sYNQKeRCJtrZHHC6UlU5LelkIkFMPMpVpMmu3GjEW8yN9MXUoKWcTViHA8icr6EL667sWx8x5MW2zAoEkufDHYh4UrnfDGuOmwSP/T0ycaN6GqKix2VRo2xkwasDIZxRHIhEC3ensUe064MT7fhpGkBbGGPCHfgiLShqdPM+PAYZd4J18Km/2KBD4lFH/P4vfFQyLM5s8j5SkkPQ8sinn7oPhqgiBZSdvlQ/q27HCjRz8HNm6iB7tYKiYtXVPAO2YtXkKa5zAXxo434ewFh6hL/GkRcodAJVAVj4K1A7oYPUkUzb+DA0fr5CaQgPvwRliG9YB9zBdw7lwpTAWa6qfSYCThkFhXaKridCPzlgCTp9ichAe6hPA923DjCCEYCmPeQh1G53qQXWTDjdvSzL1QksVxkEroInLYXXGsXK7D4FF2jJzoQOleG4LivXUGX1lkohM7PzXiPh9HXGhE4QwvikuMpHkrs8tM7qyRNnf9KqtCWLHChOxcIybnmTB1hhOjxztJ26mWd76ndHCjl/4eAS9CtzhTqKiJ4Mo1P85fdOGrSy4xcabTRxERr0Y2Q0ltU9rZurWAOxgS5XCczZFJvyb/l3RR/iali8uRU5meMCWhcrofgWQvhdfsRrlTfEt2vLZXuqvURDF8ghFDhjXgxmVevialxR9uxI07fhTOsaNnH/pNxhhw/KQbCTGpyOmT08i/uVLfOILnhEqgKlpAqnD8ahzPcFZW2XD/vkWyIvjO7qfu+IdwDewF/96dsilBqfEPQTJo1YpBhlI3ThLBO0zedJWaqaR51FVTF36GD8PG2rBtjx1GM5MmQbQLcsx9OIllEK+7j5uL12FW4V2MnmzHuBwdVq/UoKEmTD1JKR4pdAavH0xi124rkacBOw7HkTfDjqI5Gur6S6TZGCe3ROopHrdjcieEQyk8uOPFnp1GLFluxvzFpIGecMArDkhneZhMuK3qdVEcOeHCktUG5M+2IrvYjexCFidyWIocgowXLzPgyGEz9IZw04giZ7OJZJQsfC1oKzI2k8pCgpw2gvjt6B/v78srIpIJqkcJ+iXpnpdFKbPmzeBvnFN+aHFOWwGHScFzWXijScxbqcOQCVbkTjFi3RojNm7RoWSeBX2GOvB+LyfySuhBe4M0VBGcklauVxRCih/A9BuJ8fr0PDwbVAJV0QJc4SQRmiEhGQjAfukUkm4rEVSNeP+9snsWQtekCaCmOvqc9VEJQhIeZWtuUKU73Rib60ZOgQ2FUxtw67ZXRCu3WHGJWU2omZYD3YY5qK9zYhqR4tQSH5GjA7kFOqzd7MKFGyFoLVHY/TE06MPYsceJ7GwjVm0MYf+pGEoPRDGxUI+5pMUaTTJREwSJJhMUFTd2Thc3Z9J+qBuZ4I3AKTUSHTMRsJtGBAIp3KT41q63ILdQh5xpDhTPdxNBe5Ff7MPUaXZMLTIhn7TfiXlWjMn1YiRps8PHkPsSHTbtsqCqIUSxiZwSOqCQ2wMuzKY4H0Y0yqeixmAwRHHvQRSXr3px+rwbB4546DeyY+1GemBt0GLlWh2Wr9Zj2UqSVXS/1oiV60xYt8WKrXtc2H3EhaPn3Dh7PYBb5VE0GEJw+sMIi8P4HoXCdf5oI+avrMecFR6sLY2joMiDUWPt6D/EinG5Dmzb64VZbKVHHlrRMjVaP+5WeOi5K/1+zwuVQFU8iqb2I9W+mNuN+yUToV1ehJTLAtfVszAd2424XzoEUPSEuS5yJW9RYZ8GCj1wENIYm1TBg+EEZs1vwIzFQRw5Ayxc5Me47DpcusUTXOxaIlrzudO4P6uEiFRL35K4dz+EbNJSFq0KYcO2OIpmBDAh24bc/FrqspdjQk4FcvKt1KgTYsu6XUdJGz2RxKaDMeRMt6Fguh6XLvkRCaQ3NO7Sc3ycUjZXMiylmqlTb4/h6GkPZszRIpe6+XPmBbB4dQjFi4KYNM2IKSX1WL7GigNHvTh7IYgLV4M4dTqIbTs9mEfa7KSpJjH8MIyIYfwULTaWWtFQFyJeU3TSx4NTkp6qZ0MjfKE46ojYrt724QjlZ9N2FxYss6Jodh09DGqQV2RA7lQj8qfZqGzdmDbbi+nz/Ji7KEQSxtzFYcxZGMbsBSHMou8s0+m+cJYfU6a7SFN0IJv85hYaUDC1GiUzqrBoqQFbSp04cdKLO2VBmExhhCLS78u4dc+PCQX12LQtjCVrgxg1xY6ROWas3EBaZ5kHkSa3/PtISC+Dy7eCGDq5FheJuMVz4jmhEqiKx4C7W1LnMVJxC7ez+0J/qrnbzsdrxFOkhXUggTZ7pwDlGs7LjA6eNFN3vBpzF5L2si+F+Sv84vz1B1V+6iomYDGFELJ7EXX7peFR8YZ7Al9ddJN2ZxLayjFeFL83iR1bYli/Jox1WyPYeTiJE6cC1GDNOHqcNKkTcew9mcDuw6TpLAshZwoToA77jjlQWR+A3x/lSWUZUvqi8UZY7CFcLnNh1RYLdckNyCZNeS4R/uJVQRTP8mBygQkLl5tw4YoPFlsEMT5YvUlb5XtJItEEqmoD2Fpqw6QcPYZPsGPMFBdyi8xYu8mKO/f98AWaCYWhdO85NUoZthTJRiH+dBDp0+/o9Sag0QWIYHzYe9iNNevslH4T8mY0EKHrMLnQhnwmybn0YFjEE3pOzFjgxsyFfiLFMJmHkD+TiHEGadczPJhS7BaSN42u0zxkxuZeFMwkoQdZ4ayg8Dd9kQ+zFrgwa44TM2eREAlPm+5F3lTqoudrMbW4AfOXGkmzdOHQSTf51aBkoRMHj6awem0I46b48OVoG0bmajEp34DZc+3Yf8CJek2AtOWHyymebMTmvQ50H2TGwgU6RIJc9s8HlUBVtA+8NrTuATx1FXA7g0hGqCFSvyrJS1Sk9iuJ1FqfCa15ZXLgCYRQMoWLN6hRL6hCXo4RJaTFjCuiLvBcE7ZsMWPV8krqArJboiVKR5RIl5PDcwi79nswZrIWm3fEiCiBY6RtHjkCnDruwL2L12C5vgv2WythvbEJDy5dxKmTdhymBnr4FLC6NIzc6Q6MJ01r8jQNaVMWrNtM3dW9PpRSV3RTqYO6qXYUFWuQPbUWBXNsWECkuWCln8jDjom5GurWWnH3QRhx5ewPGTwmx+/oCxHkphAp2zWiui6ItZsNmFhgxKhcN2mjNuTk6TGL8rydiOAqEXa9PgyPL4kYdW2Zkx+OQSpTNkvQPx9p8jZ3TLxSWVHlFZNXW6nLO3+FE4WzrZQ/LcYWNWDcVDNyigPIm+5DLmuJhU5MzuexWjNypzUgv6QW02ZVY97COsq7lojdgs27XNhF3fiDZ704eM6LE+e9OHfRi/MkfD1LcuYr0mRP+bD7kJfKzo0NpXYsW6PDvKV1mD6/DvnT60mz1SC32EGk7aUHhwPjCuyYVOQlTdOBETk6zF3qxwH6/Q4eSWHZ6iAm5LswYJyPJIA+o3z4bIATn/XTYdREIt7FRuzea8fFy06xvnjlBgtG5uswbJIDS5bqEabyeF6oBKriyWhWY8Cvr29ZX43Nm+vh9ktjfU3EScKXtK9PAdZ1EzBaQ9h71IQjZy2wu6WJBakrz6HxbGsclZURMSY6ihpXj8FBDB9jRtl9H+lyvG9Uo9iwhFcU8fwSa3i+SATrtxowbrIO67ZHxEbJJ48FoLl6EvG704DyCUDlaJLxCFfNQOW1wzh2xIaVm+KYlGtDXq4dublmTCaZkENElu0jrdaNSXk8tupC4XQ/CXVfZxKRkqaYT4Q3i7TWXYesqNbzknsuEc5DRJpgoa8s/OBpTZoKkPzEiGTvVgaxarUeuXkNlA4rCks81I22I7vYII52nkFa16JFdixf4cCa9TZs3GqmLi5JKWneG01YvsaMxStMmL3IhKJZVuQVW5FdZCSiMmAKaYQ5M4KYWOTE+HwzkbWViNJF4sCMhVas3KxD6X4zjn3lxc07ftTUh6A3xeFyJRANUe+DCrqRNHCR5ofABpxnJqn0h4Nyz36490J5pAeLN5CC0ZZAtS6CW+URnLwUxPZD/BswwVKai6wYP9mMpcsCOHSkkbRVN2nleiJkJ2rr49DqGlFVF8fJ8x7Mmm/CwKEmfDnQjP4jzOg3SoPeQ+vRc4gRg8brkD+tBrfLlQ26nw8qgap4Mrgxk/BikgS18GpqRDPnV2DDprsIR5onWhhS++elJZIG+DTgme7S7RoMHl1DGp8WxdNrceeOvK+kmDXluLgBphDSa7Fnay0Gj3JjxCgTLl/njU84Xil23q5OWvrC6zoDCFJDnb/MiilzHdh/LIk7p6sQvjMLjfeHI/FgPJLlOUhVZCNVNQH+Bwvw1akKTC52Yd0WF3S6JC5dJG1tq466kxaUzLOhaKYTRUSaPPZXNMuGmQtsRGBGHNirF5tviLWqouAilA7eq5JLj8+J4rRxuljzpFJ6RJhYRGETz7B/CTx586Dci41beLmVjrRdLXWRLSie4ydijGD2whBpx14iDyemz7WiZA7JXAtpdnSdT2RI3eSZi/gcozBKZvtQQFpeXiGRJU/KzaT0L9ZjDZHlsWN23L4dEq9NOr1RxOWlXhKY+KRfuElEeumWnfC9MGPh34v8KsLjHmzGV84fS1M4j4JtObYoufcE6cFqjpMG60ZeQQWWrPJRF9+MU+ebN5CRwmFfQNCfRBmRfekuK+YtcZG27BSv5M5fQd17eqgZNSFyyb9B63E/DVQCVdFuSJVOqqR2ZwR37xvg9TjhK7+HpMMkzKUmwXog09jjmsij4PZ36hR1lyfpsZC6wXMWu5FPWldVBa+v5OaUpHgssOzfiAcFQ1B3/ByRhxuTp1gxrahWHFssQUql9D8OdyiEU185qJttwcIVIRw4GsWDc9eQLCPt895oItCxRKDjiUDHAw8mIHVvFm6euYXsaS5s2MwbSzeDX7O3+SIw2H0wWAIwmqKwWknL9VGOWw6pCbIgQ9a0iFSk7TC4ZKgcmwiTu/EPi6SeUtoFIT0M5h29NYIzl61YT2Q6e64NU2cQGU6XZu4LZupRNMdCQiRPRFowx4TcGVrkzaDrNCumTrdi7iIrVm+04gBp2dfpwaPTRuAP8q+rgO/4V2PylMpdEakG0IfS1lIeC7YWwm5bzdpDUJxL/5UalML2XfUYz2+eTXXhwuW0t8ZkUub0pfsMkxOfj3ouJNG030dyKbl+HqgEquIZIFVQRowItGpuCaoKRsF99TiSUalSK9VekSeCPLDiEqH+9/HTTkzMrcfKDVHMnOvHgmVGeEkLYZhOH8Cd/NHwfnUEfocPcxY4sHRVGDNn2DC9RIsrN/1wBxIIJFPwROJ4UBvCopVmjJloxLKlQRw5BBw4HMOVc7cRujMduDseifsTkGTi5K48EWng/jxc+eoOVm6MICdXhw1rjKSB+omgiSi52ypSwq0xXfvmHHMm6KJoWIJAJWFilOhHcqLgYfJUSFUpNSmmR8EhkBALBUgJazDGcf2+B6cvmXHguBn7jtix9xBpW4ftOHzcglPnjLh2y4aqmjCs9qQ4xjlNuU0DG6bHLcfTJN88HlSGMC7biBHjXDh6Ik0DZfIk4TLmQR8mx9bSzCb8KFBy11YJtxcqgap4SigVU65+dInbbdCXrsL9OVMRNBuhNYZJMws/XSVlrYtnfGScOOPFpGzqgq2MYeBkI2atMsHOi9ujNjQGJa3w8i0vJlNj2r0jiSNHqYu+2I/xU4zIn63B7KVGTJ+nx/jcOtGF274POHYGOHqqUWw8cvy4HaZrm0kDpW57+RjSPscAJI0PClF3bR8OEfHsO57A1n0hzJrnQW6OHVOmGFA8oxarN1hw6IQbF4msy+tDsHoiCKalvRnpZcXyKLgbybv+K933Zm2Ow2tXybWCdP+txyuB7XlhuaLhp/t7kt9vBlZnAkWz9Bg0woFtOzxSMjmdcrkxgbI0l2MzXkTuVAJV8ZTgapdWFZVaSAQQ9zsRCvuxc3c5SgrLsHZ1A2rr/WQVR8pHpBdXutgtQYEwgcRCiNsM8Fdcg+P+fezYbsGg0Vp8MMiND6nBrNnmRUNDFCbqMp89H0RukQ7zlvmwa18Kq9fzWsMgxk3xoN9wJ77o50Kf/g6MGGvH1GInps/0YvpsN1Zt9omt6Q4cS+Krk5VouL4TjrtL4b67EJ7b66H96izOn9Bi78k4tpGbHadj2HcW2Eeku2NvAivWhDBjrhtTi+zIKzAiu7AW+XM1WLjSjl17PLh0LYDymiAq631iiRVv9HyzLICbdwO4fs+P4+d82Fxqw7r1Fly66hMnjPKHlU4hTQ2/pTRD+qaYK1TAV6mb/agobpohfWNzadFXs316mC8fwuEUllKPZMRYN2bON8LNJxVQernMeIKOx5eZQFkDZeFctJSOzJ1KoCqeC0rFVZpvjP47fVGU3fVj124tymu9SFgtqJszHTUlk6BZPx8xXT20+hh2HrOQZmjC+Qt2scTHdPkY7uSNwc2JA1C3fx2igRhul4WwdJ0FAyca8MVAK3JIG80v1CB3mg3zlvNi7SAm5xhQUlKH1Wv0RN4OHD/lx9kLIZwhkj1FhHX0hAc797iwco2VtEgN5i10Yc/hFPYeC+PgcQdOn6rD2VNVOHvShOPHglhXGkbBPDtGF5oxeqpFvD20dXeCwiXNmOTYySSOnWCttxHrNodROIcItdiDohIH8opNyC3RImd6FfIoTVOKdcibpidzHfJn6DBlOqWVwiuZG8CE8Xz2lLTbFRVhCwIVpiRcskqTV0Qxex5R4mgJJfyXE6lEIzavc2BygQfjC+pwrYy3tUtKk3OUbD7pVdFCJSJ9OMeKdBRUAlXx3EivmDy2pjQ/njKJE6XGgyF4bl6H9cAOaHauR8Sgxd0KPxZuvIcFq+/g8OFaREMx+A1VsF/9CrG6SqT81DDkQX9uNFV1IUyfY0HBbC+2HExh7Y448gotmDVdh2sXffC5eKZXaRrK9WHwsqYH5REUTq3HjBl27D+elM59JyLcdSQldrlfti5G3X4TVm0lMr3swmE+VmSpDhNydNiwNYqjJ4FDRLzHTySE1ju+gEhxhhbj87VYuJa04RPAht0pzFjiwdgpZozMsWB0vkNcc0lrnbuctODSCJatD2Ds2CqcOyudsd9EoLJI4HzwlxchrZeRhMfZfcOgpJ2kB2J2kVW8875hkxHxhOi0N/38fFHkRUMlUBUdA7nGisYvhA146Y60CjIdjSnSGEhdkLQEYULC29ixe0mTFUbiRgkQ2H3Ahdw5DqzcFcPYPB1WrjbAaVc2dJYgGpI8jSD5awqRvklmFVVBFExpwCLq/jNp7jmZwJ5TUWzcHcfkPIN4Iyl9ksVP3cbS3TaMm2zBhtIEabQJbNmYwETSfA+cc8LiSeHwWTfGT9Vg8cYQ8mebScOsRel+PU5f8eGr2yEcI5LfvMeEuUv0yJ9mQOEMDbbv0cLp4RULXCYPiwS2kdLc8ZKWwVcMZmsMBTN4+MSHGaTt67U8ccm/uPT22dcJlUBVvBjI7TO9mSr3oosqWKLZlumU3yRXjvZQEIknYDbHcO6MH0XT+DwiD0bnaFG604Kwn/0zWfKGG7z1CDcilpZEIcUjxsiEWpvAuQukxZBWuJW0xQM8sXQqjnmLgpg11wwP79bMYJVVJnFeHbBhnQ25BU7s2deI2TOcWL/ZKaZgGDFi3A2lNvQdZhabP5tdD6+PVcDLapykLbs9lGIKXkqdlD4V7YBcVGcv+zBwlBYjR1Wg/IGfTLgGBUX9aapaX0OxqgSq4muH4M8maR7oFwZEbnymd2VdFNuPODBnqQGjx7rQ+wsP+vdzID/XiLOnneSGPUjgEPgtJGmhEBOxsn5RCVmELsUl4mskkkxhwSITZi9wi4PjDp9O0vcwFi62w8+vMjEEgXKIUlgOexzFM7WYPd+N/EItrtzyiJDZGaOyNoxh4zUYPsmMMxf8iPH8hpwnSbXke9mxDCWVKtoJubAiKf7NLNi51wCvj3s5pHtSGYv9ZVUCVfHtA9f2JELhGLbtMWPYWAt69LNh4BgtJheasWyFFydOBGE0SEMCzlQctbEwqmJBmOIxhInoWFuNxJnulBb0KKR2JXXwdx+2IL/Yhn3HGnH0fCO27Y1jSkEDjhx3iA1CBMT6TQ5R0kqPnrJh+DgLxhORV9RJb0mJyQtyzlro2i0mfDnCjNETzDhHRC+BdGO5YTeRuCBTJT0q2g1Rbvzr8e/BV6n8lBl4tuay/rqgEqiKlwQSrV26acWwySYMHu3Gtq1B6Ixx6C0RXLvmxf49VuzeY4DBHcMBayUGXt+Nvtd2YE3NJXgTSZw+68T8hQZs3u7DmashuIMJBIlo+bQlAYkDBdyhBOYtb8CsxQ4xDrp+WxyzlwXFOTr9B2iweQtpol7Jg0SfHEYjGvQxjMn2Yuh4Kyo1AWEvmrMcRVVDEBOn6tB7QB327JbOxGcXomELeZhA2TDd7CE7Fa2AC5p7GCxyoRNEucl1SCwLkz8vGiqBqngpIFX1Rhy5YEavSXr0mqPF+vsNcBL98fZva9bcx4rl9Th6wgJbII66qAtH3LU47mlAddiGai0R1xQz+o3wotdgL7oPsCN7gQ6jz1zD5OpL2Oc0oM5JGiyFda8ijKXLLZhcoMXG/VHMJOKcMMWERSvtWL7GjZFjjejTzyyWywTlvUBZu2EqdXkbUTTbhd5D9bh0iwlUGnfl8UzxuibJmXNuLFpSg9o6ab/S1viwJWG2FBWPQ1r58G3aV4k++XH39RCpSqAqXipUO8Pot/0y/m7LUfx6834cq9MjSvXfH+FD5yQ3UrNo1j4Y1VVBjJuswcjJRixc5sDKlW6MzjXgV7k38fezTuH1tV9hxIoaTC4xYGy2EdNnebFzbwqL1/gxpqgB1+4HxTp/Pqfsq6t+jBjvwJiRVhzeZ0aCF7szsSGOQCSFBSvN1E03YflqK8JiA18eJ+W9UYlAKQDq9SPRYus6FS8ICoHKItFmM4HyRyVQFZ0PosLTP1nbslhjOHOGu+cRXHUZsbemFmcqTTD7QmlNgJiJ2Yn3zyRRmgeHwduq1dYGcOe+FwHqeidjjTBSmKfOO7FwhRaDCurRc5wWA0Y7MHx8EAtWhLFtRwJTpuhx8LSVOoQckqRteoJJFM8zY+xEOwpzGqCt51left0xCKcviVlL7Sia60Nurga7dxoRjrI/yXdS6V1KRipeNLiM0ySdNNM/Lwoqgar42sDVWJCM8oWJMBHD1WsO5M+sxPJlD+CwM1ERWlHgxCYbYoqVpSVDtWwkSkxMroBZn8DJ0w6UzDRj0BgHaaEOFE93YWKREXfrpQPceOM5ThOHfuayB9lEugtma2Ezc5p4rWEMGnMYeTMNWLM1ivWlIYybVI2ly40orw0jSnGJD2/fxoOiL67dqngMmEC/LqgEquJrA1drRTlj8HYj3lgCB49pcfisGSFpPTQpmURCLfmRkKawEvimhYMmsDkHwCtDWVuV7hkOVwpzVphIg3Ri3aYYBi+sxvKKu3Ck/CJ9/EqgdAVM1jDsTl5byMQqpfrcFScmT9Vi5/4kjp4Cdu9NYPpMN8bm6LFulwn1tgjFxCGwtJU+FS8SL1LjbAmVQFV8PeA6TaJU7ZsBK2Y9OIGKoE2QVVOl53siMWlLt5ZQfLcHggbpP+9Sz2dlSgTI2HnIjinTbSjdmUD/effw/okdyCvfj9qIW9CsiKUpev7GkoQ/kMC8JfWYM9+OYyeB/acaUbojIc7xGT7KiU97WjA62469xzyweR5+IUBF54RKoCpeMJqJUMww0/WW14ael7cip+I4LDFpKZAYQRQqpnxhh03gLyytaHUtvjaDLZg0pc2dFWhqwiicbsD8FQHsPgTkzDBiwSkt5tScxzUvn+Ypg1k9TunlbfbkPJw4acewsRrMnhvE1u0JrNwVwcQCPdastOHwPi9WrXFhyGgruve1Ydp0O27cDqTFrKIzQiVQFS8QTGKs00mvT0qEBpw0VmFZ1UXYebNhQttLd9hMITBFWnPHSHdL98IZh8/fAYs5ggMHrMieUoti6r7v4I2VTwOzFvsxb4ED7nAC/lAM165aYHHyC5qUXj6JTcalGz4MH6vF0AkGzJ7nRG6BAyMme7F8tRtxaQ9pEdPdmhByShwYPMKFiTkanL7gbHpTSUXng0qgKl4wmMSYkOKw2eP46qIDdn9IdKulOSHurrdGoAohKiSoiORO9PCbSJLfmWSCVkhachOjMO9p/Fi/14zc6Q1i7HLZOr/07vvpRkGgm3YlMWGSBjdu+hCNpLBsZTXmrqqBKyC9yx4JJsQxIyMm6dBjqAWnLvgRClPXfbcf3b/0YuVKvzi1Q4IU7/FTNuRP1WHBoiAK8nhP1PSze1R0JqgEquKFQlqvmUA42IgV6w1YsLpGnKzJnXk+RI7l8QTaUiR3ISK265cccNhZ/WNzhUAlaBpCWLtRh3EF1cieZcHK0gQOE3GeOBfFjgMJzFvmRfFsJ9ZsiWM6aaQrlxsRJWLUWxOYMa8WB07YcLvaj8UrzUSwBgwfb8e0eWb4fFIcx874MGCkCwVElGajtHKAz4Li/xZDANOLKzBpggW54wy4qxyMp6LTQSVQFS8UTG2MCxesKJx9GxqxJIiorjEp3txRyPNRAmXIJMoXYa+QKBFoKIm5c/UomG7E2ctB1Bti0FI3/c59nzjWN2caEV++EVPoWlRiwaw5dmwuDaN0Vxy5+XbMnKPHkjV6jC+wYO7SELLz6nDrrrS5sd2ewNkyN0bPr8BnI3QYPdGJomkWlN2V3jziv4NHvRiX58OEvHpcuirt6ckLuJUF/tW1Xuw/oMf166SxRvlx0awZq+g8UAlUxYsDk548m24wBaHT8oJ0JhqmE6KaNPJsm0A5DL7I9zKJJpKNWE9E2auvDuOz/USUPhIHiQnT5jgwbXYIEyYbMX++HkePm7Fpq4FI0ij29Fy2XA+flw8aTqF0vx05JXbkEdFu2mZEo9jmKY67fhPGn7uIjZctuHDZDZ2Ot0njWX3ujqdw6IgXOVMDyC5yYOc+K5kpKeNBBE4nQ0oz55a36pO+q+hMUAlUxQtEEu5kAId1Faj2Nx8PrFBhu+mkFYdMVPWGIGbO02JUrhnT5ocxa3EMsxYFkFtiQG6hFkeOuMRbSRwA71C3apMHn/fV4MhRtwiDzSv1YUwqqcMM6sZPn14HE4XJoZujPgy/fQhLDLcE9QkIApVmjC5d82JMtg6Tp3qwap0DfDw+J1MhUHbJS6i4Wy8JE3O7c6ziFYFKoK8S0rfpoltF42HljK8vI067dfj84g5cdZvFd9bHlFy0RidsxpTH8lCeZMd3Qw5s1N9GbUQaV9RYYti8l7rki00ommkmAjVjxwEr6nQhEYbkMU6fFDbtCeDzfrxbkxMp4jMuN3c0gQWrGzBrgRsFxUYcOcln7EjYb67E1Ft7YYlJk0DS2U+ixOENJrFhqwaD+teieKoWHnG4mZRmiUClzjxr29I3tQvfGaES6CuEMGlARyw1OGqrRUhujIJTqW222gP+hsFvsU9/cA555Rcg6E7siSmNe7bkEmUencFXhUAlupL+NYQ96HV/DzIuLUZx9XlE0hbbh4jQ3K4YQiGmLAZv/SHpgHzvCMYxa6kRI8ZbsWwV77LExtJgwomvPNSFd6BwgQ8zl+nhJ7ecAF88Am3YgXAja5ASIUrEKIUZCidw9ZwXZ49b4QtKm+a1JhJaZFhFp4BKoK8QXI0JfFG2C5ln5mCV6Q4RCDVKIiUmURZuoop802CSZFLkjUGqAx6JTOif2Ow2LZGhxiQO2KowquIwpjdchD4i77EptL2H87LPXou/vbISn5hP4O1bpThuaxBDrPzqp+SSffDkFI9vSkd8MOEx7lR7MLmoDrOpiz97vhU2q6IRxlFjiiJ/lhZFpIVOLqmCwUhpoKA4NIMrhJNf6eGVZ9/ZTCJT1iyl+MR++I3Sruhskp4aljYhJU3FKwyVQF8h8Ojbcv0N/PDqYvzy5jps0paJtY6MdI1NacTfBJR4k4kEquvMaNAqXWJe4sOqMl0UIRyx1eBX19fhjeod+JdbqzHs3n7o41KX+aHJJbpUhbz49OYOvFG1Cz+r3IYRlSdh49yyE16tLo7goO+tLI3afdCGqTNNWLjSjxlz9HA5uZS41KKwhWOYuaQW2SU25BTXwWhQliUBRlsI02Y9wLWbrEPzw6p5rp3PV0qKN/r5yrpuM4Ey+J6lVbAjRVS8slAJ9BVDbdSLHvd348vqw+hxdSv2mSuEOTdU1riURvtNtUvpVMQUdW+BZSvu4dC+aknrbCVVbDKn/iL+6eZaTArcRo7nOn5xewNKGi4JumXnTRwoX6/4bXizrBT/UL4R75Tvxn35VVDBheIpQg5ZI1XUckKUAluxyo45C0OYOt2EnTt1Yt9P6Q2pOMrrIpgyTY+JhXbMWqKDLyBpm/w/nkhh46Z6bNxWLY5X5oQoBMpdeWmySEqeFJty145f4QnWKl5+qAT6KoHaJDf5Bbpr6PfgABYby9Dv8lZ85dbJ1t80gXIK+K2jJPTGCKYV1eBBmUxwTeDUSWCC+spnxoe3tuPfbm1CP+Mp9NQfxbs3t6I2LK3JbILMSTwsMEn3Ff7x7nr8+u5WXPc7hDUzraJ1CiHyVDRQvz+J+QvMKCz2YkqRCTXVpMsLqwTCkThWrrGisMSD7Kk20lSbz2nnY5GSFI623oOaSqcgaM5hM4FKIsWigL+1bqOi80El0FcJcnusi/vRv2wnVpruYpHuJrpf3iRmpxnpDfvrb8JMLKzaNcJsDeHQMQO8HqZJToVQ+QhSqvjD23zwsEQ1dc0X1F3FG1fX4/WanXiDyPScVSNcKxD5oH8c2hzzDfzrnQ341Z0tuOa3sw3ZycSpSFrmvUSgc+ebMKXAhaJZNkobWTJDkoOK6iAmFZixcHkUuXkNuHNfWquaIOKMk6RIQoko7nqssEWkqTuh6KaJHI0MKdwWhio6KVQCfYWQ3iY3Ge+gJ2ludyJuFNeew4h7B6BLSGN33MCZaB5t3C8eHCeTUyyVQFBMrEiE2pyaZtoRQw5EUGzMJrvt1fhx2Vr88421OG2uI5NmiHzQP87XbMN1/KxsPd68sxU30zRQMfGUNjMveQIipEouX2XD1BIvsqeZcPUGj8tKlnWaEHKmNGDk8AasX2NEKCwRPZ9txMLQxHwYcucgTthrxffmHDRFkYZHTVR0XqgE+orCmopieNk+LNNcg4Z0udFEoJPvH4M9yUtuJKL5psAUtF93H3t1d8SQw8NoJhgx5MCaoNAGgct+M/761ir8zY2VOOdI21qOIWeKhyHz67/C31xfgZ5396A2Kk848YfCSSaSqHXbcMNrprLgd+7ZLoH9h23IK7Qgv8SGbTsaZHMgRmHevOrB4b1mWExSqUnddGl8k9NmTIYwrGwPdupuy/4U37KIPNCtbKKQq4rOD5VAX2Ectdfhk2ubURZ2oibqQ58rWzC35oI4veebbMA8Xz3iwVEUVJwWY5ZtgdOYns591mr89c1V+Lc7G3G5aeG97IZZicRJpNi9fC/+11ezUFR1TrxYyVDGJRn7jRX4l/PLMaz8MOrkSSaNNoi8HD2GDdPg6AkjuZU0YBYFKdKYk+JIDyZP5Tz4FDz0gNpefx1XjNXCtUSgcoJYWiFQFtlIRSeGSqCvKqh1elNJ5FacwJjyI9TIgQsePXpf2ow9lgrRgL8pcKd6csVJLK250m5NmMlmnfYOfnyPuuZ3S3HeIU2MNXGTnKFzPjN+cHkJ/uDaAhx1NggzjoPHU1nYbXk8iJ/f2oQ/vrpQTLgxDTaS6nr6pB1795vg9MUQa4whzt10mSQlrZOXI/He9dKH7aL0n018iThCRN6SW4UiZVEJ9FsLlUBfUSgN9WrQhvevbcRuVz0RCLDZ8gAfXtmAc/LM/DcBnod/EHKjPuIj6mk/9pgq8Hdla/CjstWYqbkskS9nVGYicyqOAdVH8d/Pl9D1CKxyF52HCXgoVcFXfqsg0D+/txJja08hKJ9nJIYMSNhpgkiPw5c0V9mczNK+iQ8vyY9QQZ+9aMfNMiuZtA/tdafi1YZKoK8ouIEyLfAs9oqGqxhStgfGeFh030saLqDH9a2oCEtLcr7e1iwRT4POjQaD9AZSexNgiYUxruIYvntxPl67tgTLzHdhTMVEHusSEYzTfIXfvjQLf39jNa4GbJKnNPDQwVWvGf3v7ccP7qzCj6+vxEZbeROJK6ngNLEZXxVpPYVsGkc43ohVa404eMggGatQIUMl0Fcd1Pp1pOkNvr4dy/U3BTHYSVObUHkMo+7uhz1OlMo80IIhWieMjoAU8vbt97Bl2/2nioeJTBePiIX0f3F+Hn7/wlx8VLkXIypP4OMHe5FRtgqvXVmKNdZyaBvjuBF146TfgH32GizW3cTg2uP4l7IN+N6lBfjbK8uxUHsNHh7TpESkk2VLeTySCESTWLKiHEeOP7y0SoUKlUBfZaSx0x57JbqT1nnbL2lmGiLVPjd3oKj6NMTRZjKJpGteHQ9OkKTv7dpdjwWLKhGVp+HZhuNMS/JDUHxyt5onhvbYa/HTK6vxD7fX4b2aPeimPYC/urcBvauOYLrhFt66twPfJy3zj28sxh9cnIvfuzQHv3dlLr53dTG6lW3FessDBHhskiLlxfBKnh+XhtbA00kR8l/b4IXVHhDdfBUqFKgE2knAo42THhzFlIrjiPH6RWrnV3xmvHd9I9ab7wjSYJHfSH9xEOOIwO27bhw6bEFcnoZn4np0SdOjUOiJ3S+uv4puNzYjz3YNv3iwDX9yZTH++vZ6/A5ppv/j4hx0ub4CP7+9Ee/e2ILe9/ZgUu0ZbCHttC4aEETMYSQpPekPDRE+/1O+pEsr4Fl6UyyAKy4tfMmoNE6qkqgKGSqBdiJc9pvQ+2opTrjqZROg1FGOD65sFPtyMmcwnykTLo/hjWcDB0aR8GGW1OtFINko1m0+NWQ/J31GvFVWijG6c+hbdwyv1+/DH1xdgl+ShrnCdh9Xgk7URAIwRUMIxInqOIMyJG1WIs9WCbQ1aQNnLLUYemU76iPS66UqgapQoBJoJwITxMKGyxh8cyfMSZ564UmmRizRXEP3K6W4E5J2Yuf2L801p5FKR0FoaCm4knGsq72FY5a6h8Jvef+4uLe5a4ksNyPffBV59hv4RflODKo4hip5g+NHAmOmpCtr2RJ5Pqx9NuWV/7UmrYAXLi2uuIDsm4fgkmfzVahQoBJoJ4GiFfHC8QE3dmKp9kbTInNnMobxd45g7M39MCUkYpU0s2aCaYM/nh5Eno1ENP7GBGbeP4/xD47BLdYGcBqbOE6A400Hp9dKab3qtWKN8R563NmNz2v3Y5b9FnrWHMZbN0pxT96JXvTRSb2V9g2Vhg0YHKaUN76X7NLtBfiLIk9AmCj0iL4cF3S1QrNm7f0pvKvo5FAJtJNAIkOpSe+3VuLjixtwOdS81KeBtLbRRKAl1V/BQeTGBBMn8lH8dQiJcgDEMHzh8c6j1jqMuLoT+oh0HlJr4fNCp3tBF3YaypFXcw497+1FVtkW/OTGWvyM5NPy3RhhOYcvzafx3o1tuBR0SNEIhpTGI9O71JyPZuF8PUKf7WY/9heIp+BOSLt98hNAxJ0mKr7dUAm0k6CJD6hVB1NxjCs/jJzKE/DJE0qM6wEHPqWu/ErdbUFwbKx0dZkM2sEpTwSHwdwWpTtHPIQqtxFRPoAoDQ5K03W/DaspHQPLj+D1u1vxi3tb8IvKUvzbg81ip6V/KVuPt+5tR8+KA/jX2xvQtXo3Xq/YiRGVx2Gj/Ak8lkCZ7J4vR6xt7jvswNGTZgqPc9URJaSiM0El0M4CbtuKEC4Fzfjk6iackF93ZHMmll32GnxwaSOOO+qbiKYVHe2pkB61CJPj4n9EOk5nAGfPNMDiiaEy7sdq410MvHMQv7q5GT+/vxVv1u/GL+t34V/K6fvdzfjo3k7Sks/hpKUWdVG/2HH+rEePnjd34sdErH95ey1m6q+LxfUcoUKYCprT8awEyqFJ/jS6AAqKKnD1Er+QwI8ERcdXoUKCSqCdBQpzyODmPltzEQPv7oUuyS9XEkiJYuJZpL2OT4lcrwek88wF43UEOBhW1NKUtWp7GGPn3kd2aSU+uXYIP3mwBe/XH8RnmsPoVrsbv7q3CR/e2YaC+nM45tKiPhEWk0BNkMN5EPbhs7I9+P7t1fjRzbXiuGFpNFdy0pJInx3NiT9zToe1a+8hHGQzfm1UTgyDb9O+qvh2QiXQTgxtLICeZTuwVHddauuycsXd+pzqU+hzeyd08vlDHYI0QuGJq122agy7fQrvll7BWwtuoHvZBbyvO4w3HmzDh7dKMbbqOHbaq6CLBsSQgsK9ChmK0QflC+ECdft/WbYFf125Ef90ay3m1l2CKyF159OcPRc4CxyiNelDg9cFt5/XMZC5+NeKqPhWQyXQTgomEx553O6oRu9rW1EZVI6qkFq9NhHEkJu7Me7uQdgb5THF1iCTRHv5wpKMY6v5Ab64swv/enM93qk7gr41N/DWsZP45cXt6HV/HxaZbqMs5BKL/0WYgjkbqdufEsKkKZ3g2SycIXa71VaJfy1bj1/Ubse/Xl+DSVWnoEvIJEfyCNq0SEezA76rS0aQXXYIh6z3hZm0+5K8NF8Jr6Wo+FZCJdBOCplz4EolkHPnCIofnBKExWbKm0q1QTf6X9uG2dor0jnz/McEy4SQJmykaIZNZvKt9I80zsYkdtir8cW9vfjFzQ14r2E/PrQcx8+rdyLrdinGV57G+Irj2GC6Jxbzc3gx8pNkpuTV9mQgzjHi4QQ+FC79YDhhTh7oll/PXGK8jddvbMQ/P9iAP7+xGMWaiwgLB+yEHEk3D0ubYMum3CGYTGJO9SUMvLkP94jkpWj5v/JuE6Fd4ar4NkAl0M4KatyysolrbhM+u7oZhzwNggKYLpTGf8lrwPs3NmGt5a5ED/yPSYvtFWHwle3SrwQeADjt1GLog8P4JRHnBw0H0Md8Em8/2CEmisZWn8Iprx4B8nDWUoeBV0px1FGLKBFeKslz20R5FJbgdLoRBJ5GnE0iNFSKjG6DJCccWgy5dxD/fHkFZtScE+fLs2XTsiX6e0jagoi82ZEnHsGKB5dw2WsWlKlQ6yNBNHtR8S2GSqCdFNy2ueHzPyaCubUX0Pf2LujlCSVxlAaREhPEZkcl3ruyHoedtRK5tiQv6U9SCvncdf5CqAi5kVNzFj+5ugpvV+/Cl8aTeLNmNxHnRky+f1yQkDx9RR6lscXFuqsYU7YPtqS0uF6QEwfJ8gQCbeT0sj1niC6sXZdTGmzxMKWbqVP6PA2B8ltTYjtmutRVeqA3+omgKQwqCDYT5dEanhCuim8HVAJtB9pqK9L6SdFcXzoo2pOSuLqIF19c34aNxrtillvwJ1vSH3epl2uu4eNrm3A6aBL+GtOI0hKPYqPmNs5bpSVR/lQSW0338Ra5f+PeVvQl4nyHCPRn19ZgaPlhcVSxMkPOYIpi4ZJyEHHWh5yoN3vRoPcpUYgEKR+JL6W0CWkiUjYnEQ6EryY00+cTCDTtO5M1P0j4HKUbF+yYXXAb927Jh9TJBJruVYWKllAJtB1QCCBIzelG0IHz1O11pmKiDfNCdG6yLyuUlHH61xHp9bqxDZUR6Z14cUAFkxH9/f/tnYd7VNed9/+B93n22fd93pZkN5tNsptNNnm9juOCDZguMB2DjbFxXIgNTpzEjkvc4oqNTe8g1HtBqABCoiNUpjfNSKNeZjQzkka9F77v73fuvdIgC4zZTSyZ85GP7p17zz33zOD56HfuPfecHpLipxRNPqlPgrlXmSq4i3aco/f6O2s2XtSl40p7E8wD7Xil7AwWGWKwrv4knqinprsuCs8Y03CmpZqO4TMp8OdyfdI+SZ7ILYh3Pzbj/NUWMWumsp3zKPLnaJUdSpvG0HJp7hzfrexRzsBLeq3t1JKK8HLIa8bpaMWOjw0ovhQE39QXeehEIml5Q8tQk0QiBXoLaF+YE/5yLNZHY35ROKJqDSIo4i/YdOle7R0ZwCvmTBysUqbL4HvXPI8QhXRiPz/h86HzLH5rPI7TnQ34rPoqVpbEYUdtCcqGehHXUoGllmTMqUjFk015CLPGY2VxLMIpqm2gsjVEFDnpjyJI/rSGhkaFPLd+4YDdqY6cr8KCFDXijOpHywvepiV1s4qy91YEyseyr/n9l/e0ojBYi4aWTtTVdmCIewHQdo5yhTgnJpXQekjubKRAbxH+Un9cfhaz7NF4vC4H60sSQ6bUnT6cba3Fc9SUL+72CYmICJTvgtOSheAZ6cfHZeew4MIhvGg+gUtdTWgYHsC2ykLMN8ZiRd1JhFVmYD79Ifmg/AJcPUFxSUCMgEQCUsbfvIlA+VTiE+NcQ2hu7EFH2wBMrQ3I91eKEeQZblqPSUxdhIpL3ayi7L2hQCfAUz/Hee14rjgR+92X0Stqz0f2qyWEHDZJOaH1kNzZSIHeAuLmBi35JkuYKRZP+fIxyxyD5GDldV/yKUtIHYMkqHcdp/E6NcOD/GeBt4sLi/Qe1eZ829AgLjdTZHZtEEW9LdhsyUKYMQGP1pzEHHsiNpjScKq5GoOqQYSD6Zd2PP3HWydJ/Dkq6yKPkCW/Bi55yvF8YQJec5yCtVOZ0liBcyp360VufqmcQCxYwqLBz/8QXAfxQ2Wq+dSsgoFeUmTvMOp7OvCJ8zxivKVoEpdiFPkqkxwrdVNqK5HcHCnQW4CjIf5C8TTCb5efxxxnIma4E/BB1WVq9k2DrxlXkZKiLuByWz2eKI7D+fYGRRL8HkSidfUCI8sqPVCFpYYEhJWlYnl5Bh7mqLPmKuoH1XmW2L90DLtr7A76GNrZJktKPu06I8NBsLmnBXudl1DcVIl6bxdKdM3wNg+JKTWGtYwMH84vWfyiwuo+0c8pJB/B78PX0o+z+X4c2FOBixe96BseQYDkzTe6uITQeovXlLSSxvdIJF9GCvQW4K+oMoEucIGatPMNMZhZnYIt9hy0ULQ21eGas0g4VmMpcKf5L1wXxZzynTyykYhAaYcqT74W+lltCeZQk32hOx2zrbFYa0imCLxWHdlTKWc8fpwMTUFaujljDuOsIyModTVj984yfPJhObJPetA3OALfQDfK+9oQGB5A/zA1tVngdBy7f5ikOHKtH/3X+lDd14FLwXqke1yo7u/CpUtN2Pm5Dfn5zSTTQfqjp3wWA3wsH8yF0H+aLUNWJZKbckcJ9D/zxdAUUNnXjScs6bi/OhmbSnPgGQztsDM14bpzLVkaGhFeG1ZcjUR5d1D5UNQ3WNHThi2Ok7jHHofZVWmYYYzCq648uAe6xj9ASuwcLo8lej1ckJZCDrgpSsNZdK8ioXEXqhEKSTs7rsFhbYfL3oIhknxcrUE8EPCSLhV5tTa09Q0jM7cSETFORMSZUV3XioahDrxjPomnShLxMTXT3b0d6O4dQWf3+LvnvxccrLKANX8K1CUvtE0Syc24IwTKX4bQr3VouuUvipqxqr8HTzuzcHdVPLZYedrg8bvPUxV+n5rofKODOFqrx+Mkoq1VlxEYpPrTe+M851rq8LgxFfc643F/bRrmmuJwqMGMdjYNw7YRxqF19fNQ4Behnyqn6zLcgOuPG6Vmurh5xLsEIWVQFh9JvLC9AacosixtbUTnwDAuF9fj5Olq5J2tQpO/G73UNK/qDKCuv0N0qeKWg3JjiK908pVU5VKDSFRm6JUBieTrcscJlKMNkbTXlL4OVmpCLrck4q7yKLxddgZ9I1+OwaYi/HTNWWrWbjYdx2ZDGs60VqFHfAJKx/ijDRYsKYrBQlcqHnDEYY3jOPI7PErUKj4s+jWpQHmFy9GuAYx90pS+Cu047RgtTUD7RwtByTm+TakFbw3Jx6t0HIuZGvhif6ielf3KqkRyO9xRAmX4KRa+Y8zczvcnr70ODxrC8f/s4TjoNSob1fKmKlw77iL0zNV47Kq6ikZujqtU9XfhHedZLDDEYX7FccywxOHlsjy4+trFfuEuTZxaov/GPzhe0cQXmsYy3ITJjuN0A8bOG1L22DaOLkNlrMCRpohsQ36uk+iN0Mq9haySO5c75hoofw9qetrEdbG37Lko6mpSvhtf40vCX8sddUX4kXk/7jNH4HRXgzj22gh/cW+xkG8Arl1ZbxvMHT70qrLna6Kn2uqxzpSG2dY4LHNnYKEuBp9VFaJFnYKDxalEefwmlcXkb5M3auK6YaZJ0I7TjvnqY0OPuPEhX9pAW8Z/JJL/Ku6om0ix5cV4UB+Bec4krNUl4jIJRXyd+Bt5M9TvXM1wL56wp+GfHAfxjCsTnqE+EZDxkGzKoBTTgzqq96f1JXjIFIV5FWmYX56GRwzxSPGWYnBCU3mMm3qHd/L7H1Pb1+B2jpFIpgZ3lEBPNbkx3xCLp5ouYE15JlYaElDQ7VO+wxym3QTOctRfin83Hsb9uiNIb3aJjdw/UUz2cCPxTCG4286Flho8TVHnXGqqr2k8jQW2BGzQp+JSW6OaS4Pfj5YkEslk3FEC5RspRxqseEAXheUVGQgrT8EGaxrcfUoXHaGKUF+ErBv6g5hvScB3dLvxm9JstA1RI5j2D5BF+fmV6wTKq6Hpr4h2Cha8lsTrkPNyg1zfF8SfXHmYfzUca90nsLYmBwv00Xi77Bxc6lzrfAznDTmU0EqUSCQTuaMEyrAgTrdWY01JPB6tysLD1Iz9oq5EjFvJqhgzEqMuueP275yn8BOKPmcao3Gu0yu28/XBsWmBNYFqx4fa7K+IdgpOHESHCpA7WJl6WrHVfQWLjQmYXZqI9fWnsawsFSt0sYhpsCF4jWtPx1D9eSk+gy/BW7UbNFrpEonkjhOoRprfjUWmeKyoycJKSxJsAx3KDmER+iUeE+SBJ4bwF75LTdHaTEc8trhOoUs8MshKGZfnDZvwf23fcPlaUhcBirSvtHnwYdlFEmc8whzJ2OjJx0r6g/GQMRJ/LMuFrUudkZMYJjFyR58bV5b3aYnfu5YkkjubO0ag/HXXnpxhTVQO9uJRcyoeb+IRlhLwQU2BiNgUGSnRmHOwE686z2CRPgbP+S5iHgk3zl+mqIQKHCFRTSZQ3h8cGUQ7Ra5jkelfkU6KIiv7u5DXXo+9dXpssuZgqS5OTKvxWN0prKzJxmxLLB6zpiPa70SrNokcVY2jaKVrD39CN6qrJsyJSSK5s7njBKr5jCcPe6U0V8hlE8lxEUWY0QEX/EP98A32Ib25EqtNSQgzx+HNNh02NJzB09YTqKP9PJ4kP08t+keSkYVMlWLRQWcK95jxvC0Dz5Kwjrivopef9pkAV0NLgrEVoHt4CO6edlzs8CKnvRZpLRVIbC5Dgt+FJErJlBKprvvpPO/XFuC37tN4zJaGedY4zCtNwLKaTHpfWVjiSiHpx2C9JQ2HvFbRi0Crp4ZyWrUm6uLL8Eb+BLUMN8wokdxR3LFNeCa9yYmZunC84DuPZ+pzMZeitI3243jako6Fuig86TqBrS0G/KXdiIUk0v0NJmXcS3KHeLqRw1llKEmBl6LObXXFmGWNxryqVPygZC+eKIpHsEd9jjyEiQriKwa2nlbs9ZjwkusUHjUlY15xpJgmY6YhAvfrw/GA/hge0kdgtiESs8zRmEHnuc8WhRll8WJwkzm16ZjvTsFiczzWGRLFDaKcYLUYSFkgHPgVlxsm3cUbNYFKJBKNO1eg5AJ+xntndTHm6SIxrywJa+pz8FRjHp4mmb7VVIi9fjP2+Sx4o/EKwkqicaFDGadSTADJ8uQlldNDbsltq8evS7Nwn+4oZrsSMNsWixft2Sjp8ivN+NDb4hOoGerFZ3UlCDPGYqYtDrOoLvc4YnC3MVz01ZxvS6AUjwW2RFomYo4pDg+bYzHfEoelpngso7TKkoLNztP4or4EJ1uqUNnbIZ660uQunEmvxc2iry1QiUQyGd8Kgf5nvvccm+naPHjfTc14Uyw2NeRjW9CM3T4TdlHa6TPjvaZizKeI9GijbXyWSYIfiDR0NeP37jz8pOQAvlOwHfcUH8bz9kwkUBO7frhfveZKtVOlNbGuBV0+rLWn434HSbEiBQ9YorHamoKPKq8gxVeGyx0eGLubYaHo1NzdQust0HUEqM4+6IJe6Dt8Yl/1YA9aeBQjtVxxEhImX6dVbhLRhq8SqEQi+VpMS4G2kRIaR/rGbvqwNESAp0Zbk8F5ygbakUFSyqwvRZ6/EiU9zWgO0dkurxnLjAn41GfAriYjtlPaQekLvwnPVeVicUksPqgqwImWSiT7XPhj5Tn83HAE/+3SJ/hX/UG8VJGHTL8b3lEx05BwJjf3xY0m9TxiOyV+lDK3uQYr9QmY507GIncaltK5d1BE7B7oFO/tS29HKWK8kNCktbBpqUmSp9cYprOzQLkOyjPtIXm1dP2qRCK5RaadQKuHuvFnEtcGczIiPVZ0UzNcOIG//bxyAxoGevC0PQMz7DFYVJqE+dY4PGJOwGZHDhK8pSjsDeC16otYYk/GB349djeZsL/RiL2UdnqN+Iykurk2H4uo2czXIB+kJvb/NezBvxoO4LWqCyKS7OZKcMhJiFWqz0SB8oKrmROsFfOnLyZxLnamYJ0xBfntjeM9AagAJXpUukppicsREeSEJMbR5CUlJa8yApE2iNtYTwHxYann0JK60HZJJJJbY9oJNKbOghm6cCyrPI6l+hiYOwOKD1gON4GfW3/efgIzTZFY4EjAQlcSHqs7iceqs7HIkYS7HJH4e90O/MJwFIt0MVjvyMA2rx4HKCrdThHo5z6KSANm7CCRfuorweqaTKyyp+Jip2dcOpqYeEFLvjuvCZR/NAraGrHEEIul9VlY4s7AenMadBQNCyhUHqUDRZpMoJoIJyQRXfKSEkt2UoFy/bRE2ceSugjdJZFIvpppJ9AzTW4sNcXhyfozWG5NgLlbbYSzQG4C763q70RawI34lnK8XXVRPIX0SNVxhJUl456Sw1hnS8Mhnw1RgTKsM6TicVcmPidpfqEmbuLv95iwh2QaZkvAW+4L6CTRdQwPw9PXC2tXGxL95fik4jKSvA50DisTgYg++Wr1eBbLx6nZvpz+AKysy8IqUxKKewJiH78F7iIloklKPN0Ey1DchOLEGUISy3Jiol9j69oAxZp0Q9Nk8NbJ90gkksmYdgJtGOrFRttxzDBGYpUjHd5RRVJj1/dukW5K2W1VeK/8LD4oy0e2vwJBdX4jLi/B68I8czzea9ZjZ4sVn1KTfmuTQTTldzWb8aLnHBbyTSd7Fp51ZGONPR0LzAmYQ1L/pYOa+QVHYWz1iPJEs5zwDfXjJWsWVlqTsMmTjzmGKJwIVivSoshTm2piLBQU4SBvnDxNlOLXSRKJ5D/PtBNo67UR/L70DP69+DDCLInQ9QaFoETzdOwW9C1CHhGRHvskNBEX2xuwxJiAV7wF2FBxEnMNcZhlScACWxKWl6ZguTsd95oj8CPDQfy0NAo/qyBxViTjYVcKZhlj8LbrLHwDvcKBfFm0lQp+v+oy5lpjscVzHmG6aBypNWqXTK8//60miUTyjTLtBMrCSfE6cZ8uArNs8XjJng3XoDKaEAdWLKxbgq3JwqUFu4hf8k0fIWLiXGuN6Gc525GAtZZURFCTPKOlCrGNNuyvKsZeSodrdNhTU4I/uc7h2dLTeJmkua9aj7xANYLDFM1yWVQud3f6otGAuaYYvOC/gAWWWGr+n0dwZHyiszEh8nJiUssRSSKRTBmmlUDZI+y8wOggfuc4RRFgJB4myf3ecRLuXmUKCtV/X40qJM1L3HwWTWh+QZwLVOBnRQdxvyECRd1KB/pQ+DxafViQrepyLAhWM/A1zcMNZjxcEoGNDblYRtHri44c1Az1jGUTqOfV7tZzOWPzffIm2qD9geCkZpdIJN8g006gWsxWTsL8TWkOHixNwIOmSLxsOwXvsHa1UeVrWIblFCrQvGAlvle0V1zTbB1WZ0Pn8JcqwVkUkV0TPyEbRGL5cdaWayNicI/5JVHYWJ+LxfYErDemwNmvjPwkHgnlY7Wkntw70osIjxV/cV5AbqASfRwWc17ax2WHnEocJpFIvhmmlUBZFmMRHlEx1EsSPYkZ1ljcS83jT+t0StTGsiEjatHcrcA5NSkxhp4AfqE/hn8rPID4JgfaVIlxhnGJhQg05FSscR7A+NWKc5hlicGSmgzxaOcLtmw4+tRh87i4Cccx5h4/NpdmUmQdhYWuRCzWReKKOlo8n3eiQDlJJJJvhikv0FF17M1QtOY2Y+9rx0pzGmZXpCFMn4BLnco4l6ILEBtKzcelTHDVdfA+LTH+0QE8Q03tn5ccxhzdMWy2ZiKu2YmKwW6S9PV14lf9dC6+y17Y0YSdtcVYYU3BveXxmF2Vgpl0/DvuC6in/WMHUNLOxS/LKCrljvsrjfFYUZqMd4M6/MZ7jpr+R5HfVjuWL1SgofWVSCR/e6aFQDtGhnCp24MznXWiG1PIAEhoGhrGekM6nq7OxSpbKn7rPEPRImmFzUKZuFWsCUeTzq3AeeO8dmVQkPozeKw0FTNNUVhpS8Gr7jPYXl+MQ01W7A/Y8X59AV5z5eJF0wmsMsRT1BmNe6yR+JXxGJ60piGjuQodVCc+txB/SCVqB3twiMS5ypyEX1kiMLsyCSurM7HckoRlhZE40KhH67VhcQwfFvpeJBLJN8uUF2g/aeNAowGz9eFYbIzGc5bj2NWgR3anByc6GvGHigt4oCQK7/h0eLepBAuuRmJXrQ4tLJ1JEM3mr0LNVEbR7SpzIv5cdwEHmi14L1CEZxvzsKIqAytcaVhlT0GYMwkPlsbiAWcc7nFE4VemY5hviMbz5gzENlrhGegd82Wo9LxDfYhptGG9KVk8VnqvMxb/YYvEchL0n1z5OFhrRFGnD32qOaU4JZKpx5QXaEVvG5byJHD1GdjsO495jgT888Ud+OHl3fi3ooP4ccE+3KuPxFp3Nv4SNGFL7VnMNETi2dJs7KnTISdQBUd3EM3Dg2M3oL4S1XhF3V4sNkThz42XsKvFjO3NJuxopSWlXbS+rcWI9ZXZ4pn6tfY0POvIwue1RTjXViemAtHghnsjCb24qxnJ3jJsrboiZsZcbIjBcpLxTFcCVpiTEe61wTnQhX71Qi/LUr1vJaqkiVgikUwNprxAa3rb8ayRojRjJMKssVhtT8Xm0pPYXl2M5OYynKcoNLutHqsNSXimJhfb261411uIDaUZWECR4BJdtBjx6NeObGytK0J+sA6+4QlXMScxU9NIH/5IzfLF1LT+2GfG1mYrPvWb8WnAjG0BE3ZRes9XhAW6GER6bNQU74bSG1WBh73j+dcvBBuwtaYET9myEGZKxMMUba50puGl6ny82arD8vI0PGPLhKm/Y7waXDmS6DBFwmLGT22PloGXk9RZIpH8bZnyAuWB4cp7g7hIkWRxh0eMe9kWoj+O7i73BrDGmISnqnOwK2jGoRYb9gat+KzNjA8DOvyh6QpFepm42xqBX+gP49HSdDHyO4+1WT3YhcDoEIJUpv/aICpIZLmBcrxoz8Isal6/Rs1wnjojoTYfmVVncJwi3Pj6Szjq0eMjnx4L9TGiq1IDxbduki6PyhTtceCtqstYQVHpjJIILDEl4OnKXDxedQpzHYlYXpqKlzwXsaHuDBZbkmBRHwRglKsHpEzxHDslMikPDSKsql1/kAKVSKYEU16godcseZVVwssWkl6W343NTu5QH4HF7lS801qCN3wFWO/OxLryDGysPomNVSfFDZnF1MxeYkvC/fpj+JH+AP7FepSiwRhsJMnxNB7r7el4zJaCZcZYkmIk1jkyqSwrDnr1uFKZiIDzU/TZP0a3cyv85btRQkIOb7Lgt/XnMM8cgyWWZISZE8XTRkss8VhHkt5Ul4fXfVexjZr7LzVcxCJdPN6ruIr3qgown/J817Af95UmIrLVTc37AALU7A/1IkeerFD+Pd6QD4FfTtgkkUj+dkx5gSqBl6IQrQuPZ2QAr7vP4QFjBH5oPIAfkxD5KZ+3WouxgCK8tc4T2Ow+gyds6XiS0kfVV3Glw4ey3jbktNbgtYpzWGyMwUx9OObZYrGm+gQeq8/B01TGy57z+IuvGDt8pdhHTfN82tdZug1w/BmwUbK/CZS+gV7X5zhfnY29fj3eaSoSAy6/WHcWb/pJmH4D9jWbsbvFgh205BGdVlhS8H7FFRExcz9RXU8LtpSdwXev7sI/F+/DHH00tlUXolfMF6KgCFRpwvOPFKhEMrWY+gINhWTBetldXYQHTRGYW5OG5Y5kfNhYJLoBzS5PxBpLKkzUzGdJ9YwOi8TSDWWIhFzT04YYjwVPW9MpMozG6ooM/NZ/GZ+2mUTzf4/fimOeQrgro0iaH6ji1NJrJNS3UFV+DBH1F8To9fsCNnwaMOHVpgK80nQZnzeVYC+JcydJlAW6ypSM2ECZUgHVkTwY9NFGM8J0Mfhx8X6E6WPQNMjjRCmwG7nuWpKulEimFtNLoMTVTi9WlsTi8YpMzDFFIc7vQpDU8mJpNv7JcgAv2LPgG568CxMjOteH0DgyiOyWGrzpPo8Fhhg8ZIzE2rJ0vE0SPNZ4Do0V+0me75IwX8M1p5ZeESKtdB+kPGex1W/CprJcLNLHU2SbiHkmnvAtGitcKfhj0yV82mFFmC0Ru+v1igy1UJqrQkkf9OLN0jzxh6F7dPzu/USBaodIJJKpwbQSaAdFky/bcsRwcuvLTmCjOR2NtO1sez3CrAl4uCoFL1uy0DEy3gyeDBaRhiYkjvuudvuxs16HJy3HsYwi012Nl2GvicVw6cdKBOpQU+nr6K14G4UNkdgduIR1FdlYpkvEUa8duv42FPe1IiVYjlfLz2BxMXexOoEF1el4xn5CTH3MFeAHrLiTv+Zzjpg5Tawbv56YpEQlkqnBtBPob0tP4peGI2I8zROBKtFP8ouaQtxnjsCSmhPYws+b93egob9L3JQJnUWTmUxK2jaNdH8l5ulS8UFTEZL8p2GvPIh+1wcYdXxIMn0f3e6PYK89iijfebziuYi5+kiktlReVwbDneAvB+vxgvkE7jKH498NhxAXcIl9/EQSDybC9eeYUwxkwktKWp20ek0sVyKRTA2mlUBZJHqK8N53X0J0ow09HL7RfyXtPmygiPFuw1HMpCb4I7YkLDHFic70W+uKcaGjEe0hGuLIT0iL19XX2u6awW48RWWtLD2OzwN67PMXI8qTh3P1cTDXhKOkOhK5DScQ7rlK+8vweGUuHjMmwzPcL+rC11eV0fEpcbkEz8f0R3c+/q7gM/zSdAz5nR7xOOqYJZnQdUJ7GbJJIpFMMaadQFl6mvzYn2JJqXGgFzF+J2YYIrC86jjeoOb3pqrTWO5MxRxjFDY5spFDUWIbD3RMTIz0+AVHg3ubrHjIGo33gjx9hwnvefTYGjBgT6AQh/xXsNN/GTu9Bmz3OLEt4MTTFaewwZICz6gyUIgoUxOoSGKzeHRzgyMDf1e8HbNN0fiirgTnu5tg7+9E5XAvqkYHUHNtCJ5rw2ih9n0PHSrqNRm844Y7JRLJ34rpdRNJE4dmUlqKQE+VVDutbHadxmxHnOifudlzHhvqTmGOMwE/Nh7Az4sP4jf2LGQGq9Ec0l2I4SJyqbm9iB/LrD2FLXVXsNyQjrlF3C80Fqud6XiuJg9/btZhW7MFu7wmbG824lXPBcylqPeY3442KlPRs4rWTmfj0+J8hweLrPFYRoJfWpqC+ZYErDAlYY39OJY7jmO+LZn2J2GtJR2/t53GzrJLyGxyom64RxGzKJTglbEXEonkm2J6CTSEscnRhEx4qfSULOkO4A/OXDxuTcWz9hPYZM/EFtcpPO/Kwf1FR/APxbvwgClCPA4a01KGvB4PcoI1+LymGPcUh+MH+oOYTRLdaMrA/moDzrQ2IM5fjvdrCvColaRnjsXz/MgoyXNHk14085+tzyXxxmGT5QTeKD+LyCY7TD3NGOB5jdl8amqjyPJPVLf1zgx81GLEW75i/M57CcvrcvAT3RH84MIu3HP1MH5atB/fLdiOmY4YzLfG4NfWdNi61GmPxftVk0Qi+UaZtgKdFJIKu6pjdASe/h60DPaha3RY3N3upG3ZrdV4xBiHpeVpWF1xQty5X0ER3xxTDH5waSe+f3kX1tszEONzwUvHhkqKI926wV4cabRgqSEOT5Vn4osmasoHjNjaacWqmkw6fjv+/vwn+J9XtmGGKQpvkkwtva3i0gBXjJeHfXYs0Efh3YAOe9pK8Wd/McIoCn2j/BJyOhrh6O9CQY8fL7vz8JAtGnNrUvCrogMUiSo3n6RAJZKpw7dLoKGwSSeRzLF6sxhu7n1qin/casRvGvJxjzEci/VxiPKWokmd2ngMLoPLYvuprf5z7Y1YRvl/V52HXUELnqzOwRJdDLbXlCDS78AqazK+bz2EH1kO4RljOgIDvUoZRHZbHUW4MXi9TY99nU5sLDuJjRS5+tWBo7ULC/7RQWyvvIKndInYW10IL8+hxJG2uGZBGSZ5bxKJ5G/LtBao5hFWTzf9buduSywidYfwDa2GZrxIApuvi8R73qt4uf485lE0+Fb5OTgHu8bz0gqvszO1e0HcGg+V6B/c+VjsSMAbvqtYpItCXJNDXOpknL3teMF1EvcYjuIPthwEB8aj2QvtXiy0J2JdUx7WV2RhliOeIuFkOHqUSfHUS7sCnnauhd6TVu71ly2UbRKJ5Jtj2guU48XLHV68TkJ7yZGFV51nEF5vQlX/+AhHobeLohosoovTi3X5mFcYjn0NBnRqNmJzUWa+vySkSds1ofG6NkUIDzz3XPkpPOJOw6PVWVhtSUWddndfyUKRbD90nT54B3uU/p6UuJzT7XW4q/gQHjBHYUvpGcwzxuF7BTvwrDUDlQNKnTkfl8FpDFWeUqASydRh2jfhu0ZG8HtbNu4yHsTjNVl4vDILi+wJWK6LQ2xTKbzXhsQ4nQEyTk57LVZakrCqOhOLLPH4sOIyuvkWPkeWWt+oEIGyyBR5jsPXU+P9LszSHcNLvotYV5uD1bbjqL2mCpQP0CJVVXLaS04HWx34XvEubPfowTFnUsCNXxUexH8YjuB5Zzaq1GfhFYGPy/Q6eMOXNkokkr81016g3HE93mvFaooqw4yxYnCR533nsLwuC/faorDCmYbNlWfxlCsH8ynP+rpTeLIhF6t1CSjnGTI14VESrX8OFSeREzenrf1t+KS6QIwB+lxdLna2WfFq40WsMCXC0h8U+djH5GzlUU1K4gkjLpLW+2llS1U+/nvxdkQ32UT+Nmqiv2I/jdlliZjhiMUr5XnKaPZcBz5WWVyPuk8ikXyzfCtuInFU2NDXifPNdfig7CLW6BMQZknAbGsM/unqLvzdlc/wvwu2i+j0404zFtsS8GbFhbFriyLapKRFmt30wtIXxPmuBuR01+NQwIaXyk7jbv1RfN+wFw+6E/Gs9yze8xeJG1FLbIn4rOqqqIeQHpelJiFltiBR2O7BLKrTDx1Hsbdej0HVjgVBjxg5f3Z1Kn5mPoJPqSweqUkikUxtprVA2T+hrWVecgPY1hNEQqAMUYFSZHTU4DiJ8AOPDiuMCXiuMR8LTbHIaVWmCmb4OCE7Wpb1d+LN8nO4X3cU/3xlJ/6hcBf+T/FOfK9kN+4qOYw11lQ8XZqJdbZULNBH44X6fGxp4s700Ujyu0UZDNcntH4to4PYUp6Lf7EewV3UXE9sco5HprQ/pdGBNcZEse+RwkhY2pXpmSUSydRlWguU5cTy4XHc+QYP318R5iJYWprMmDpqFq91pOPnlnBsdGWheVjEiyIPJz4sMDKITY4s/LR4H35WtB8b7RnY06AXA4Cc6qiDiaJST38f2gb6xaOZO+sMWGSIwbuBIvy65hTm6CIR4bWjUz0zl8liHiZTJjfYcM/FfZh19Sg+q74K7+iQyMX1ZPi9lHa3IKe9Glc6PWgfUuonkUimLtNaoCwoFo/QFb/QbEiJF5pQWWLH/A780HAAP9UdQEJzmbJ/PLugaagXj5kS8cvLu/Gu+zwaKWqcFNXO7t5OETX+rvE8tgfN4rrobEMkXi/LR/lA11jdBkig9vYAcn1V0Lf70ElhJ59b2y+qKX5RGuNLGyQSyRTjW3ENdIxQ56hLVmC4z4bvU1P8f134DJ9UFqB9dJiaztfGr1NSHlYax4TWbj/yAm54B9X53FVZsuC0a5ta2JhJTfZF+hi8GijA3oAJO5qN+H3zFSyxxuMpUyry2xvGBDm+opQzTK/Hz62sc1cp5YdnQtLmQuKD1AMlEsmU4tsrUKKPrLe/0YR/LNyNH1KzfEeDDm1D1OAnLw1NEKjo5ynWVHhVSyRMIVBa1Yqvpghzgz4Zj5Vn4JNOCz5sM2BjeRZW2pLwRE0OlrnTxNNKqT6XiDT54CE6eIiWLM+JAuVyFWWO/ygC1fZKJJKpxrdWoHyH/bDXiu9c3YG7LVHIaqvDAO8jGfINbu6tNFGgLCwhLdEHSdGXaFrTiiZQpuPaCN4pO4e5+ih86CvGZ0ETllWkixtMO2p1eMaWgTnWWDxSxXPTx+BANYlbnapDEyj3F9XOzadglFON65N/lK1aDolEMpX4dgk0hIaeDqywJuN/6Pdga6OBhKTIaoisJQZJUgWmSUxLY6qilVBtaetdtLan3oAFxhi8HijErqAVr9dfxAJqyp/t9Io83Bn+LRLsAls8Vtdl42FDJN6puICmEWXQZRZoaPemUMYb8NefXyKRTD2+tQKt6g5iqSUJP7Uew6ayMzjb4YW3t3us6S6uZ1I+FlVoGpMWr3DSdqhkBKsxU3cMa+pysLL6BOa7krDAmSRGwbf3K8+zMzw2KfcNvU8fjhW+XDxkixF337solOVz31ygavSrbJJIJFOUb51AWTojJKkOstPuOj0eKDyKH17Zg1/r01Ea9In93BzXmuShiffxUiAyUtJ2EBVD3XjMloaHyhKw0JqAZ105eK/mMpYY4/CPl7bjXVrnqUO0Q7gOO6lJP9McjfnV6eLxUp4PnmF5Ti7Q6+sjkUimLt9KgbJ8OLrka5WX2huR0VIJe28bBnkPmfNGkaeWJoO7Hr3lOoeZ9hjMcybiDVeeuJvPnAnW4ucFe/GTwn0Ib3KIvqlcJsPrr5flYaYtVnTgT/OXjVdSy6QSupnTjeoikUimBt/aJvykcMg3qt1vV5rJoYnFqkksFM+1IXxUeVkMg7e6IgNrDYmwdSmRJNPMHfCdOZhhi8YcQxTOB+uVHWpB8c0uLLRR1GqOxZ6Kq6L5Lm7N0wn5fBPFqSUpUIlkanOHCDREUSRRRaBKU1tL4hdl6xsZQm5jGbK8LlwK1iHKY8dGxwnMs8fjqaZ8LNHH4EiNXjmGjUuJBxp5t+YSFpYlI6w0CR+5zl83nfIxnx2LnSlYUZ6ON2yn0KVO9SF8TvtvlKRAJZKpzR0kUE2i2m2aCZ2EVGPx9dPEahPuPbsTv9AfxIO2KCyqSsFqzynMNEfh9dI8BNSxP69RFMmJH7rk/qbzHPFYX5ODLaUnEVC7LTEJ1Kyfb47DQ6VxeNmWTU1/Ohmd60bXYUOTRCKZutxZTXjmJlbSdnVfG8G+2hLM1UeQNCOwwBqDpaZ4bKspQv1wvxDdCEWefAmUBcqcb6nHQmM0VldlYkNZJupHlBiUy6zs78SfHKexuCQaiRTRaqLUlhKJZHoiBXoDWG7l3UGkB8qR01wBd0+7iDSF+IYphuXrl5SJE2duGuzDM6Z00a1pvjUWyTzaEu1iuKXvHxpAbV/n2JQjXI6Up0QyvbnzBHobaLJjEXLAyc/Ra9NriCk2FCcizu/C/aYILK4+jiUUsUY0WtHLpuUDQ2CxSnlKJNMfKdCbobhxTJy8HJcf/6bEC95ByyCtvO++IO7EL6o5jkWGWBg6AkoeVbJ8PF+BVV5xkkgk0xUp0NtiXIViXUSiymobNdW3uS/h7qKDeKjgMIrbm2gH5eRsInLlY9i4mo7VMiQSybRDCvS2YOFp8hu/oy9+UeLpOMIbzNhXVYxWEqrILTIw4tUkSSKRTDekQG+LcQlyl6hh+i1a8bxZbc7zXr4PP0gbeX3MnyHHKutakkgk0w0p0NtGEZ+mP9ah9oIXGqHr46gZJRLJtEYK9BtBylMi+TYgBSqRSCS3iRSoRCKR3CZSoBKJRHKbSIFKJBLJbSIFKpFIJLeJFKhEIpHcJlKgdyjDw8MYEUPjAyO0PsyDPBPDw0MYEevXMDQ4SHmULlecR1sXx6r5R0ZCjx1fF2UOj4jBVoYGh8SSy1SW2n4lbyjXqE5cjli/RutDyvroyMjY9lBGxfn56QVap/1DdE5meGhorC7aoC/XRkcwpJbH5x/SzkPbuWytc5l4T2o5onx1XdmulMnn4nUud4QHjOFto7SN6s915bK18jS0zyQU8R7VetALsa5+RFTeCEbFC227slS2jcP5Qt/L0KBy7uveIx3D6bpz3GBd+zyU40L+PUK3q/9OnJ/PoxTB29R/c/qcRbmEeN9j/xajtI/+f+Dt4vNUygv9nJX3yf/PTDznV63zcWoZon4hn7UoU6sTrVP9xj5bro9aV40ROv/gwKCoC6dR/q7QcpC+E9rnPzoyjP8PFL2jXjH0HJYAAAAASUVORK5CYII=;" vertex="1" parent="1">
          <mxGeometry x="80" y="400" width="336" height="342" as="geometry" />
        </mxCell>
      </root>
    </mxGraphModel>
  </diagram>
</mxfile>
